<?xml version="1.0" encoding="utf-8" standalone="no"?>
<!DOCTYPE svg PUBLIC "-//W3C//DTD SVG 1.1//EN"
  "http://www.w3.org/Graphics/SVG/1.1/DTD/svg11.dtd">
<!-- Created with matplotlib (http://matplotlib.org/) -->
<svg height="345.6pt" version="1.1" viewBox="0 0 460.8 345.6" width="460.8pt" xmlns="http://www.w3.org/2000/svg" xmlns:xlink="http://www.w3.org/1999/xlink">
 <defs>
  <style type="text/css">
*{stroke-linecap:butt;stroke-linejoin:round;}
  </style>
 </defs>
 <g id="figure_1">
  <g id="patch_1">
   <path d="M 0 345.6 
L 460.8 345.6 
L 460.8 0 
L 0 0 
z
" style="fill:#ffffff;"/>
  </g>
  <g id="axes_1">
   <g id="patch_2">
    <path d="M 57.6 307.584 
L 414.72 307.584 
L 414.72 41.472 
L 57.6 41.472 
z
" style="fill:#ffffff;"/>
   </g>
   <g id="matplotlib.axis_1">
    <g id="xtick_1">
     <g id="line2d_1">
      <defs>
       <path d="M 0 0 
L 0 3.5 
" id="m1d46e0feb9" style="stroke:#000000;stroke-width:0.8;"/>
      </defs>
      <g>
       <use style="stroke:#000000;stroke-width:0.8;" x="72.201297" xlink:href="#m1d46e0feb9" y="307.584"/>
      </g>
     </g>
     <g id="text_1">
      <!-- 0 -->
      <defs>
       <path d="M 31.78125 66.40625 
Q 24.171875 66.40625 20.328125 58.90625 
Q 16.5 51.421875 16.5 36.375 
Q 16.5 21.390625 20.328125 13.890625 
Q 24.171875 6.390625 31.78125 6.390625 
Q 39.453125 6.390625 43.28125 13.890625 
Q 47.125 21.390625 47.125 36.375 
Q 47.125 51.421875 43.28125 58.90625 
Q 39.453125 66.40625 31.78125 66.40625 
z
M 31.78125 74.21875 
Q 44.046875 74.21875 50.515625 64.515625 
Q 56.984375 54.828125 56.984375 36.375 
Q 56.984375 17.96875 50.515625 8.265625 
Q 44.046875 -1.421875 31.78125 -1.421875 
Q 19.53125 -1.421875 13.0625 8.265625 
Q 6.59375 17.96875 6.59375 36.375 
Q 6.59375 54.828125 13.0625 64.515625 
Q 19.53125 74.21875 31.78125 74.21875 
z
" id="DejaVuSans-30"/>
      </defs>
      <g transform="translate(69.020047 322.182437)scale(0.1 -0.1)">
       <use xlink:href="#DejaVuSans-30"/>
      </g>
     </g>
    </g>
    <g id="xtick_2">
     <g id="line2d_2">
      <g>
       <use style="stroke:#000000;stroke-width:0.8;" x="112.987044" xlink:href="#m1d46e0feb9" y="307.584"/>
      </g>
     </g>
     <g id="text_2">
      <!-- 25 -->
      <defs>
       <path d="M 19.1875 8.296875 
L 53.609375 8.296875 
L 53.609375 0 
L 7.328125 0 
L 7.328125 8.296875 
Q 12.9375 14.109375 22.625 23.890625 
Q 32.328125 33.6875 34.8125 36.53125 
Q 39.546875 41.84375 41.421875 45.53125 
Q 43.3125 49.21875 43.3125 52.78125 
Q 43.3125 58.59375 39.234375 62.25 
Q 35.15625 65.921875 28.609375 65.921875 
Q 23.96875 65.921875 18.8125 64.3125 
Q 13.671875 62.703125 7.8125 59.421875 
L 7.8125 69.390625 
Q 13.765625 71.78125 18.9375 73 
Q 24.125 74.21875 28.421875 74.21875 
Q 39.75 74.21875 46.484375 68.546875 
Q 53.21875 62.890625 53.21875 53.421875 
Q 53.21875 48.921875 51.53125 44.890625 
Q 49.859375 40.875 45.40625 35.40625 
Q 44.1875 33.984375 37.640625 27.21875 
Q 31.109375 20.453125 19.1875 8.296875 
z
" id="DejaVuSans-32"/>
       <path d="M 10.796875 72.90625 
L 49.515625 72.90625 
L 49.515625 64.59375 
L 19.828125 64.59375 
L 19.828125 46.734375 
Q 21.96875 47.46875 24.109375 47.828125 
Q 26.265625 48.1875 28.421875 48.1875 
Q 40.625 48.1875 47.75 41.5 
Q 54.890625 34.8125 54.890625 23.390625 
Q 54.890625 11.625 47.5625 5.09375 
Q 40.234375 -1.421875 26.90625 -1.421875 
Q 22.3125 -1.421875 17.546875 -0.640625 
Q 12.796875 0.140625 7.71875 1.703125 
L 7.71875 11.625 
Q 12.109375 9.234375 16.796875 8.0625 
Q 21.484375 6.890625 26.703125 6.890625 
Q 35.15625 6.890625 40.078125 11.328125 
Q 45.015625 15.765625 45.015625 23.390625 
Q 45.015625 31 40.078125 35.4375 
Q 35.15625 39.890625 26.703125 39.890625 
Q 22.75 39.890625 18.8125 39.015625 
Q 14.890625 38.140625 10.796875 36.28125 
z
" id="DejaVuSans-35"/>
      </defs>
      <g transform="translate(106.624544 322.182437)scale(0.1 -0.1)">
       <use xlink:href="#DejaVuSans-32"/>
       <use x="63.623047" xlink:href="#DejaVuSans-35"/>
      </g>
     </g>
    </g>
    <g id="xtick_3">
     <g id="line2d_3">
      <g>
       <use style="stroke:#000000;stroke-width:0.8;" x="153.772791" xlink:href="#m1d46e0feb9" y="307.584"/>
      </g>
     </g>
     <g id="text_3">
      <!-- 50 -->
      <g transform="translate(147.410291 322.182437)scale(0.1 -0.1)">
       <use xlink:href="#DejaVuSans-35"/>
       <use x="63.623047" xlink:href="#DejaVuSans-30"/>
      </g>
     </g>
    </g>
    <g id="xtick_4">
     <g id="line2d_4">
      <g>
       <use style="stroke:#000000;stroke-width:0.8;" x="194.558538" xlink:href="#m1d46e0feb9" y="307.584"/>
      </g>
     </g>
     <g id="text_4">
      <!-- 75 -->
      <defs>
       <path d="M 8.203125 72.90625 
L 55.078125 72.90625 
L 55.078125 68.703125 
L 28.609375 0 
L 18.3125 0 
L 43.21875 64.59375 
L 8.203125 64.59375 
z
" id="DejaVuSans-37"/>
      </defs>
      <g transform="translate(188.196038 322.182437)scale(0.1 -0.1)">
       <use xlink:href="#DejaVuSans-37"/>
       <use x="63.623047" xlink:href="#DejaVuSans-35"/>
      </g>
     </g>
    </g>
    <g id="xtick_5">
     <g id="line2d_5">
      <g>
       <use style="stroke:#000000;stroke-width:0.8;" x="235.344285" xlink:href="#m1d46e0feb9" y="307.584"/>
      </g>
     </g>
     <g id="text_5">
      <!-- 100 -->
      <defs>
       <path d="M 12.40625 8.296875 
L 28.515625 8.296875 
L 28.515625 63.921875 
L 10.984375 60.40625 
L 10.984375 69.390625 
L 28.421875 72.90625 
L 38.28125 72.90625 
L 38.28125 8.296875 
L 54.390625 8.296875 
L 54.390625 0 
L 12.40625 0 
z
" id="DejaVuSans-31"/>
      </defs>
      <g transform="translate(225.800535 322.182437)scale(0.1 -0.1)">
       <use xlink:href="#DejaVuSans-31"/>
       <use x="63.623047" xlink:href="#DejaVuSans-30"/>
       <use x="127.246094" xlink:href="#DejaVuSans-30"/>
      </g>
     </g>
    </g>
    <g id="xtick_6">
     <g id="line2d_6">
      <g>
       <use style="stroke:#000000;stroke-width:0.8;" x="276.130032" xlink:href="#m1d46e0feb9" y="307.584"/>
      </g>
     </g>
     <g id="text_6">
      <!-- 125 -->
      <g transform="translate(266.586282 322.182437)scale(0.1 -0.1)">
       <use xlink:href="#DejaVuSans-31"/>
       <use x="63.623047" xlink:href="#DejaVuSans-32"/>
       <use x="127.246094" xlink:href="#DejaVuSans-35"/>
      </g>
     </g>
    </g>
    <g id="xtick_7">
     <g id="line2d_7">
      <g>
       <use style="stroke:#000000;stroke-width:0.8;" x="316.915779" xlink:href="#m1d46e0feb9" y="307.584"/>
      </g>
     </g>
     <g id="text_7">
      <!-- 150 -->
      <g transform="translate(307.372029 322.182437)scale(0.1 -0.1)">
       <use xlink:href="#DejaVuSans-31"/>
       <use x="63.623047" xlink:href="#DejaVuSans-35"/>
       <use x="127.246094" xlink:href="#DejaVuSans-30"/>
      </g>
     </g>
    </g>
    <g id="xtick_8">
     <g id="line2d_8">
      <g>
       <use style="stroke:#000000;stroke-width:0.8;" x="357.701526" xlink:href="#m1d46e0feb9" y="307.584"/>
      </g>
     </g>
     <g id="text_8">
      <!-- 175 -->
      <g transform="translate(348.157776 322.182437)scale(0.1 -0.1)">
       <use xlink:href="#DejaVuSans-31"/>
       <use x="63.623047" xlink:href="#DejaVuSans-37"/>
       <use x="127.246094" xlink:href="#DejaVuSans-35"/>
      </g>
     </g>
    </g>
    <g id="xtick_9">
     <g id="line2d_9">
      <g>
       <use style="stroke:#000000;stroke-width:0.8;" x="398.487273" xlink:href="#m1d46e0feb9" y="307.584"/>
      </g>
     </g>
     <g id="text_9">
      <!-- 200 -->
      <g transform="translate(388.943523 322.182437)scale(0.1 -0.1)">
       <use xlink:href="#DejaVuSans-32"/>
       <use x="63.623047" xlink:href="#DejaVuSans-30"/>
       <use x="127.246094" xlink:href="#DejaVuSans-30"/>
      </g>
     </g>
    </g>
   </g>
   <g id="matplotlib.axis_2">
    <g id="ytick_1">
     <g id="line2d_10">
      <defs>
       <path d="M 0 0 
L -3.5 0 
" id="m343d372ecd" style="stroke:#000000;stroke-width:0.8;"/>
      </defs>
      <g>
       <use style="stroke:#000000;stroke-width:0.8;" x="57.6" xlink:href="#m343d372ecd" y="273.852878"/>
      </g>
     </g>
     <g id="text_10">
      <!-- 0.70 -->
      <defs>
       <path d="M 10.6875 12.40625 
L 21 12.40625 
L 21 0 
L 10.6875 0 
z
" id="DejaVuSans-2e"/>
      </defs>
      <g transform="translate(28.334375 277.652097)scale(0.1 -0.1)">
       <use xlink:href="#DejaVuSans-30"/>
       <use x="63.623047" xlink:href="#DejaVuSans-2e"/>
       <use x="95.410156" xlink:href="#DejaVuSans-37"/>
       <use x="159.033203" xlink:href="#DejaVuSans-30"/>
      </g>
     </g>
    </g>
    <g id="ytick_2">
     <g id="line2d_11">
      <g>
       <use style="stroke:#000000;stroke-width:0.8;" x="57.6" xlink:href="#m343d372ecd" y="234.516293"/>
      </g>
     </g>
     <g id="text_11">
      <!-- 0.75 -->
      <g transform="translate(28.334375 238.315511)scale(0.1 -0.1)">
       <use xlink:href="#DejaVuSans-30"/>
       <use x="63.623047" xlink:href="#DejaVuSans-2e"/>
       <use x="95.410156" xlink:href="#DejaVuSans-37"/>
       <use x="159.033203" xlink:href="#DejaVuSans-35"/>
      </g>
     </g>
    </g>
    <g id="ytick_3">
     <g id="line2d_12">
      <g>
       <use style="stroke:#000000;stroke-width:0.8;" x="57.6" xlink:href="#m343d372ecd" y="195.179707"/>
      </g>
     </g>
     <g id="text_12">
      <!-- 0.80 -->
      <defs>
       <path d="M 31.78125 34.625 
Q 24.75 34.625 20.71875 30.859375 
Q 16.703125 27.09375 16.703125 20.515625 
Q 16.703125 13.921875 20.71875 10.15625 
Q 24.75 6.390625 31.78125 6.390625 
Q 38.8125 6.390625 42.859375 10.171875 
Q 46.921875 13.96875 46.921875 20.515625 
Q 46.921875 27.09375 42.890625 30.859375 
Q 38.875 34.625 31.78125 34.625 
z
M 21.921875 38.8125 
Q 15.578125 40.375 12.03125 44.71875 
Q 8.5 49.078125 8.5 55.328125 
Q 8.5 64.0625 14.71875 69.140625 
Q 20.953125 74.21875 31.78125 74.21875 
Q 42.671875 74.21875 48.875 69.140625 
Q 55.078125 64.0625 55.078125 55.328125 
Q 55.078125 49.078125 51.53125 44.71875 
Q 48 40.375 41.703125 38.8125 
Q 48.828125 37.15625 52.796875 32.3125 
Q 56.78125 27.484375 56.78125 20.515625 
Q 56.78125 9.90625 50.3125 4.234375 
Q 43.84375 -1.421875 31.78125 -1.421875 
Q 19.734375 -1.421875 13.25 4.234375 
Q 6.78125 9.90625 6.78125 20.515625 
Q 6.78125 27.484375 10.78125 32.3125 
Q 14.796875 37.15625 21.921875 38.8125 
z
M 18.3125 54.390625 
Q 18.3125 48.734375 21.84375 45.5625 
Q 25.390625 42.390625 31.78125 42.390625 
Q 38.140625 42.390625 41.71875 45.5625 
Q 45.3125 48.734375 45.3125 54.390625 
Q 45.3125 60.0625 41.71875 63.234375 
Q 38.140625 66.40625 31.78125 66.40625 
Q 25.390625 66.40625 21.84375 63.234375 
Q 18.3125 60.0625 18.3125 54.390625 
z
" id="DejaVuSans-38"/>
      </defs>
      <g transform="translate(28.334375 198.978926)scale(0.1 -0.1)">
       <use xlink:href="#DejaVuSans-30"/>
       <use x="63.623047" xlink:href="#DejaVuSans-2e"/>
       <use x="95.410156" xlink:href="#DejaVuSans-38"/>
       <use x="159.033203" xlink:href="#DejaVuSans-30"/>
      </g>
     </g>
    </g>
    <g id="ytick_4">
     <g id="line2d_13">
      <g>
       <use style="stroke:#000000;stroke-width:0.8;" x="57.6" xlink:href="#m343d372ecd" y="155.843122"/>
      </g>
     </g>
     <g id="text_13">
      <!-- 0.85 -->
      <g transform="translate(28.334375 159.642341)scale(0.1 -0.1)">
       <use xlink:href="#DejaVuSans-30"/>
       <use x="63.623047" xlink:href="#DejaVuSans-2e"/>
       <use x="95.410156" xlink:href="#DejaVuSans-38"/>
       <use x="159.033203" xlink:href="#DejaVuSans-35"/>
      </g>
     </g>
    </g>
    <g id="ytick_5">
     <g id="line2d_14">
      <g>
       <use style="stroke:#000000;stroke-width:0.8;" x="57.6" xlink:href="#m343d372ecd" y="116.506537"/>
      </g>
     </g>
     <g id="text_14">
      <!-- 0.90 -->
      <defs>
       <path d="M 10.984375 1.515625 
L 10.984375 10.5 
Q 14.703125 8.734375 18.5 7.8125 
Q 22.3125 6.890625 25.984375 6.890625 
Q 35.75 6.890625 40.890625 13.453125 
Q 46.046875 20.015625 46.78125 33.40625 
Q 43.953125 29.203125 39.59375 26.953125 
Q 35.25 24.703125 29.984375 24.703125 
Q 19.046875 24.703125 12.671875 31.3125 
Q 6.296875 37.9375 6.296875 49.421875 
Q 6.296875 60.640625 12.9375 67.421875 
Q 19.578125 74.21875 30.609375 74.21875 
Q 43.265625 74.21875 49.921875 64.515625 
Q 56.59375 54.828125 56.59375 36.375 
Q 56.59375 19.140625 48.40625 8.859375 
Q 40.234375 -1.421875 26.421875 -1.421875 
Q 22.703125 -1.421875 18.890625 -0.6875 
Q 15.09375 0.046875 10.984375 1.515625 
z
M 30.609375 32.421875 
Q 37.25 32.421875 41.125 36.953125 
Q 45.015625 41.5 45.015625 49.421875 
Q 45.015625 57.28125 41.125 61.84375 
Q 37.25 66.40625 30.609375 66.40625 
Q 23.96875 66.40625 20.09375 61.84375 
Q 16.21875 57.28125 16.21875 49.421875 
Q 16.21875 41.5 20.09375 36.953125 
Q 23.96875 32.421875 30.609375 32.421875 
z
" id="DejaVuSans-39"/>
      </defs>
      <g transform="translate(28.334375 120.305755)scale(0.1 -0.1)">
       <use xlink:href="#DejaVuSans-30"/>
       <use x="63.623047" xlink:href="#DejaVuSans-2e"/>
       <use x="95.410156" xlink:href="#DejaVuSans-39"/>
       <use x="159.033203" xlink:href="#DejaVuSans-30"/>
      </g>
     </g>
    </g>
    <g id="ytick_6">
     <g id="line2d_15">
      <g>
       <use style="stroke:#000000;stroke-width:0.8;" x="57.6" xlink:href="#m343d372ecd" y="77.169951"/>
      </g>
     </g>
     <g id="text_15">
      <!-- 0.95 -->
      <g transform="translate(28.334375 80.96917)scale(0.1 -0.1)">
       <use xlink:href="#DejaVuSans-30"/>
       <use x="63.623047" xlink:href="#DejaVuSans-2e"/>
       <use x="95.410156" xlink:href="#DejaVuSans-39"/>
       <use x="159.033203" xlink:href="#DejaVuSans-35"/>
      </g>
     </g>
    </g>
   </g>
   <g id="line2d_16">
    <path clip-path="url(#p260f2f0db7)" d="M 73.832727 293.521171 
L 75.464157 179.445073 
L 77.095587 140.108488 
L 78.727017 147.975805 
L 80.358447 120.440195 
L 81.989877 116.506537 
L 83.621307 144.042146 
L 85.252736 130.274341 
L 86.884166 120.440195 
L 88.515596 136.174829 
L 90.147026 114.539707 
L 91.778456 108.63922 
L 93.409886 136.174829 
L 95.041316 108.63922 
L 96.672746 102.738732 
L 98.304175 110.606049 
L 99.935605 126.340683 
L 101.567035 118.473366 
L 103.198465 94.871415 
L 104.829895 98.805073 
L 106.461325 108.63922 
L 108.092755 100.771902 
L 109.724185 104.705561 
L 111.355614 124.373854 
L 112.987044 100.771902 
L 114.618474 104.705561 
L 116.249904 94.871415 
L 117.881334 98.805073 
L 119.512764 75.203122 
L 121.144194 75.203122 
L 122.775624 90.937756 
L 124.407053 90.937756 
L 126.038483 69.302634 
L 129.301343 104.705561 
L 130.932773 85.037268 
L 132.564203 81.10361 
L 134.195633 88.970927 
L 135.827063 81.10361 
L 137.458492 85.037268 
L 139.089922 92.904585 
L 140.721352 67.335805 
L 142.352782 90.937756 
L 143.984212 73.236293 
L 145.615642 67.335805 
L 147.247072 83.070439 
L 148.878502 75.203122 
L 150.509931 83.070439 
L 152.141361 96.838244 
L 153.772791 81.10361 
L 157.035651 92.904585 
L 158.667081 69.302634 
L 160.298511 75.203122 
L 161.929941 85.037268 
L 163.56137 73.236293 
L 165.1928 79.13678 
L 166.82423 69.302634 
L 168.45566 73.236293 
L 170.08709 79.13678 
L 171.71852 87.004098 
L 173.34995 83.070439 
L 174.98138 88.970927 
L 176.61281 75.203122 
L 178.244239 85.037268 
L 179.875669 75.203122 
L 181.507099 69.302634 
L 183.138529 81.10361 
L 184.769959 90.937756 
L 186.401389 71.269463 
L 188.032819 73.236293 
L 189.664249 63.402146 
L 192.927108 71.269463 
L 194.558538 57.501659 
L 196.189968 90.937756 
L 197.821398 79.13678 
L 199.452828 71.269463 
L 201.084258 83.070439 
L 202.715688 83.070439 
L 204.347117 69.302634 
L 205.978547 59.468488 
L 207.609977 71.269463 
L 209.241407 59.468488 
L 210.872837 69.302634 
L 212.504267 69.302634 
L 214.135697 65.368976 
L 215.767127 67.335805 
L 217.398556 61.435317 
L 219.029986 75.203122 
L 220.661416 65.368976 
L 222.292846 71.269463 
L 223.924276 90.937756 
L 225.555706 77.169951 
L 227.187136 79.13678 
L 228.818566 57.501659 
L 230.449995 75.203122 
L 232.081425 71.269463 
L 233.712855 77.169951 
L 235.344285 59.468488 
L 236.975715 69.302634 
L 238.607145 88.970927 
L 240.238575 94.871415 
L 241.870005 67.335805 
L 243.501434 83.070439 
L 245.132864 85.037268 
L 246.764294 73.236293 
L 248.395724 71.269463 
L 250.027154 75.203122 
L 251.658584 69.302634 
L 253.290014 81.10361 
L 254.921444 79.13678 
L 258.184303 79.13678 
L 259.815733 75.203122 
L 261.447163 61.435317 
L 263.078593 71.269463 
L 264.710023 65.368976 
L 266.341453 67.335805 
L 267.972883 77.169951 
L 269.604312 75.203122 
L 271.235742 55.534829 
L 272.867172 71.269463 
L 274.498602 55.534829 
L 276.130032 57.501659 
L 277.761462 85.037268 
L 279.392892 55.534829 
L 281.024322 57.501659 
L 282.655751 85.037268 
L 284.287181 85.037268 
L 285.918611 77.169951 
L 287.550041 79.13678 
L 289.181471 71.269463 
L 290.812901 81.10361 
L 292.444331 71.269463 
L 294.075761 81.10361 
L 295.70719 71.269463 
L 297.33862 71.269463 
L 298.97005 69.302634 
L 300.60148 77.169951 
L 302.23291 69.302634 
L 303.86434 77.169951 
L 305.49577 75.203122 
L 307.1272 65.368976 
L 308.75863 77.169951 
L 310.390059 67.335805 
L 312.021489 63.402146 
L 313.652919 65.368976 
L 315.284349 73.236293 
L 316.915779 65.368976 
L 318.547209 75.203122 
L 320.178639 65.368976 
L 321.810069 69.302634 
L 323.441498 65.368976 
L 325.072928 65.368976 
L 326.704358 67.335805 
L 328.335788 57.501659 
L 329.967218 69.302634 
L 331.598648 75.203122 
L 333.230078 65.368976 
L 334.861508 67.335805 
L 336.492937 61.435317 
L 338.124367 63.402146 
L 339.755797 63.402146 
L 341.387227 75.203122 
L 343.018657 65.368976 
L 344.650087 67.335805 
L 346.281517 59.468488 
L 347.912947 67.335805 
L 351.175806 71.269463 
L 354.438666 67.335805 
L 356.070096 87.004098 
L 357.701526 65.368976 
L 359.332956 71.269463 
L 360.964386 63.402146 
L 362.595815 69.302634 
L 364.227245 79.13678 
L 365.858675 53.568 
L 367.490105 61.435317 
L 369.121535 63.402146 
L 370.752965 59.468488 
L 372.384395 69.302634 
L 374.015825 61.435317 
L 375.647254 71.269463 
L 377.278684 73.236293 
L 378.910114 77.169951 
L 380.541544 63.402146 
L 382.172974 69.302634 
L 383.804404 69.302634 
L 385.435834 59.468488 
L 387.067264 55.534829 
L 388.698693 53.568 
L 390.330123 71.269463 
L 391.961553 63.402146 
L 395.224413 59.468488 
L 396.855843 53.568 
L 398.487273 61.435317 
L 398.487273 61.435317 
" style="fill:none;stroke:#1f77b4;stroke-linecap:square;stroke-width:1.5;"/>
   </g>
   <g id="line2d_17">
    <path clip-path="url(#p260f2f0db7)" d="M 73.832727 295.488 
L 75.464157 197.146537 
L 77.095587 214.848 
L 78.727017 218.781659 
L 80.358447 212.881171 
L 81.989877 214.848 
L 83.621307 212.881171 
L 85.252736 187.31239 
L 86.884166 230.582634 
L 88.515596 171.577756 
L 90.147026 216.814829 
L 91.778456 199.113366 
L 93.409886 195.179707 
L 95.041316 205.013854 
L 96.672746 208.947512 
L 98.304175 236.483122 
L 99.935605 224.682146 
L 101.567035 206.980683 
L 103.198465 228.615805 
L 104.829895 262.051902 
L 106.461325 203.047024 
L 108.092755 222.715317 
L 109.724185 228.615805 
L 111.355614 208.947512 
L 112.987044 191.246049 
L 114.618474 242.38361 
L 116.249904 230.582634 
L 117.881334 203.047024 
L 119.512764 179.445073 
L 121.144194 212.881171 
L 122.775624 240.41678 
L 124.407053 230.582634 
L 126.038483 205.013854 
L 127.669913 224.682146 
L 129.301343 226.648976 
L 130.932773 191.246049 
L 132.564203 201.080195 
L 134.195633 201.080195 
L 135.827063 195.179707 
L 137.458492 201.080195 
L 139.089922 177.478244 
L 140.721352 205.013854 
L 142.352782 199.113366 
L 143.984212 185.345561 
L 145.615642 214.848 
L 147.247072 179.445073 
L 148.878502 220.748488 
L 150.509931 208.947512 
L 152.141361 212.881171 
L 153.772791 246.317268 
L 155.404221 228.615805 
L 157.035651 244.350439 
L 158.667081 220.748488 
L 160.298511 205.013854 
L 161.929941 214.848 
L 163.56137 189.27922 
L 165.1928 240.41678 
L 166.82423 206.980683 
L 168.45566 197.146537 
L 170.08709 183.378732 
L 171.71852 218.781659 
L 173.34995 212.881171 
L 174.98138 205.013854 
L 176.61281 179.445073 
L 178.244239 216.814829 
L 179.875669 222.715317 
L 181.507099 195.179707 
L 183.138529 197.146537 
L 184.769959 208.947512 
L 186.401389 205.013854 
L 188.032819 179.445073 
L 189.664249 203.047024 
L 191.295678 214.848 
L 192.927108 187.31239 
L 194.558538 224.682146 
L 196.189968 171.577756 
L 199.452828 210.914341 
L 201.084258 201.080195 
L 202.715688 230.582634 
L 204.347117 210.914341 
L 205.978547 271.886049 
L 207.609977 214.848 
L 209.241407 228.615805 
L 210.872837 216.814829 
L 212.504267 193.212878 
L 214.135697 224.682146 
L 215.767127 206.980683 
L 217.398556 203.047024 
L 219.029986 206.980683 
L 220.661416 197.146537 
L 222.292846 210.914341 
L 223.924276 222.715317 
L 225.555706 232.549463 
L 227.187136 224.682146 
L 228.818566 208.947512 
L 230.449995 226.648976 
L 232.081425 205.013854 
L 233.712855 205.013854 
L 235.344285 224.682146 
L 236.975715 212.881171 
L 238.607145 197.146537 
L 240.238575 214.848 
L 241.870005 208.947512 
L 243.501434 210.914341 
L 245.132864 197.146537 
L 246.764294 230.582634 
L 248.395724 246.317268 
L 250.027154 238.449951 
L 251.658584 226.648976 
L 253.290014 218.781659 
L 256.552873 187.31239 
L 258.184303 222.715317 
L 259.815733 206.980683 
L 261.447163 193.212878 
L 263.078593 218.781659 
L 264.710023 228.615805 
L 266.341453 191.246049 
L 267.972883 195.179707 
L 269.604312 206.980683 
L 271.235742 226.648976 
L 272.867172 224.682146 
L 274.498602 195.179707 
L 276.130032 208.947512 
L 277.761462 175.511415 
L 279.392892 232.549463 
L 281.024322 232.549463 
L 282.655751 195.179707 
L 284.287181 228.615805 
L 285.918611 173.544585 
L 287.550041 157.809951 
L 289.181471 199.113366 
L 290.812901 191.246049 
L 292.444331 226.648976 
L 294.075761 216.814829 
L 295.70719 226.648976 
L 297.33862 201.080195 
L 298.97005 189.27922 
L 300.60148 222.715317 
L 302.23291 214.848 
L 303.86434 181.411902 
L 305.49577 177.478244 
L 307.1272 222.715317 
L 308.75863 234.516293 
L 310.390059 214.848 
L 312.021489 228.615805 
L 313.652919 218.781659 
L 315.284349 234.516293 
L 316.915779 216.814829 
L 318.547209 242.38361 
L 320.178639 199.113366 
L 321.810069 224.682146 
L 323.441498 238.449951 
L 325.072928 206.980683 
L 326.704358 197.146537 
L 328.335788 236.483122 
L 329.967218 214.848 
L 331.598648 232.549463 
L 333.230078 222.715317 
L 334.861508 224.682146 
L 336.492937 228.615805 
L 338.124367 206.980683 
L 339.755797 230.582634 
L 341.387227 201.080195 
L 343.018657 210.914341 
L 344.650087 224.682146 
L 346.281517 183.378732 
L 347.912947 228.615805 
L 349.544376 242.38361 
L 351.175806 242.38361 
L 352.807236 216.814829 
L 354.438666 258.118244 
L 356.070096 218.781659 
L 357.701526 216.814829 
L 359.332956 232.549463 
L 360.964386 203.047024 
L 362.595815 197.146537 
L 364.227245 206.980683 
L 365.858675 222.715317 
L 367.490105 212.881171 
L 369.121535 240.41678 
L 370.752965 203.047024 
L 372.384395 208.947512 
L 374.015825 212.881171 
L 375.647254 214.848 
L 377.278684 191.246049 
L 378.910114 210.914341 
L 380.541544 222.715317 
L 382.172974 163.710439 
L 383.804404 203.047024 
L 387.067264 218.781659 
L 388.698693 187.31239 
L 390.330123 187.31239 
L 391.961553 212.881171 
L 393.592983 208.947512 
L 395.224413 203.047024 
L 396.855843 193.212878 
L 398.487273 203.047024 
L 398.487273 203.047024 
" style="fill:none;stroke:#ff7f0e;stroke-linecap:square;stroke-width:1.5;"/>
   </g>
   <g id="patch_3">
    <path d="M 57.6 307.584 
L 57.6 41.472 
" style="fill:none;stroke:#000000;stroke-linecap:square;stroke-linejoin:miter;stroke-width:0.8;"/>
   </g>
   <g id="patch_4">
    <path d="M 414.72 307.584 
L 414.72 41.472 
" style="fill:none;stroke:#000000;stroke-linecap:square;stroke-linejoin:miter;stroke-width:0.8;"/>
   </g>
   <g id="patch_5">
    <path d="M 57.6 307.584 
L 414.72 307.584 
" style="fill:none;stroke:#000000;stroke-linecap:square;stroke-linejoin:miter;stroke-width:0.8;"/>
   </g>
   <g id="patch_6">
    <path d="M 57.6 41.472 
L 414.72 41.472 
" style="fill:none;stroke:#000000;stroke-linecap:square;stroke-linejoin:miter;stroke-width:0.8;"/>
   </g>
  </g>
 </g>
 <defs>
  <clipPath id="p260f2f0db7">
   <rect height="266.112" width="357.12" x="57.6" y="41.472"/>
  </clipPath>
 </defs>
</svg>
