<?xml version="1.0" encoding="utf-8" standalone="no"?>
<!DOCTYPE svg PUBLIC "-//W3C//DTD SVG 1.1//EN"
  "http://www.w3.org/Graphics/SVG/1.1/DTD/svg11.dtd">
<!-- Created with matplotlib (http://matplotlib.org/) -->
<svg height="345.6pt" version="1.1" viewBox="0 0 460.8 345.6" width="460.8pt" xmlns="http://www.w3.org/2000/svg" xmlns:xlink="http://www.w3.org/1999/xlink">
 <defs>
  <style type="text/css">
*{stroke-linecap:butt;stroke-linejoin:round;}
  </style>
 </defs>
 <g id="figure_1">
  <g id="patch_1">
   <path d="M 0 345.6 
L 460.8 345.6 
L 460.8 0 
L 0 0 
z
" style="fill:#ffffff;"/>
  </g>
  <g id="axes_1">
   <g id="patch_2">
    <path d="M 57.6 307.584 
L 414.72 307.584 
L 414.72 41.472 
L 57.6 41.472 
z
" style="fill:#ffffff;"/>
   </g>
   <g id="matplotlib.axis_1">
    <g id="xtick_1">
     <g id="line2d_1">
      <defs>
       <path d="M 0 0 
L 0 3.5 
" id="me482292f6d" style="stroke:#000000;stroke-width:0.8;"/>
      </defs>
      <g>
       <use style="stroke:#000000;stroke-width:0.8;" x="73.670319" xlink:href="#me482292f6d" y="307.584"/>
      </g>
     </g>
     <g id="text_1">
      <!-- 0 -->
      <defs>
       <path d="M 31.78125 66.40625 
Q 24.171875 66.40625 20.328125 58.90625 
Q 16.5 51.421875 16.5 36.375 
Q 16.5 21.390625 20.328125 13.890625 
Q 24.171875 6.390625 31.78125 6.390625 
Q 39.453125 6.390625 43.28125 13.890625 
Q 47.125 21.390625 47.125 36.375 
Q 47.125 51.421875 43.28125 58.90625 
Q 39.453125 66.40625 31.78125 66.40625 
z
M 31.78125 74.21875 
Q 44.046875 74.21875 50.515625 64.515625 
Q 56.984375 54.828125 56.984375 36.375 
Q 56.984375 17.96875 50.515625 8.265625 
Q 44.046875 -1.421875 31.78125 -1.421875 
Q 19.53125 -1.421875 13.0625 8.265625 
Q 6.59375 17.96875 6.59375 36.375 
Q 6.59375 54.828125 13.0625 64.515625 
Q 19.53125 74.21875 31.78125 74.21875 
z
" id="DejaVuSans-30"/>
      </defs>
      <g transform="translate(70.489069 322.182437)scale(0.1 -0.1)">
       <use xlink:href="#DejaVuSans-30"/>
      </g>
     </g>
    </g>
    <g id="xtick_2">
     <g id="line2d_2">
      <g>
       <use style="stroke:#000000;stroke-width:0.8;" x="114.272438" xlink:href="#me482292f6d" y="307.584"/>
      </g>
     </g>
     <g id="text_2">
      <!-- 250 -->
      <defs>
       <path d="M 19.1875 8.296875 
L 53.609375 8.296875 
L 53.609375 0 
L 7.328125 0 
L 7.328125 8.296875 
Q 12.9375 14.109375 22.625 23.890625 
Q 32.328125 33.6875 34.8125 36.53125 
Q 39.546875 41.84375 41.421875 45.53125 
Q 43.3125 49.21875 43.3125 52.78125 
Q 43.3125 58.59375 39.234375 62.25 
Q 35.15625 65.921875 28.609375 65.921875 
Q 23.96875 65.921875 18.8125 64.3125 
Q 13.671875 62.703125 7.8125 59.421875 
L 7.8125 69.390625 
Q 13.765625 71.78125 18.9375 73 
Q 24.125 74.21875 28.421875 74.21875 
Q 39.75 74.21875 46.484375 68.546875 
Q 53.21875 62.890625 53.21875 53.421875 
Q 53.21875 48.921875 51.53125 44.890625 
Q 49.859375 40.875 45.40625 35.40625 
Q 44.1875 33.984375 37.640625 27.21875 
Q 31.109375 20.453125 19.1875 8.296875 
z
" id="DejaVuSans-32"/>
       <path d="M 10.796875 72.90625 
L 49.515625 72.90625 
L 49.515625 64.59375 
L 19.828125 64.59375 
L 19.828125 46.734375 
Q 21.96875 47.46875 24.109375 47.828125 
Q 26.265625 48.1875 28.421875 48.1875 
Q 40.625 48.1875 47.75 41.5 
Q 54.890625 34.8125 54.890625 23.390625 
Q 54.890625 11.625 47.5625 5.09375 
Q 40.234375 -1.421875 26.90625 -1.421875 
Q 22.3125 -1.421875 17.546875 -0.640625 
Q 12.796875 0.140625 7.71875 1.703125 
L 7.71875 11.625 
Q 12.109375 9.234375 16.796875 8.0625 
Q 21.484375 6.890625 26.703125 6.890625 
Q 35.15625 6.890625 40.078125 11.328125 
Q 45.015625 15.765625 45.015625 23.390625 
Q 45.015625 31 40.078125 35.4375 
Q 35.15625 39.890625 26.703125 39.890625 
Q 22.75 39.890625 18.8125 39.015625 
Q 14.890625 38.140625 10.796875 36.28125 
z
" id="DejaVuSans-35"/>
      </defs>
      <g transform="translate(104.728688 322.182437)scale(0.1 -0.1)">
       <use xlink:href="#DejaVuSans-32"/>
       <use x="63.623047" xlink:href="#DejaVuSans-35"/>
       <use x="127.246094" xlink:href="#DejaVuSans-30"/>
      </g>
     </g>
    </g>
    <g id="xtick_3">
     <g id="line2d_3">
      <g>
       <use style="stroke:#000000;stroke-width:0.8;" x="154.874557" xlink:href="#me482292f6d" y="307.584"/>
      </g>
     </g>
     <g id="text_3">
      <!-- 500 -->
      <g transform="translate(145.330807 322.182437)scale(0.1 -0.1)">
       <use xlink:href="#DejaVuSans-35"/>
       <use x="63.623047" xlink:href="#DejaVuSans-30"/>
       <use x="127.246094" xlink:href="#DejaVuSans-30"/>
      </g>
     </g>
    </g>
    <g id="xtick_4">
     <g id="line2d_4">
      <g>
       <use style="stroke:#000000;stroke-width:0.8;" x="195.476677" xlink:href="#me482292f6d" y="307.584"/>
      </g>
     </g>
     <g id="text_4">
      <!-- 750 -->
      <defs>
       <path d="M 8.203125 72.90625 
L 55.078125 72.90625 
L 55.078125 68.703125 
L 28.609375 0 
L 18.3125 0 
L 43.21875 64.59375 
L 8.203125 64.59375 
z
" id="DejaVuSans-37"/>
      </defs>
      <g transform="translate(185.932927 322.182437)scale(0.1 -0.1)">
       <use xlink:href="#DejaVuSans-37"/>
       <use x="63.623047" xlink:href="#DejaVuSans-35"/>
       <use x="127.246094" xlink:href="#DejaVuSans-30"/>
      </g>
     </g>
    </g>
    <g id="xtick_5">
     <g id="line2d_5">
      <g>
       <use style="stroke:#000000;stroke-width:0.8;" x="236.078796" xlink:href="#me482292f6d" y="307.584"/>
      </g>
     </g>
     <g id="text_5">
      <!-- 1000 -->
      <defs>
       <path d="M 12.40625 8.296875 
L 28.515625 8.296875 
L 28.515625 63.921875 
L 10.984375 60.40625 
L 10.984375 69.390625 
L 28.421875 72.90625 
L 38.28125 72.90625 
L 38.28125 8.296875 
L 54.390625 8.296875 
L 54.390625 0 
L 12.40625 0 
z
" id="DejaVuSans-31"/>
      </defs>
      <g transform="translate(223.353796 322.182437)scale(0.1 -0.1)">
       <use xlink:href="#DejaVuSans-31"/>
       <use x="63.623047" xlink:href="#DejaVuSans-30"/>
       <use x="127.246094" xlink:href="#DejaVuSans-30"/>
       <use x="190.869141" xlink:href="#DejaVuSans-30"/>
      </g>
     </g>
    </g>
    <g id="xtick_6">
     <g id="line2d_6">
      <g>
       <use style="stroke:#000000;stroke-width:0.8;" x="276.680915" xlink:href="#me482292f6d" y="307.584"/>
      </g>
     </g>
     <g id="text_6">
      <!-- 1250 -->
      <g transform="translate(263.955915 322.182437)scale(0.1 -0.1)">
       <use xlink:href="#DejaVuSans-31"/>
       <use x="63.623047" xlink:href="#DejaVuSans-32"/>
       <use x="127.246094" xlink:href="#DejaVuSans-35"/>
       <use x="190.869141" xlink:href="#DejaVuSans-30"/>
      </g>
     </g>
    </g>
    <g id="xtick_7">
     <g id="line2d_7">
      <g>
       <use style="stroke:#000000;stroke-width:0.8;" x="317.283034" xlink:href="#me482292f6d" y="307.584"/>
      </g>
     </g>
     <g id="text_7">
      <!-- 1500 -->
      <g transform="translate(304.558034 322.182437)scale(0.1 -0.1)">
       <use xlink:href="#DejaVuSans-31"/>
       <use x="63.623047" xlink:href="#DejaVuSans-35"/>
       <use x="127.246094" xlink:href="#DejaVuSans-30"/>
       <use x="190.869141" xlink:href="#DejaVuSans-30"/>
      </g>
     </g>
    </g>
    <g id="xtick_8">
     <g id="line2d_8">
      <g>
       <use style="stroke:#000000;stroke-width:0.8;" x="357.885153" xlink:href="#me482292f6d" y="307.584"/>
      </g>
     </g>
     <g id="text_8">
      <!-- 1750 -->
      <g transform="translate(345.160153 322.182437)scale(0.1 -0.1)">
       <use xlink:href="#DejaVuSans-31"/>
       <use x="63.623047" xlink:href="#DejaVuSans-37"/>
       <use x="127.246094" xlink:href="#DejaVuSans-35"/>
       <use x="190.869141" xlink:href="#DejaVuSans-30"/>
      </g>
     </g>
    </g>
    <g id="xtick_9">
     <g id="line2d_9">
      <g>
       <use style="stroke:#000000;stroke-width:0.8;" x="398.487273" xlink:href="#me482292f6d" y="307.584"/>
      </g>
     </g>
     <g id="text_9">
      <!-- 2000 -->
      <g transform="translate(385.762273 322.182437)scale(0.1 -0.1)">
       <use xlink:href="#DejaVuSans-32"/>
       <use x="63.623047" xlink:href="#DejaVuSans-30"/>
       <use x="127.246094" xlink:href="#DejaVuSans-30"/>
       <use x="190.869141" xlink:href="#DejaVuSans-30"/>
      </g>
     </g>
    </g>
   </g>
   <g id="matplotlib.axis_2">
    <g id="ytick_1">
     <g id="line2d_10">
      <defs>
       <path d="M 0 0 
L -3.5 0 
" id="m565a1d74ba" style="stroke:#000000;stroke-width:0.8;"/>
      </defs>
      <g>
       <use style="stroke:#000000;stroke-width:0.8;" x="57.6" xlink:href="#m565a1d74ba" y="295.488"/>
      </g>
     </g>
     <g id="text_10">
      <!-- 0.00 -->
      <defs>
       <path d="M 10.6875 12.40625 
L 21 12.40625 
L 21 0 
L 10.6875 0 
z
" id="DejaVuSans-2e"/>
      </defs>
      <g transform="translate(28.334375 299.287219)scale(0.1 -0.1)">
       <use xlink:href="#DejaVuSans-30"/>
       <use x="63.623047" xlink:href="#DejaVuSans-2e"/>
       <use x="95.410156" xlink:href="#DejaVuSans-30"/>
       <use x="159.033203" xlink:href="#DejaVuSans-30"/>
      </g>
     </g>
    </g>
    <g id="ytick_2">
     <g id="line2d_11">
      <g>
       <use style="stroke:#000000;stroke-width:0.8;" x="57.6" xlink:href="#m565a1d74ba" y="254.659282"/>
      </g>
     </g>
     <g id="text_11">
      <!-- 0.05 -->
      <g transform="translate(28.334375 258.4585)scale(0.1 -0.1)">
       <use xlink:href="#DejaVuSans-30"/>
       <use x="63.623047" xlink:href="#DejaVuSans-2e"/>
       <use x="95.410156" xlink:href="#DejaVuSans-30"/>
       <use x="159.033203" xlink:href="#DejaVuSans-35"/>
      </g>
     </g>
    </g>
    <g id="ytick_3">
     <g id="line2d_12">
      <g>
       <use style="stroke:#000000;stroke-width:0.8;" x="57.6" xlink:href="#m565a1d74ba" y="213.830563"/>
      </g>
     </g>
     <g id="text_12">
      <!-- 0.10 -->
      <g transform="translate(28.334375 217.629782)scale(0.1 -0.1)">
       <use xlink:href="#DejaVuSans-30"/>
       <use x="63.623047" xlink:href="#DejaVuSans-2e"/>
       <use x="95.410156" xlink:href="#DejaVuSans-31"/>
       <use x="159.033203" xlink:href="#DejaVuSans-30"/>
      </g>
     </g>
    </g>
    <g id="ytick_4">
     <g id="line2d_13">
      <g>
       <use style="stroke:#000000;stroke-width:0.8;" x="57.6" xlink:href="#m565a1d74ba" y="173.001845"/>
      </g>
     </g>
     <g id="text_13">
      <!-- 0.15 -->
      <g transform="translate(28.334375 176.801064)scale(0.1 -0.1)">
       <use xlink:href="#DejaVuSans-30"/>
       <use x="63.623047" xlink:href="#DejaVuSans-2e"/>
       <use x="95.410156" xlink:href="#DejaVuSans-31"/>
       <use x="159.033203" xlink:href="#DejaVuSans-35"/>
      </g>
     </g>
    </g>
    <g id="ytick_5">
     <g id="line2d_14">
      <g>
       <use style="stroke:#000000;stroke-width:0.8;" x="57.6" xlink:href="#m565a1d74ba" y="132.173127"/>
      </g>
     </g>
     <g id="text_14">
      <!-- 0.20 -->
      <g transform="translate(28.334375 135.972346)scale(0.1 -0.1)">
       <use xlink:href="#DejaVuSans-30"/>
       <use x="63.623047" xlink:href="#DejaVuSans-2e"/>
       <use x="95.410156" xlink:href="#DejaVuSans-32"/>
       <use x="159.033203" xlink:href="#DejaVuSans-30"/>
      </g>
     </g>
    </g>
    <g id="ytick_6">
     <g id="line2d_15">
      <g>
       <use style="stroke:#000000;stroke-width:0.8;" x="57.6" xlink:href="#m565a1d74ba" y="91.344409"/>
      </g>
     </g>
     <g id="text_15">
      <!-- 0.25 -->
      <g transform="translate(28.334375 95.143627)scale(0.1 -0.1)">
       <use xlink:href="#DejaVuSans-30"/>
       <use x="63.623047" xlink:href="#DejaVuSans-2e"/>
       <use x="95.410156" xlink:href="#DejaVuSans-32"/>
       <use x="159.033203" xlink:href="#DejaVuSans-35"/>
      </g>
     </g>
    </g>
    <g id="ytick_7">
     <g id="line2d_16">
      <g>
       <use style="stroke:#000000;stroke-width:0.8;" x="57.6" xlink:href="#m565a1d74ba" y="50.51569"/>
      </g>
     </g>
     <g id="text_16">
      <!-- 0.30 -->
      <defs>
       <path d="M 40.578125 39.3125 
Q 47.65625 37.796875 51.625 33 
Q 55.609375 28.21875 55.609375 21.1875 
Q 55.609375 10.40625 48.1875 4.484375 
Q 40.765625 -1.421875 27.09375 -1.421875 
Q 22.515625 -1.421875 17.65625 -0.515625 
Q 12.796875 0.390625 7.625 2.203125 
L 7.625 11.71875 
Q 11.71875 9.328125 16.59375 8.109375 
Q 21.484375 6.890625 26.8125 6.890625 
Q 36.078125 6.890625 40.9375 10.546875 
Q 45.796875 14.203125 45.796875 21.1875 
Q 45.796875 27.640625 41.28125 31.265625 
Q 36.765625 34.90625 28.71875 34.90625 
L 20.21875 34.90625 
L 20.21875 43.015625 
L 29.109375 43.015625 
Q 36.375 43.015625 40.234375 45.921875 
Q 44.09375 48.828125 44.09375 54.296875 
Q 44.09375 59.90625 40.109375 62.90625 
Q 36.140625 65.921875 28.71875 65.921875 
Q 24.65625 65.921875 20.015625 65.03125 
Q 15.375 64.15625 9.8125 62.3125 
L 9.8125 71.09375 
Q 15.4375 72.65625 20.34375 73.4375 
Q 25.25 74.21875 29.59375 74.21875 
Q 40.828125 74.21875 47.359375 69.109375 
Q 53.90625 64.015625 53.90625 55.328125 
Q 53.90625 49.265625 50.4375 45.09375 
Q 46.96875 40.921875 40.578125 39.3125 
z
" id="DejaVuSans-33"/>
      </defs>
      <g transform="translate(28.334375 54.314909)scale(0.1 -0.1)">
       <use xlink:href="#DejaVuSans-30"/>
       <use x="63.623047" xlink:href="#DejaVuSans-2e"/>
       <use x="95.410156" xlink:href="#DejaVuSans-33"/>
       <use x="159.033203" xlink:href="#DejaVuSans-30"/>
      </g>
     </g>
    </g>
   </g>
   <g id="line2d_17">
    <path clip-path="url(#p0592271a13)" d="M 73.832727 53.568 
L 73.995136 70.854969 
L 74.157544 184.485813 
L 74.64477 236.715997 
L 74.807178 156.591362 
L 74.969587 240.158005 
L 75.131995 230.641407 
L 75.294404 213.846301 
L 75.456812 229.553401 
L 75.619221 199.177915 
L 75.944037 273.285729 
L 76.106446 268.075867 
L 76.268854 235.278505 
L 76.431263 246.937336 
L 76.593671 249.428453 
L 76.75608 269.018804 
L 77.080897 261.870694 
L 77.243305 261.42408 
L 77.405714 242.498362 
L 77.568122 256.530021 
L 77.730531 249.461234 
L 77.892939 277.636031 
L 78.055348 269.507722 
L 78.217756 272.779974 
L 78.380165 264.523812 
L 78.86739 275.632701 
L 79.029799 262.976316 
L 79.192207 281.206119 
L 79.354615 276.524044 
L 79.517024 266.576732 
L 79.679432 271.205776 
L 79.841841 284.176731 
L 80.004249 275.027577 
L 80.166658 283.569055 
L 80.329066 283.715708 
L 80.491475 255.543374 
L 80.653883 287.304313 
L 80.816292 288.590247 
L 80.9787 278.018099 
L 81.141109 286.833917 
L 81.303517 288.167575 
L 81.465926 287.317598 
L 81.628334 270.112353 
L 81.790743 277.002781 
L 81.953151 272.736727 
L 82.11556 272.570397 
L 82.277968 251.463222 
L 82.440377 284.875625 
L 82.602785 284.178049 
L 82.765194 290.332069 
L 82.927602 277.559878 
L 83.09001 279.588323 
L 83.252419 273.984744 
L 83.577236 280.653529 
L 83.739644 276.707135 
L 83.902053 283.862852 
L 84.064461 283.84234 
L 84.22687 291.193667 
L 84.389278 292.637057 
L 84.551687 279.322788 
L 84.714095 284.32948 
L 84.876504 285.541985 
L 85.038912 292.336204 
L 85.201321 279.627289 
L 85.363729 286.457147 
L 85.526138 277.465674 
L 85.850955 290.138712 
L 86.013363 288.422718 
L 86.175772 287.937672 
L 86.33818 281.160408 
L 86.500588 283.88874 
L 86.662997 291.083544 
L 86.825405 277.430966 
L 86.987814 276.873178 
L 87.150222 279.350471 
L 87.312631 277.313135 
L 87.637448 288.716985 
L 87.799856 293.653729 
L 88.124673 282.128588 
L 88.287082 291.257454 
L 88.44949 286.712983 
L 88.611899 286.051 
L 88.774307 282.237296 
L 88.936716 282.259928 
L 89.099124 287.227894 
L 89.261533 278.69569 
L 89.423941 289.694091 
L 89.748758 285.135866 
L 89.911166 273.58659 
L 90.073575 285.18321 
L 90.235983 282.701733 
L 90.398392 286.885255 
L 90.5608 282.673684 
L 90.723209 284.766121 
L 90.885617 290.230274 
L 91.048026 286.160706 
L 91.210434 285.818946 
L 91.535251 287.917265 
L 91.69766 287.372138 
L 91.860068 282.956539 
L 92.022477 291.92793 
L 92.184885 285.707459 
L 92.347294 284.554577 
L 92.509702 290.575879 
L 92.672111 283.487183 
L 92.834519 288.10125 
L 92.996928 286.613344 
L 93.159336 290.216359 
L 93.321745 275.92806 
L 93.484153 289.671578 
L 93.646561 289.939533 
L 93.80897 288.920275 
L 93.971378 292.670572 
L 94.133787 290.146518 
L 94.296195 278.836375 
L 94.458604 290.387601 
L 94.621012 289.444326 
L 94.945829 279.462971 
L 95.270646 292.772628 
L 95.433055 292.984588 
L 95.595463 281.332615 
L 95.757872 290.744515 
L 95.92028 282.045463 
L 96.082689 294.328222 
L 96.407506 284.232578 
L 96.569914 289.705623 
L 96.732323 282.012079 
L 97.219548 292.100815 
L 97.381956 287.422455 
L 97.544365 291.924375 
L 97.706773 289.184703 
L 97.869182 284.53628 
L 98.03159 292.861106 
L 98.193999 285.146584 
L 98.518816 291.912368 
L 98.681224 281.525429 
L 99.006041 293.448226 
L 99.16845 293.744422 
L 99.330858 293.501312 
L 99.493267 287.398133 
L 99.655675 291.778229 
L 99.818084 290.85949 
L 100.142901 285.421346 
L 100.305309 290.757018 
L 100.467717 280.842801 
L 100.630126 285.607426 
L 100.792534 294.300907 
L 100.954943 273.591663 
L 101.117351 293.398018 
L 101.27976 292.989455 
L 101.442168 295.488 
L 101.604577 285.41902 
L 101.929394 294.739058 
L 102.254211 288.047563 
L 102.416619 288.496219 
L 102.579028 293.138356 
L 102.741436 292.051262 
L 103.066253 292.481046 
L 103.228662 280.831682 
L 103.39107 286.061531 
L 103.553479 285.321719 
L 103.878296 294.885524 
L 104.040704 293.502006 
L 104.203112 287.61342 
L 104.365521 295.488 
L 104.527929 295.062234 
L 104.690338 290.489955 
L 104.852746 290.79589 
L 105.015155 289.749113 
L 105.177563 286.851255 
L 105.50238 292.976626 
L 105.664789 288.122678 
L 105.827197 290.039071 
L 105.989606 287.015768 
L 106.152014 288.248642 
L 106.314423 295.488 
L 106.476831 289.893174 
L 106.63924 293.338334 
L 106.801648 289.816768 
L 106.964057 290.828698 
L 107.126465 289.119045 
L 107.288874 285.199184 
L 107.451282 293.677574 
L 107.776099 285.793634 
L 107.938507 287.304797 
L 108.100916 292.691246 
L 108.263324 287.999166 
L 108.425733 294.090067 
L 108.588141 292.965775 
L 108.75055 293.742499 
L 108.912958 289.199618 
L 109.075367 292.860605 
L 109.237775 292.119848 
L 109.400184 289.853058 
L 109.562592 290.082145 
L 109.725001 289.103291 
L 109.887409 290.963978 
L 110.049818 289.510253 
L 110.212226 293.96873 
L 110.374635 294.795628 
L 110.699452 285.127723 
L 110.86186 290.210209 
L 111.024268 289.999973 
L 111.186677 294.61999 
L 111.349085 289.110417 
L 111.673902 293.73886 
L 111.998719 287.39497 
L 112.323536 293.254222 
L 112.485945 288.965157 
L 112.810762 287.420302 
L 112.97317 295.036333 
L 113.297987 289.847002 
L 113.460396 291.786129 
L 113.622804 284.286181 
L 113.785213 291.916015 
L 113.947621 293.65649 
L 114.11003 293.780931 
L 114.272438 285.244869 
L 114.434847 290.564197 
L 114.597255 291.620037 
L 114.759663 291.60334 
L 114.922072 295.488 
L 115.08448 293.313951 
L 115.246889 295.488 
L 115.409297 287.091703 
L 115.734114 289.273605 
L 115.896523 293.94516 
L 116.058931 289.160084 
L 116.22134 288.067831 
L 116.383748 292.265688 
L 116.546157 290.390964 
L 116.708565 293.505654 
L 117.195791 291.343232 
L 117.358199 287.913376 
L 117.520608 294.653883 
L 117.683016 295.258486 
L 117.845425 294.723672 
L 118.495058 288.661378 
L 118.657467 294.238805 
L 118.819875 294.409241 
L 118.982284 294.325588 
L 119.144692 292.451944 
L 119.307101 287.512542 
L 119.631918 293.73046 
L 119.794326 294.290205 
L 119.956735 285.611622 
L 120.119143 293.874326 
L 120.44396 292.770344 
L 120.606369 291.108036 
L 120.768777 291.222397 
L 120.931186 290.536247 
L 121.256003 294.222425 
L 121.418411 292.56785 
L 121.58082 293.668747 
L 121.743228 292.293878 
L 121.905636 285.8999 
L 122.068045 292.952691 
L 122.230453 292.836891 
L 122.55527 289.007221 
L 122.717679 291.630907 
L 122.880087 291.601646 
L 123.042496 289.704547 
L 123.367313 295.488 
L 123.529721 294.284846 
L 123.854538 286.838649 
L 124.016947 293.597721 
L 124.179355 295.007363 
L 124.341764 293.311567 
L 124.504172 289.323501 
L 124.666581 293.797412 
L 124.828989 293.144487 
L 125.153806 293.245531 
L 125.316214 288.882692 
L 125.478623 295.488 
L 125.641031 295.488 
L 125.80344 293.469356 
L 125.965848 293.876438 
L 126.128257 293.819992 
L 126.290665 291.369561 
L 126.453074 295.488 
L 126.615482 295.419678 
L 126.777891 290.903712 
L 126.940299 294.146817 
L 127.102708 292.91831 
L 127.265116 290.37507 
L 127.427525 293.54342 
L 127.589933 293.870083 
L 127.752342 295.488 
L 127.91475 293.526218 
L 128.077159 294.532047 
L 128.239567 293.291854 
L 128.401976 287.14309 
L 128.564384 295.488 
L 129.051609 292.751526 
L 129.214018 294.91371 
L 129.538835 292.097643 
L 129.701243 295.488 
L 129.863652 294.175432 
L 130.02606 295.043885 
L 130.188469 294.653392 
L 130.350877 291.204766 
L 130.513286 294.973216 
L 130.675694 295.488 
L 130.838103 292.021137 
L 131.000511 295.143109 
L 131.16292 292.834282 
L 131.325328 293.892096 
L 131.487737 291.688812 
L 131.650145 292.828821 
L 131.812554 295.488 
L 131.974962 291.465358 
L 132.137371 294.568327 
L 132.299779 292.068731 
L 132.462187 287.296145 
L 132.624596 295.488 
L 132.787004 291.725403 
L 132.949413 294.212695 
L 133.111821 291.629812 
L 133.436638 294.836975 
L 133.599047 292.166092 
L 133.761455 295.488 
L 133.923864 294.219911 
L 134.086272 295.240628 
L 134.411089 286.857012 
L 134.573498 287.485583 
L 134.735906 293.939358 
L 134.898315 295.431773 
L 135.060723 294.207752 
L 135.223132 295.488 
L 135.38554 290.441299 
L 135.547949 291.822517 
L 135.710357 294.732057 
L 135.872765 295.488 
L 136.035174 292.668956 
L 136.197582 295.488 
L 136.522399 288.425762 
L 136.684808 293.418989 
L 136.847216 291.291319 
L 137.009625 294.001102 
L 137.172033 293.828274 
L 137.334442 295.105731 
L 137.49685 294.970593 
L 137.659259 295.120063 
L 137.821667 294.167724 
L 137.984076 295.488 
L 138.146484 295.379262 
L 138.308893 293.922878 
L 138.471301 290.655099 
L 138.63371 295.190066 
L 138.958527 293.994334 
L 139.120935 295.488 
L 139.283343 295.488 
L 139.60816 290.642756 
L 139.932977 295.203305 
L 140.095386 293.1336 
L 140.257794 294.931124 
L 140.420203 294.68614 
L 140.582611 295.488 
L 140.907428 294.943861 
L 141.069837 295.488 
L 141.232245 295.410282 
L 141.394654 295.488 
L 141.719471 295.248131 
L 141.881879 295.488 
L 142.044288 292.296221 
L 142.206696 293.151943 
L 142.369105 292.997043 
L 142.531513 295.488 
L 142.693922 290.722333 
L 142.85633 295.09344 
L 143.018738 293.579836 
L 143.181147 293.714396 
L 143.505964 294.599372 
L 143.668372 288.992839 
L 143.830781 293.923102 
L 144.155598 291.786545 
L 144.318006 295.331017 
L 144.480415 295.392994 
L 144.805232 292.830238 
L 144.96764 295.488 
L 145.130049 294.120531 
L 145.292457 295.488 
L 145.454866 293.607474 
L 145.617274 295.488 
L 145.779683 294.960354 
L 146.1045 293.297681 
L 146.266908 295.488 
L 146.429316 295.488 
L 146.591725 290.78561 
L 146.754133 290.565918 
L 146.916542 292.342472 
L 147.07895 295.455184 
L 147.241359 292.628213 
L 147.403767 293.309843 
L 147.566176 295.488 
L 147.728584 287.983994 
L 147.890993 295.168726 
L 148.053401 293.134991 
L 148.21581 295.049788 
L 148.378218 295.488 
L 148.540627 295.488 
L 148.703035 294.16496 
L 148.865444 295.488 
L 149.027852 289.811288 
L 149.190261 295.41432 
L 149.352669 293.993427 
L 149.515078 293.826224 
L 149.677486 295.488 
L 149.839894 292.867463 
L 150.002303 295.130487 
L 150.164711 295.313381 
L 150.32712 293.4223 
L 150.489528 293.20647 
L 150.651937 293.979212 
L 150.814345 295.488 
L 150.976754 295.415189 
L 151.301571 295.488 
L 151.463979 295.488 
L 151.788796 294.133746 
L 151.951205 291.986116 
L 152.113613 295.219536 
L 152.276022 293.819693 
L 152.43843 295.488 
L 152.763247 294.594929 
L 152.925656 286.606324 
L 153.088064 295.117855 
L 153.250473 295.488 
L 153.412881 295.41327 
L 153.737698 295.488 
L 154.062515 295.488 
L 154.224923 295.218248 
L 154.387332 294.319873 
L 154.54974 294.619384 
L 154.712149 291.208858 
L 154.874557 295.488 
L 155.036966 295.488 
L 155.199374 292.826825 
L 155.361783 294.65036 
L 155.524191 294.10708 
L 155.6866 291.129447 
L 155.849008 295.488 
L 156.173825 295.488 
L 156.336234 294.355279 
L 156.661051 294.956525 
L 156.823459 295.488 
L 156.985867 295.387748 
L 157.310684 295.488 
L 157.473093 295.488 
L 157.635501 294.618318 
L 157.960318 295.488 
L 158.122727 295.224117 
L 158.285135 295.488 
L 158.934769 295.488 
L 159.259586 294.13147 
L 159.584403 295.488 
L 159.746812 295.488 
L 160.071629 294.361542 
L 160.234037 294.944757 
L 160.558854 292.122625 
L 160.721262 295.488 
L 160.883671 294.669851 
L 161.046079 295.488 
L 161.370896 295.488 
L 161.533305 292.218415 
L 161.858122 295.488 
L 162.02053 295.226654 
L 162.182939 288.893317 
L 162.832573 295.488 
L 162.994981 293.866837 
L 163.15739 295.488 
L 163.319798 295.488 
L 163.482207 295.097036 
L 163.644615 291.7602 
L 163.807024 295.488 
L 163.969432 293.805801 
L 164.294249 295.488 
L 164.781474 291.825304 
L 165.106291 295.05809 
L 165.2687 294.744829 
L 165.431108 290.527845 
L 165.593517 294.766205 
L 165.755925 294.105652 
L 165.918334 294.805584 
L 166.243151 294.698813 
L 166.405559 295.488 
L 166.567968 292.595865 
L 166.730376 295.488 
L 166.892785 295.488 
L 167.055193 295.186543 
L 167.217602 295.488 
L 167.38001 286.015863 
L 167.542418 295.119604 
L 167.704827 294.062631 
L 167.867235 295.488 
L 168.029644 295.488 
L 168.192052 293.458119 
L 168.354461 295.488 
L 168.679278 291.544134 
L 168.841686 295.488 
L 169.004095 293.538735 
L 169.166503 293.914742 
L 169.49132 295.488 
L 169.816137 295.488 
L 170.140954 294.730298 
L 170.303363 295.028668 
L 170.465771 290.438903 
L 170.62818 294.967829 
L 170.790588 293.705465 
L 170.952996 293.841869 
L 171.115405 293.689843 
L 171.277813 294.455947 
L 171.60263 289.006661 
L 171.927447 295.488 
L 172.089856 295.488 
L 172.252264 295.354045 
L 172.414673 295.488 
L 172.577081 294.866025 
L 172.73949 295.078957 
L 172.901898 294.490588 
L 173.064307 295.450394 
L 173.226715 295.199049 
L 173.389124 294.219511 
L 173.551532 294.350456 
L 173.713941 295.256287 
L 173.876349 293.593813 
L 174.363575 295.488 
L 174.525983 294.80636 
L 174.688391 294.699468 
L 174.8508 295.488 
L 175.013208 295.453152 
L 175.175617 294.437183 
L 175.338025 295.074165 
L 175.500434 293.304421 
L 175.662842 294.946592 
L 175.825251 293.571489 
L 175.987659 295.488 
L 176.150068 295.488 
L 176.312476 293.679316 
L 176.474885 293.478796 
L 176.637293 292.280451 
L 176.799702 294.689657 
L 176.96211 292.395764 
L 177.124519 295.355049 
L 177.286927 295.488 
L 177.449336 294.504699 
L 177.611744 295.488 
L 177.774153 292.935131 
L 177.936561 295.488 
L 178.261378 292.581429 
L 178.423786 295.488 
L 178.586195 293.763921 
L 178.748603 293.565377 
L 178.911012 295.488 
L 179.07342 295.488 
L 179.235829 293.425367 
L 179.398237 295.488 
L 179.560646 295.488 
L 179.723054 294.48549 
L 179.885463 295.488 
L 180.047871 295.417277 
L 180.21028 293.357972 
L 180.372688 295.488 
L 180.535097 294.474079 
L 180.859914 295.488 
L 181.022322 294.728405 
L 181.184731 295.488 
L 181.347139 295.481062 
L 181.671956 293.516238 
L 181.834364 295.371978 
L 181.996773 293.297717 
L 182.483998 295.488 
L 182.646407 294.984832 
L 182.808815 293.067142 
L 182.971224 295.488 
L 183.133632 294.98272 
L 183.296041 295.488 
L 183.458449 292.035031 
L 183.620858 295.452721 
L 183.783266 294.996155 
L 183.945675 295.488 
L 184.108083 291.273213 
L 184.270492 295.488 
L 184.4329 293.340417 
L 184.595309 295.085114 
L 184.757717 294.827796 
L 184.920126 295.488 
L 185.082534 295.488 
L 185.244942 294.731362 
L 185.407351 289.041462 
L 185.569759 295.488 
L 185.732168 294.61843 
L 185.894576 295.488 
L 186.54421 295.488 
L 186.706619 295.336633 
L 187.031436 295.488 
L 187.193844 295.488 
L 187.356253 295.356774 
L 187.518661 295.488 
L 187.68107 294.489385 
L 187.843478 295.488 
L 188.005887 295.42783 
L 188.330704 295.488 
L 188.65552 295.488 
L 188.817929 294.711056 
L 188.980337 295.334996 
L 189.142746 292.508761 
L 189.305154 294.826268 
L 189.467563 295.488 
L 189.79238 295.488 
L 189.954788 294.671211 
L 190.117197 295.488 
L 190.279605 295.488 
L 190.442014 295.329202 
L 190.604422 294.172365 
L 190.929239 295.488 
L 191.091648 295.488 
L 191.254056 294.530879 
L 191.416465 292.712367 
L 191.578873 292.616959 
L 191.741282 295.488 
L 192.066099 295.488 
L 192.228507 295.33518 
L 192.390915 295.488 
L 192.553324 292.552994 
L 192.715732 295.45061 
L 193.202958 293.59074 
L 193.365366 291.398283 
L 193.527775 295.488 
L 193.690183 294.647054 
L 193.852592 294.518268 
L 194.177409 295.488 
L 194.339817 295.488 
L 194.502226 293.492936 
L 194.664634 295.198674 
L 194.827043 293.717243 
L 194.989451 295.488 
L 195.15186 295.033354 
L 195.314268 293.590004 
L 195.476677 293.819261 
L 195.639085 293.26 
L 195.801493 295.488 
L 195.963902 294.062335 
L 196.12631 294.497028 
L 196.288719 295.340667 
L 196.613536 291.735787 
L 196.775944 295.488 
L 197.100761 295.488 
L 197.26317 295.307517 
L 197.425578 295.488 
L 197.750395 295.488 
L 198.075212 293.161752 
L 198.400029 295.488 
L 198.562438 295.209511 
L 198.724846 295.488 
L 198.887255 295.488 
L 199.049663 291.764494 
L 199.37448 295.404387 
L 199.536888 295.08259 
L 199.699297 295.168112 
L 199.861705 295.488 
L 200.024114 293.920347 
L 200.186522 295.488 
L 200.348931 295.488 
L 200.511339 294.321868 
L 200.673748 295.488 
L 200.998565 295.488 
L 201.160973 292.604509 
L 201.323382 293.220542 
L 201.48579 295.488 
L 201.810607 295.487853 
L 201.973016 295.312394 
L 202.135424 294.765469 
L 202.297833 294.92172 
L 202.460241 292.628363 
L 202.785058 294.792121 
L 202.947466 293.005077 
L 203.272283 295.488 
L 203.434692 295.276616 
L 203.5971 295.488 
L 203.921917 295.488 
L 204.084326 295.176281 
L 204.246734 295.488 
L 204.571551 295.488 
L 204.73396 292.698331 
L 204.896368 295.488 
L 205.058777 294.288317 
L 205.221185 295.488 
L 206.358044 295.488 
L 206.520453 295.261604 
L 206.682861 295.488 
L 206.84527 295.488 
L 207.007678 293.4849 
L 207.170087 295.488 
L 207.657312 295.488 
L 207.819721 295.124377 
L 207.982129 295.488 
L 208.144538 295.488 
L 208.306946 294.268704 
L 208.469355 294.407062 
L 208.631763 290.939086 
L 208.794172 295.488 
L 209.443806 295.488 
L 209.606214 293.037865 
L 209.768622 295.488 
L 210.255848 295.488 
L 210.418256 291.812571 
L 210.580665 295.488 
L 210.905482 295.488 
L 211.06789 295.258923 
L 211.230299 293.96847 
L 211.392707 295.488 
L 211.879933 295.42321 
L 212.042341 293.746438 
L 212.20475 295.210897 
L 212.367158 295.488 
L 212.529567 292.534955 
L 212.691975 295.488 
L 213.016792 295.212052 
L 213.179201 295.488 
L 213.341609 294.906089 
L 213.504017 295.488 
L 213.666426 295.488 
L 213.828834 294.903793 
L 213.991243 295.488 
L 214.31606 295.488 
L 214.478468 294.988652 
L 214.640877 295.488 
L 214.803285 295.488 
L 214.965694 295.325846 
L 215.128102 294.720478 
L 215.290511 295.488 
L 215.452919 295.488 
L 215.615328 290.111886 
L 215.777736 294.18322 
L 215.940145 295.347381 
L 216.102553 295.488 
L 216.264962 293.798865 
L 216.42737 293.535961 
L 216.589779 295.488 
L 216.752187 295.488 
L 217.077004 294.788241 
L 217.239412 295.476818 
L 217.564229 295.488 
L 217.726638 294.928577 
L 217.889046 295.488 
L 218.051455 293.885294 
L 218.213863 295.488 
L 218.376272 294.947439 
L 218.53868 295.011105 
L 218.701089 295.488 
L 219.837948 295.488 
L 220.000357 294.055296 
L 220.162765 294.257624 
L 220.325173 295.488 
L 220.487582 295.488 
L 220.812399 294.010501 
L 220.974807 294.978971 
L 221.137216 295.014156 
L 221.299624 295.488 
L 221.462033 293.899302 
L 221.624441 295.488 
L 221.78685 295.253671 
L 221.949258 295.488 
L 222.111667 294.74738 
L 222.274075 295.488 
L 222.598892 293.371296 
L 222.761301 295.488 
L 222.923709 291.574843 
L 223.086118 295.488 
L 223.410935 295.488 
L 223.573343 294.251101 
L 224.060568 295.488 
L 224.222977 295.488 
L 224.385385 293.923567 
L 224.547794 293.520833 
L 224.710202 295.074918 
L 224.872611 292.580374 
L 225.197428 295.276841 
L 225.359836 294.886473 
L 225.522245 295.488 
L 226.334287 295.488 
L 226.496696 290.422403 
L 226.821513 294.74705 
L 226.983921 295.405855 
L 227.14633 293.750996 
L 227.308738 295.488 
L 227.471146 295.215631 
L 227.958372 295.488 
L 228.770414 295.488 
L 228.932823 295.310473 
L 229.095231 292.812481 
L 229.420048 295.488 
L 230.232091 295.488 
L 230.394499 294.112379 
L 230.556908 295.146105 
L 230.881724 293.947875 
L 231.044133 295.488 
L 231.206541 294.325356 
L 231.36895 295.488 
L 231.531358 293.347258 
L 231.856175 295.488 
L 232.018584 295.488 
L 232.180992 294.645212 
L 232.343401 295.466788 
L 232.505809 295.488 
L 232.668218 293.832746 
L 232.993035 295.488 
L 233.155443 295.488 
L 233.317852 293.564425 
L 233.48026 295.488 
L 233.805077 295.488 
L 233.967486 294.803346 
L 234.129894 295.488 
L 235.104345 295.488 
L 235.266753 294.828425 
L 235.429162 295.488 
L 235.916387 295.488 
L 236.078796 294.264189 
L 236.241204 295.488 
L 236.566021 295.488 
L 236.72843 295.025749 
L 236.890838 295.488 
L 237.378064 295.488 
L 237.540472 294.723007 
L 237.702881 295.488 
L 237.865289 294.1891 
L 238.027697 295.488 
L 238.190106 293.064221 
L 238.352514 295.488 
L 238.677331 295.488 
L 239.002148 293.813333 
L 239.164557 295.488 
L 239.976599 295.488 
L 240.139008 292.734239 
L 240.301416 295.488 
L 240.463825 295.488 
L 240.626233 294.500589 
L 240.788642 295.488 
L 241.438276 295.488 
L 241.600684 292.014007 
L 241.763092 295.488 
L 241.925501 295.488 
L 242.250318 294.647969 
L 242.412726 295.488 
L 242.575135 295.488 
L 242.737543 294.400521 
L 242.899952 295.488 
L 243.06236 295.488 
L 243.224769 294.747273 
L 243.387177 295.488 
L 243.549586 294.519152 
L 243.711994 295.488 
L 243.874403 294.841906 
L 244.036811 295.488 
L 244.19922 289.804606 
L 244.361628 295.488 
L 245.011262 295.488 
L 245.17367 294.664232 
L 245.336079 295.488 
L 245.498487 295.488 
L 245.660896 294.57554 
L 245.823304 295.488 
L 245.985713 294.466524 
L 246.148121 295.488 
L 246.472938 295.482401 
L 246.635347 294.80436 
L 246.960164 295.488 
L 247.122572 293.989515 
L 247.447389 295.488 
L 247.609798 295.488 
L 247.772206 295.015481 
L 247.934615 295.488 
L 248.42184 295.488 
L 248.584248 294.665594 
L 248.746657 295.488 
L 249.883516 295.488 
L 250.045925 294.355729 
L 250.208333 295.488 
L 250.370742 290.21536 
L 250.53315 295.488 
L 250.695559 294.584007 
L 250.857967 295.488 
L 251.020376 295.488 
L 251.182784 294.253626 
L 251.345193 295.488 
L 251.507601 292.308676 
L 251.67001 295.488 
L 251.994827 294.161755 
L 252.157235 294.270381 
L 252.319643 295.488 
L 252.482052 295.488 
L 252.64446 294.4792 
L 252.806869 295.488 
L 252.969277 295.138056 
L 253.131686 295.488 
L 253.618911 295.488 
L 253.78132 294.605389 
L 253.943728 295.488 
L 254.430954 295.488 
L 254.593362 295.030819 
L 254.755771 295.488 
L 255.242996 295.488 
L 255.405405 295.261931 
L 255.567813 295.488 
L 255.730221 295.488 
L 255.89263 294.843017 
L 256.055038 295.488 
L 257.029489 295.488 
L 257.191898 295.067747 
L 257.354306 295.488 
L 257.679123 295.488 
L 257.841532 295.105188 
L 258.00394 295.488 
L 258.491166 295.488 
L 258.653574 295.265363 
L 258.815983 293.987969 
L 258.978391 295.113558 
L 259.140799 292.202848 
L 259.303208 293.290091 
L 259.465616 295.488 
L 259.790433 295.488 
L 259.952842 294.469359 
L 260.277659 295.488 
L 260.602476 294.992095 
L 260.764884 295.488 
L 260.927293 295.488 
L 261.089701 293.931032 
L 261.25211 295.488 
L 262.064152 295.488 
L 262.226561 293.98206 
L 262.551378 295.488 
L 262.713786 295.488 
L 262.876194 294.035497 
L 263.038603 294.020601 
L 263.201011 293.430579 
L 263.36342 295.488 
L 263.525828 294.735596 
L 263.688237 295.017973 
L 263.850645 294.68538 
L 264.013054 295.488 
L 264.175462 293.471263 
L 264.500279 295.488 
L 265.312322 295.488 
L 265.47473 293.830185 
L 265.961956 295.338459 
L 266.124364 295.488 
L 266.286772 294.186375 
L 266.449181 295.488 
L 266.611589 291.295509 
L 266.773998 295.488 
L 267.098815 295.488 
L 267.261223 294.843737 
L 267.423632 295.488 
L 267.910857 295.488 
L 268.073266 295.168114 
L 268.235674 292.035487 
L 268.398083 295.488 
L 268.560491 295.488 
L 268.7229 293.597346 
L 268.885308 295.488 
L 269.047717 294.450967 
L 269.210125 294.245471 
L 269.372534 295.488 
L 270.346984 295.488 
L 270.509393 295.186349 
L 270.671801 295.488 
L 270.83421 293.112625 
L 270.996618 295.488 
L 271.646252 295.488 
L 271.808661 293.202435 
L 271.971069 295.488 
L 273.270337 295.488 
L 273.432745 295.054222 
L 273.595154 295.488 
L 273.757562 294.896822 
L 273.919971 295.488 
L 274.082379 294.205589 
L 274.244788 295.488 
L 274.732013 295.488 
L 274.894422 293.116718 
L 275.05683 295.152627 
L 275.219239 295.315765 
L 275.381647 293.867655 
L 275.544056 295.488 
L 276.031281 295.488 
L 276.19369 294.766652 
L 276.356098 295.488 
L 276.518507 294.152213 
L 276.680915 295.304782 
L 276.843323 295.393432 
L 277.005732 294.888292 
L 277.16814 295.488 
L 277.330549 295.166049 
L 277.492957 295.488 
L 277.980183 295.488 
L 278.142591 293.969035 
L 278.305 294.478762 
L 278.467408 295.488 
L 278.792225 293.607844 
L 278.954634 295.409911 
L 279.279451 295.488 
L 279.441859 294.632371 
L 279.604268 295.488 
L 279.766676 293.862839 
L 279.929085 295.488 
L 280.091493 295.488 
L 280.253901 295.320379 
L 280.41631 295.488 
L 280.741127 295.488 
L 280.903535 293.233948 
L 281.065944 295.488 
L 281.228352 295.488 
L 281.390761 293.4013 
L 281.553169 295.488 
L 281.715578 295.488 
L 281.877986 294.621797 
L 282.040395 295.488 
L 282.202803 292.252982 
L 282.52762 295.488 
L 282.690029 291.537026 
L 282.852437 295.488 
L 283.014846 292.657953 
L 283.177254 295.488 
L 283.339663 293.732345 
L 283.502071 294.89966 
L 283.66448 293.477347 
L 283.826888 295.488 
L 284.151705 295.488 
L 284.314113 294.677012 
L 284.476522 295.488 
L 284.63893 295.488 
L 284.801339 294.230705 
L 284.963747 295.488 
L 285.126156 290.805854 
L 285.288564 294.487453 
L 285.450973 295.488 
L 285.613381 295.395203 
L 285.77579 295.488 
L 286.100607 295.375337 
L 286.263015 295.20314 
L 286.425424 295.488 
L 287.237466 295.488 
L 287.399874 294.164385 
L 287.562283 295.393874 
L 288.049508 294.154551 
L 288.211917 295.409975 
L 288.536734 295.488 
L 289.348776 295.488 
L 289.511185 291.208304 
L 289.673593 294.234134 
L 289.836002 294.158926 
L 289.99841 295.488 
L 290.160819 294.996577 
L 290.485636 295.488 
L 290.648044 295.10812 
L 290.810452 295.488 
L 290.972861 293.813831 
L 291.297678 295.488 
L 291.460086 294.573265 
L 291.622495 295.488 
L 292.272129 295.488 
L 292.434537 292.586982 
L 292.596946 295.488 
L 292.759354 295.400597 
L 293.084171 295.488 
L 293.24658 294.557763 
L 293.408988 295.488 
L 294.221031 295.488 
L 294.383439 295.356679 
L 294.545847 292.069405 
L 294.708256 295.488 
L 294.870664 294.505474 
L 295.033073 295.488 
L 295.195481 294.630321 
L 295.35789 295.488 
L 295.520298 293.505028 
L 295.682707 294.553939 
L 295.845115 294.84094 
L 296.007524 295.406779 
L 296.332341 295.488 
L 297.794017 295.488 
L 297.956425 293.117287 
L 298.118834 295.488 
L 298.281242 295.367696 
L 298.606059 295.488 
L 299.58051 295.488 
L 299.742919 292.320615 
L 299.905327 295.488 
L 300.067736 295.242446 
L 300.230144 292.311692 
L 300.392553 295.488 
L 300.554961 295.488 
L 300.71737 293.911003 
L 301.042187 294.993937 
L 301.204595 295.488 
L 301.367004 295.11807 
L 301.529412 295.488 
L 301.69182 291.346486 
L 301.854229 295.488 
L 302.016637 294.126241 
L 302.179046 295.488 
L 302.341454 295.15505 
L 302.503863 295.245068 
L 302.666271 295.488 
L 302.991088 293.203616 
L 303.315905 295.373026 
L 303.478314 294.203542 
L 303.640722 295.488 
L 304.127948 295.422862 
L 304.290356 294.916077 
L 304.452765 295.488 
L 305.264807 295.488 
L 305.427215 294.697071 
L 305.589624 295.488 
L 305.752032 293.748896 
L 305.914441 295.488 
L 306.726483 295.488 
L 306.888892 294.321542 
L 307.0513 295.488 
L 307.863343 295.488 
L 308.025751 295.059666 
L 308.18816 294.262014 
L 308.350568 295.488 
L 308.512976 295.488 
L 308.675385 295.298647 
L 308.837793 295.488 
L 309.16261 295.488 
L 309.325019 293.014385 
L 309.487427 295.488 
L 310.786695 295.488 
L 310.949104 294.644178 
L 311.273921 295.488 
L 311.436329 295.33416 
L 311.598738 295.488 
L 313.060414 295.488 
L 313.222822 293.585376 
L 313.385231 295.488 
L 313.547639 293.216835 
L 313.710048 295.488 
L 314.52209 295.488 
L 314.684499 294.254297 
L 314.846907 295.488 
L 315.983766 295.488 
L 316.146175 295.139635 
L 316.308583 294.072597 
L 316.470992 295.488 
L 316.6334 294.143049 
L 316.795809 294.619501 
L 316.958217 294.027078 
L 317.120626 294.365516 
L 317.283034 295.488 
L 317.445443 295.488 
L 317.607851 295.187703 
L 317.77026 295.488 
L 318.257485 295.488 
L 318.419894 293.736619 
L 318.582302 295.488 
L 319.719161 295.488 
L 319.88157 294.186105 
L 320.043978 295.488 
L 321.505655 295.488 
L 321.668063 294.872756 
L 321.99288 295.488 
L 322.317697 295.488 
L 322.480106 295.308949 
L 322.642514 295.488 
L 322.804922 294.864286 
L 322.967331 295.488 
L 325.565867 295.488 
L 325.728275 293.791813 
L 326.2155 295.488 
L 326.377909 295.13606 
L 326.540317 295.488 
L 326.865134 295.488 
L 327.027543 294.905045 
L 327.189951 295.488 
L 327.35236 295.081547 
L 327.514768 295.488 
L 328.001994 295.488 
L 328.164402 294.089096 
L 328.326811 295.488 
L 328.814036 295.488 
L 328.976445 294.940817 
L 329.138853 293.532629 
L 329.301262 295.488 
L 333.199065 295.488 
L 333.361473 294.019182 
L 333.523882 295.488 
L 333.68629 295.488 
L 333.848699 294.610539 
L 334.011107 295.488 
L 334.173516 294.943565 
L 334.335924 295.488 
L 334.82315 295.488 
L 334.985558 294.319128 
L 335.147967 294.470361 
L 335.310375 295.488 
L 335.472784 295.488 
L 335.635192 295.168123 
L 335.797601 293.561317 
L 335.960009 295.488 
L 336.609643 295.488 
L 336.772051 294.65692 
L 336.93446 295.488 
L 337.908911 295.488 
L 338.071319 294.91105 
L 338.233728 295.488 
L 338.720953 295.488 
L 338.883362 293.298455 
L 339.04577 295.097563 
L 339.208179 294.725086 
L 339.370587 294.73723 
L 339.532996 295.488 
L 339.857813 295.488 
L 340.020221 294.991399 
L 340.182629 294.889992 
L 340.345038 295.488 
L 342.943574 295.488 
L 343.105982 294.816203 
L 343.268391 295.488 
L 343.430799 295.488 
L 343.593208 294.902311 
L 343.755616 295.488 
L 344.730067 295.488 
L 344.892475 293.976661 
L 345.054884 295.488 
L 345.866926 295.488 
L 346.029335 293.933067 
L 346.191743 295.488 
L 347.003786 295.488 
L 347.166194 295.257414 
L 347.328602 295.488 
L 347.491011 295.153929 
L 347.653419 295.488 
L 347.815828 295.488 
L 347.978236 294.085818 
L 348.140645 295.488 
L 349.115096 295.488 
L 349.277504 291.853266 
L 349.439913 295.488 
L 350.576772 295.488 
L 350.901589 293.574932 
L 351.063997 295.488 
L 351.226406 295.488 
L 351.388814 294.196071 
L 351.551223 295.429843 
L 351.87604 295.488 
L 352.038448 294.372632 
L 352.200857 295.488 
L 352.688082 295.488 
L 352.850491 294.170479 
L 353.175308 295.488 
L 353.337716 295.31136 
L 353.500125 295.488 
L 353.98735 295.488 
L 354.149759 295.322005 
L 354.474575 295.488 
L 354.636984 295.488 
L 354.799392 292.761907 
L 354.961801 295.488 
L 355.611435 295.488 
L 355.773843 295.084319 
L 355.936252 295.488 
L 356.585886 295.488 
L 356.748294 294.26309 
L 356.910703 295.470332 
L 357.073111 293.956094 
L 357.23552 295.488 
L 357.722745 295.488 
L 357.885153 294.616826 
L 358.047562 295.488 
L 358.20997 295.488 
L 358.372379 294.715026 
L 358.534787 295.488 
L 358.859604 295.488 
L 359.022013 295.005255 
L 359.184421 295.488 
L 359.34683 294.574628 
L 359.509238 295.488 
L 360.158872 295.488 
L 360.321281 294.411415 
L 360.483689 295.488 
L 360.808506 295.488 
L 360.970915 294.349941 
L 361.133323 295.379352 
L 361.45814 295.488 
L 362.432591 295.380441 
L 362.594999 295.09156 
L 362.757408 295.488 
L 363.082225 295.488 
L 363.244633 293.051386 
L 363.407042 295.488 
L 363.894267 295.488 
L 364.056676 294.540751 
L 364.219084 295.488 
L 364.70631 295.488 
L 365.031126 294.944633 
L 365.193535 292.284286 
L 365.355943 295.24855 
L 365.518352 295.488 
L 365.843169 295.488 
L 366.005577 292.997963 
L 366.167986 295.488 
L 366.492803 295.488 
L 366.655211 294.821681 
L 366.81762 295.488 
L 367.629662 295.488 
L 367.792071 294.488462 
L 367.954479 295.488 
L 368.116888 295.488 
L 368.279296 290.974164 
L 368.441704 295.488 
L 368.604113 295.488 
L 368.766521 293.97324 
L 368.92893 295.488 
L 369.578564 295.488 
L 369.740972 295.079401 
L 369.903381 295.488 
L 370.065789 295.488 
L 370.228198 295.182103 
L 370.390606 293.861629 
L 370.553015 295.488 
L 371.365057 295.488 
L 371.527466 292.54186 
L 371.689874 295.488 
L 373.476367 295.488 
L 373.638776 295.147672 
L 373.801184 295.488 
L 374.450818 295.488 
L 374.613227 294.641182 
L 374.775635 295.488 
L 375.100452 295.488 
L 375.262861 290.646979 
L 375.425269 295.488 
L 375.750086 295.488 
L 375.912494 293.417829 
L 376.074903 289.640695 
L 376.237311 295.488 
L 376.562128 295.488 
L 376.724537 294.912097 
L 376.886945 295.338284 
L 377.211762 294.929673 
L 377.374171 295.488 
L 377.861396 295.488 
L 378.023805 294.710353 
L 378.186213 295.477278 
L 378.998255 295.488 
L 379.160664 295.023375 
L 379.323072 295.488 
L 379.972706 295.488 
L 380.135115 293.270641 
L 380.297523 295.488 
L 380.62234 295.488 
L 380.784749 295.371691 
L 381.109566 295.488 
L 381.596791 295.488 
L 381.7592 293.775893 
L 381.921608 293.852021 
L 382.084017 295.468364 
L 382.246425 295.488 
L 382.408834 294.850624 
L 382.571242 295.488 
L 385.657003 295.488 
L 385.819412 294.688198 
L 385.98182 295.488 
L 387.443496 295.488 
L 387.605905 295.040896 
L 387.768313 295.016011 
L 387.930722 295.488 
L 389.392398 295.410705 
L 389.554806 292.740286 
L 389.717215 295.488 
L 391.016483 295.488 
L 391.3413 294.616887 
L 391.503708 295.488 
L 391.666117 294.116688 
L 391.828525 295.488 
L 391.990934 295.488 
L 392.153342 293.755819 
L 392.315751 295.488 
L 392.802976 295.488 
L 393.127793 294.988014 
L 393.290201 295.488 
L 393.45261 295.488 
L 393.615018 294.832637 
L 393.777427 295.488 
L 393.939835 295.470487 
L 394.102244 295.235932 
L 394.264652 295.488 
L 394.427061 295.225908 
L 394.589469 294.583834 
L 394.751878 295.488 
L 394.914286 295.488 
L 395.076695 293.695531 
L 395.239103 295.488 
L 397.512822 295.488 
L 397.67523 293.737066 
L 398.000047 295.488 
L 398.162456 293.927785 
L 398.324864 295.488 
L 398.487273 295.488 
L 398.487273 295.488 
" style="fill:none;stroke:#1f77b4;stroke-linecap:square;stroke-width:1.5;"/>
   </g>
   <g id="patch_3">
    <path d="M 57.6 307.584 
L 57.6 41.472 
" style="fill:none;stroke:#000000;stroke-linecap:square;stroke-linejoin:miter;stroke-width:0.8;"/>
   </g>
   <g id="patch_4">
    <path d="M 414.72 307.584 
L 414.72 41.472 
" style="fill:none;stroke:#000000;stroke-linecap:square;stroke-linejoin:miter;stroke-width:0.8;"/>
   </g>
   <g id="patch_5">
    <path d="M 57.6 307.584 
L 414.72 307.584 
" style="fill:none;stroke:#000000;stroke-linecap:square;stroke-linejoin:miter;stroke-width:0.8;"/>
   </g>
   <g id="patch_6">
    <path d="M 57.6 41.472 
L 414.72 41.472 
" style="fill:none;stroke:#000000;stroke-linecap:square;stroke-linejoin:miter;stroke-width:0.8;"/>
   </g>
  </g>
 </g>
 <defs>
  <clipPath id="p0592271a13">
   <rect height="266.112" width="357.12" x="57.6" y="41.472"/>
  </clipPath>
 </defs>
</svg>
