<?xml version="1.0" encoding="utf-8" standalone="no"?>
<!DOCTYPE svg PUBLIC "-//W3C//DTD SVG 1.1//EN"
  "http://www.w3.org/Graphics/SVG/1.1/DTD/svg11.dtd">
<!-- Created with matplotlib (http://matplotlib.org/) -->
<svg height="345.6pt" version="1.1" viewBox="0 0 460.8 345.6" width="460.8pt" xmlns="http://www.w3.org/2000/svg" xmlns:xlink="http://www.w3.org/1999/xlink">
 <defs>
  <style type="text/css">
*{stroke-linecap:butt;stroke-linejoin:round;}
  </style>
 </defs>
 <g id="figure_1">
  <g id="patch_1">
   <path d="M 0 345.6 
L 460.8 345.6 
L 460.8 0 
L 0 0 
z
" style="fill:#ffffff;"/>
  </g>
  <g id="axes_1">
   <g id="patch_2">
    <path d="M 57.6 307.584 
L 414.72 307.584 
L 414.72 41.472 
L 57.6 41.472 
z
" style="fill:#ffffff;"/>
   </g>
   <g id="matplotlib.axis_1">
    <g id="xtick_1">
     <g id="line2d_1">
      <defs>
       <path d="M 0 0 
L 0 3.5 
" id="m48ce49f609" style="stroke:#000000;stroke-width:0.8;"/>
      </defs>
      <g>
       <use style="stroke:#000000;stroke-width:0.8;" x="73.182117" xlink:href="#m48ce49f609" y="307.584"/>
      </g>
     </g>
     <g id="text_1">
      <!-- 0 -->
      <defs>
       <path d="M 31.78125 66.40625 
Q 24.171875 66.40625 20.328125 58.90625 
Q 16.5 51.421875 16.5 36.375 
Q 16.5 21.390625 20.328125 13.890625 
Q 24.171875 6.390625 31.78125 6.390625 
Q 39.453125 6.390625 43.28125 13.890625 
Q 47.125 21.390625 47.125 36.375 
Q 47.125 51.421875 43.28125 58.90625 
Q 39.453125 66.40625 31.78125 66.40625 
z
M 31.78125 74.21875 
Q 44.046875 74.21875 50.515625 64.515625 
Q 56.984375 54.828125 56.984375 36.375 
Q 56.984375 17.96875 50.515625 8.265625 
Q 44.046875 -1.421875 31.78125 -1.421875 
Q 19.53125 -1.421875 13.0625 8.265625 
Q 6.59375 17.96875 6.59375 36.375 
Q 6.59375 54.828125 13.0625 64.515625 
Q 19.53125 74.21875 31.78125 74.21875 
z
" id="DejaVuSans-30"/>
      </defs>
      <g transform="translate(70.000867 322.182437)scale(0.1 -0.1)">
       <use xlink:href="#DejaVuSans-30"/>
      </g>
     </g>
    </g>
    <g id="xtick_2">
     <g id="line2d_2">
      <g>
       <use style="stroke:#000000;stroke-width:0.8;" x="138.243148" xlink:href="#m48ce49f609" y="307.584"/>
      </g>
     </g>
     <g id="text_2">
      <!-- 100 -->
      <defs>
       <path d="M 12.40625 8.296875 
L 28.515625 8.296875 
L 28.515625 63.921875 
L 10.984375 60.40625 
L 10.984375 69.390625 
L 28.421875 72.90625 
L 38.28125 72.90625 
L 38.28125 8.296875 
L 54.390625 8.296875 
L 54.390625 0 
L 12.40625 0 
z
" id="DejaVuSans-31"/>
      </defs>
      <g transform="translate(128.699398 322.182437)scale(0.1 -0.1)">
       <use xlink:href="#DejaVuSans-31"/>
       <use x="63.623047" xlink:href="#DejaVuSans-30"/>
       <use x="127.246094" xlink:href="#DejaVuSans-30"/>
      </g>
     </g>
    </g>
    <g id="xtick_3">
     <g id="line2d_3">
      <g>
       <use style="stroke:#000000;stroke-width:0.8;" x="203.304179" xlink:href="#m48ce49f609" y="307.584"/>
      </g>
     </g>
     <g id="text_3">
      <!-- 200 -->
      <defs>
       <path d="M 19.1875 8.296875 
L 53.609375 8.296875 
L 53.609375 0 
L 7.328125 0 
L 7.328125 8.296875 
Q 12.9375 14.109375 22.625 23.890625 
Q 32.328125 33.6875 34.8125 36.53125 
Q 39.546875 41.84375 41.421875 45.53125 
Q 43.3125 49.21875 43.3125 52.78125 
Q 43.3125 58.59375 39.234375 62.25 
Q 35.15625 65.921875 28.609375 65.921875 
Q 23.96875 65.921875 18.8125 64.3125 
Q 13.671875 62.703125 7.8125 59.421875 
L 7.8125 69.390625 
Q 13.765625 71.78125 18.9375 73 
Q 24.125 74.21875 28.421875 74.21875 
Q 39.75 74.21875 46.484375 68.546875 
Q 53.21875 62.890625 53.21875 53.421875 
Q 53.21875 48.921875 51.53125 44.890625 
Q 49.859375 40.875 45.40625 35.40625 
Q 44.1875 33.984375 37.640625 27.21875 
Q 31.109375 20.453125 19.1875 8.296875 
z
" id="DejaVuSans-32"/>
      </defs>
      <g transform="translate(193.760429 322.182437)scale(0.1 -0.1)">
       <use xlink:href="#DejaVuSans-32"/>
       <use x="63.623047" xlink:href="#DejaVuSans-30"/>
       <use x="127.246094" xlink:href="#DejaVuSans-30"/>
      </g>
     </g>
    </g>
    <g id="xtick_4">
     <g id="line2d_4">
      <g>
       <use style="stroke:#000000;stroke-width:0.8;" x="268.36521" xlink:href="#m48ce49f609" y="307.584"/>
      </g>
     </g>
     <g id="text_4">
      <!-- 300 -->
      <defs>
       <path d="M 40.578125 39.3125 
Q 47.65625 37.796875 51.625 33 
Q 55.609375 28.21875 55.609375 21.1875 
Q 55.609375 10.40625 48.1875 4.484375 
Q 40.765625 -1.421875 27.09375 -1.421875 
Q 22.515625 -1.421875 17.65625 -0.515625 
Q 12.796875 0.390625 7.625 2.203125 
L 7.625 11.71875 
Q 11.71875 9.328125 16.59375 8.109375 
Q 21.484375 6.890625 26.8125 6.890625 
Q 36.078125 6.890625 40.9375 10.546875 
Q 45.796875 14.203125 45.796875 21.1875 
Q 45.796875 27.640625 41.28125 31.265625 
Q 36.765625 34.90625 28.71875 34.90625 
L 20.21875 34.90625 
L 20.21875 43.015625 
L 29.109375 43.015625 
Q 36.375 43.015625 40.234375 45.921875 
Q 44.09375 48.828125 44.09375 54.296875 
Q 44.09375 59.90625 40.109375 62.90625 
Q 36.140625 65.921875 28.71875 65.921875 
Q 24.65625 65.921875 20.015625 65.03125 
Q 15.375 64.15625 9.8125 62.3125 
L 9.8125 71.09375 
Q 15.4375 72.65625 20.34375 73.4375 
Q 25.25 74.21875 29.59375 74.21875 
Q 40.828125 74.21875 47.359375 69.109375 
Q 53.90625 64.015625 53.90625 55.328125 
Q 53.90625 49.265625 50.4375 45.09375 
Q 46.96875 40.921875 40.578125 39.3125 
z
" id="DejaVuSans-33"/>
      </defs>
      <g transform="translate(258.82146 322.182437)scale(0.1 -0.1)">
       <use xlink:href="#DejaVuSans-33"/>
       <use x="63.623047" xlink:href="#DejaVuSans-30"/>
       <use x="127.246094" xlink:href="#DejaVuSans-30"/>
      </g>
     </g>
    </g>
    <g id="xtick_5">
     <g id="line2d_5">
      <g>
       <use style="stroke:#000000;stroke-width:0.8;" x="333.426242" xlink:href="#m48ce49f609" y="307.584"/>
      </g>
     </g>
     <g id="text_5">
      <!-- 400 -->
      <defs>
       <path d="M 37.796875 64.3125 
L 12.890625 25.390625 
L 37.796875 25.390625 
z
M 35.203125 72.90625 
L 47.609375 72.90625 
L 47.609375 25.390625 
L 58.015625 25.390625 
L 58.015625 17.1875 
L 47.609375 17.1875 
L 47.609375 0 
L 37.796875 0 
L 37.796875 17.1875 
L 4.890625 17.1875 
L 4.890625 26.703125 
z
" id="DejaVuSans-34"/>
      </defs>
      <g transform="translate(323.882492 322.182437)scale(0.1 -0.1)">
       <use xlink:href="#DejaVuSans-34"/>
       <use x="63.623047" xlink:href="#DejaVuSans-30"/>
       <use x="127.246094" xlink:href="#DejaVuSans-30"/>
      </g>
     </g>
    </g>
    <g id="xtick_6">
     <g id="line2d_6">
      <g>
       <use style="stroke:#000000;stroke-width:0.8;" x="398.487273" xlink:href="#m48ce49f609" y="307.584"/>
      </g>
     </g>
     <g id="text_6">
      <!-- 500 -->
      <defs>
       <path d="M 10.796875 72.90625 
L 49.515625 72.90625 
L 49.515625 64.59375 
L 19.828125 64.59375 
L 19.828125 46.734375 
Q 21.96875 47.46875 24.109375 47.828125 
Q 26.265625 48.1875 28.421875 48.1875 
Q 40.625 48.1875 47.75 41.5 
Q 54.890625 34.8125 54.890625 23.390625 
Q 54.890625 11.625 47.5625 5.09375 
Q 40.234375 -1.421875 26.90625 -1.421875 
Q 22.3125 -1.421875 17.546875 -0.640625 
Q 12.796875 0.140625 7.71875 1.703125 
L 7.71875 11.625 
Q 12.109375 9.234375 16.796875 8.0625 
Q 21.484375 6.890625 26.703125 6.890625 
Q 35.15625 6.890625 40.078125 11.328125 
Q 45.015625 15.765625 45.015625 23.390625 
Q 45.015625 31 40.078125 35.4375 
Q 35.15625 39.890625 26.703125 39.890625 
Q 22.75 39.890625 18.8125 39.015625 
Q 14.890625 38.140625 10.796875 36.28125 
z
" id="DejaVuSans-35"/>
      </defs>
      <g transform="translate(388.943523 322.182437)scale(0.1 -0.1)">
       <use xlink:href="#DejaVuSans-35"/>
       <use x="63.623047" xlink:href="#DejaVuSans-30"/>
       <use x="127.246094" xlink:href="#DejaVuSans-30"/>
      </g>
     </g>
    </g>
   </g>
   <g id="matplotlib.axis_2">
    <g id="ytick_1">
     <g id="line2d_7">
      <defs>
       <path d="M 0 0 
L -3.5 0 
" id="m7e3cf1a2e3" style="stroke:#000000;stroke-width:0.8;"/>
      </defs>
      <g>
       <use style="stroke:#000000;stroke-width:0.8;" x="57.6" xlink:href="#m7e3cf1a2e3" y="295.488"/>
      </g>
     </g>
     <g id="text_7">
      <!-- 0.0 -->
      <defs>
       <path d="M 10.6875 12.40625 
L 21 12.40625 
L 21 0 
L 10.6875 0 
z
" id="DejaVuSans-2e"/>
      </defs>
      <g transform="translate(34.696875 299.287219)scale(0.1 -0.1)">
       <use xlink:href="#DejaVuSans-30"/>
       <use x="63.623047" xlink:href="#DejaVuSans-2e"/>
       <use x="95.410156" xlink:href="#DejaVuSans-30"/>
      </g>
     </g>
    </g>
    <g id="ytick_2">
     <g id="line2d_8">
      <g>
       <use style="stroke:#000000;stroke-width:0.8;" x="57.6" xlink:href="#m7e3cf1a2e3" y="240.684117"/>
      </g>
     </g>
     <g id="text_8">
      <!-- 0.1 -->
      <g transform="translate(34.696875 244.483335)scale(0.1 -0.1)">
       <use xlink:href="#DejaVuSans-30"/>
       <use x="63.623047" xlink:href="#DejaVuSans-2e"/>
       <use x="95.410156" xlink:href="#DejaVuSans-31"/>
      </g>
     </g>
    </g>
    <g id="ytick_3">
     <g id="line2d_9">
      <g>
       <use style="stroke:#000000;stroke-width:0.8;" x="57.6" xlink:href="#m7e3cf1a2e3" y="185.880233"/>
      </g>
     </g>
     <g id="text_9">
      <!-- 0.2 -->
      <g transform="translate(34.696875 189.679452)scale(0.1 -0.1)">
       <use xlink:href="#DejaVuSans-30"/>
       <use x="63.623047" xlink:href="#DejaVuSans-2e"/>
       <use x="95.410156" xlink:href="#DejaVuSans-32"/>
      </g>
     </g>
    </g>
    <g id="ytick_4">
     <g id="line2d_10">
      <g>
       <use style="stroke:#000000;stroke-width:0.8;" x="57.6" xlink:href="#m7e3cf1a2e3" y="131.07635"/>
      </g>
     </g>
     <g id="text_10">
      <!-- 0.3 -->
      <g transform="translate(34.696875 134.875568)scale(0.1 -0.1)">
       <use xlink:href="#DejaVuSans-30"/>
       <use x="63.623047" xlink:href="#DejaVuSans-2e"/>
       <use x="95.410156" xlink:href="#DejaVuSans-33"/>
      </g>
     </g>
    </g>
    <g id="ytick_5">
     <g id="line2d_11">
      <g>
       <use style="stroke:#000000;stroke-width:0.8;" x="57.6" xlink:href="#m7e3cf1a2e3" y="76.272466"/>
      </g>
     </g>
     <g id="text_11">
      <!-- 0.4 -->
      <g transform="translate(34.696875 80.071685)scale(0.1 -0.1)">
       <use xlink:href="#DejaVuSans-30"/>
       <use x="63.623047" xlink:href="#DejaVuSans-2e"/>
       <use x="95.410156" xlink:href="#DejaVuSans-34"/>
      </g>
     </g>
    </g>
   </g>
   <g id="line2d_12">
    <path clip-path="url(#p033667f1a6)" d="M 73.832727 53.568 
L 74.483338 95.932258 
L 75.133948 204.506403 
L 75.784558 187.162367 
L 76.435169 216.606245 
L 77.085779 150.428901 
L 77.736389 205.991645 
L 78.386999 229.649378 
L 79.03761 235.720891 
L 79.68822 252.410896 
L 80.33883 211.610849 
L 80.989441 254.15888 
L 81.640051 236.064036 
L 82.290661 234.837383 
L 82.941272 258.214845 
L 83.591882 259.270991 
L 84.242492 255.180699 
L 84.893103 273.030763 
L 85.543713 245.296017 
L 86.194323 245.832726 
L 86.844934 277.728009 
L 87.495544 256.267857 
L 88.146154 275.049286 
L 88.796764 247.956884 
L 89.447375 259.775299 
L 90.097985 256.40248 
L 90.748595 274.237604 
L 91.399206 258.847746 
L 92.049816 274.490861 
L 92.700426 273.397484 
L 93.351037 261.085098 
L 94.001647 257.892847 
L 94.652257 243.977557 
L 95.302868 265.868523 
L 95.953478 275.944593 
L 96.604088 269.559606 
L 97.254698 261.50769 
L 97.905309 271.471849 
L 98.555919 283.237567 
L 99.206529 271.247904 
L 99.85714 268.587118 
L 100.50775 269.503392 
L 101.15836 284.534677 
L 101.808971 276.844156 
L 102.459581 274.588999 
L 103.110191 262.120916 
L 103.760802 277.652027 
L 104.411412 281.418481 
L 105.062022 273.603974 
L 105.712633 279.043656 
L 106.363243 269.13375 
L 107.013853 277.149276 
L 107.664463 291.110696 
L 108.965684 272.126022 
L 109.616294 280.714548 
L 110.266905 275.284818 
L 110.917515 282.061367 
L 111.568125 281.478035 
L 112.218736 283.067813 
L 112.869346 268.459259 
L 113.519956 286.229674 
L 114.170567 287.65103 
L 114.821177 272.768695 
L 115.471787 271.588341 
L 116.122398 290.297244 
L 116.773008 289.026537 
L 117.423618 294.346556 
L 118.074228 278.43406 
L 118.724839 281.372257 
L 119.375449 274.916321 
L 120.026059 283.782637 
L 120.67667 277.056048 
L 121.32728 289.343764 
L 121.97789 278.867578 
L 122.628501 287.023382 
L 123.279111 289.295495 
L 123.929721 280.479946 
L 124.580332 279.507133 
L 125.230942 281.031551 
L 125.881552 269.853558 
L 126.532163 286.298089 
L 127.182773 282.592019 
L 127.833383 287.29856 
L 128.483993 279.682574 
L 129.134604 281.155592 
L 129.785214 290.07018 
L 130.435824 272.722611 
L 131.086435 281.954287 
L 131.737045 284.686683 
L 132.387655 285.289155 
L 133.038266 281.80994 
L 133.688876 286.308976 
L 134.339486 287.357749 
L 134.990097 278.194787 
L 135.640707 283.385397 
L 136.291317 283.235493 
L 136.941927 279.734682 
L 137.592538 290.435449 
L 138.243148 291.554939 
L 138.893758 284.030983 
L 139.544369 290.897285 
L 140.194979 292.067055 
L 140.845589 284.438313 
L 141.4962 291.056495 
L 142.14681 276.91542 
L 142.79742 277.742178 
L 143.448031 289.470413 
L 144.098641 285.553726 
L 144.749251 276.971244 
L 145.399862 288.074421 
L 146.050472 284.541125 
L 146.701082 275.408613 
L 147.351692 283.237641 
L 148.002303 283.895285 
L 148.652913 281.501395 
L 149.303523 288.323367 
L 149.954134 282.256122 
L 151.255354 291.36407 
L 151.905965 279.350053 
L 152.556575 288.403037 
L 153.207185 286.409344 
L 153.857796 283.825805 
L 154.508406 283.91583 
L 155.159016 272.995061 
L 155.809627 287.62373 
L 156.460237 292.428071 
L 157.110847 293.298482 
L 157.761457 283.928151 
L 158.412068 292.02592 
L 159.062678 291.289408 
L 159.713288 282.330776 
L 160.363899 287.600799 
L 161.014509 289.385481 
L 161.665119 283.791662 
L 162.31573 283.831454 
L 162.96634 281.715279 
L 164.267561 281.885859 
L 164.918171 290.901653 
L 165.568781 287.731157 
L 166.219392 294.20497 
L 166.870002 282.50369 
L 167.520612 290.412051 
L 168.171222 279.93207 
L 168.821833 282.510247 
L 169.472443 273.870899 
L 170.123053 293.913573 
L 170.773664 283.547505 
L 172.074884 282.6516 
L 173.376105 291.422649 
L 174.026715 280.469235 
L 174.677326 285.927425 
L 175.327936 293.499135 
L 175.978546 271.249302 
L 176.629156 277.288009 
L 177.279767 290.835546 
L 177.930377 289.456725 
L 178.580987 275.663544 
L 179.231598 286.919973 
L 179.882208 290.810047 
L 180.532818 289.41081 
L 181.183429 284.738523 
L 181.834039 293.287095 
L 182.484649 287.416845 
L 183.13526 293.105635 
L 183.78587 285.637135 
L 184.43648 288.69491 
L 185.087091 286.545728 
L 185.737701 284.780052 
L 186.388311 293.019494 
L 187.038921 286.108227 
L 187.689532 280.649124 
L 188.340142 293.043276 
L 188.990752 290.460486 
L 189.641363 291.801179 
L 190.291973 283.879408 
L 190.942583 277.57501 
L 191.593194 291.771228 
L 192.243804 292.021533 
L 192.894414 284.46774 
L 193.545025 288.25999 
L 194.195635 289.202003 
L 194.846245 285.801202 
L 195.496856 291.71338 
L 196.798076 282.497456 
L 197.448686 292.639777 
L 198.099297 292.908653 
L 198.749907 284.710195 
L 199.400517 285.961236 
L 200.051128 294.589736 
L 200.701738 281.565216 
L 201.352348 283.631888 
L 202.002959 288.783407 
L 202.653569 288.788901 
L 203.304179 287.429555 
L 203.95479 291.910938 
L 204.6054 286.914586 
L 205.25601 291.016122 
L 205.906621 288.881654 
L 206.557231 293.268353 
L 207.207841 292.776683 
L 207.858451 293.018797 
L 208.509062 282.613559 
L 209.810282 287.312717 
L 210.460893 291.547419 
L 211.111503 290.638353 
L 211.762113 285.125495 
L 212.412724 293.360228 
L 213.063334 289.109138 
L 213.713944 292.488014 
L 214.364555 293.657837 
L 215.015165 287.010829 
L 215.665775 293.535859 
L 216.316385 291.592902 
L 216.966996 293.249769 
L 217.617606 282.076818 
L 218.268216 288.570444 
L 218.918827 291.686419 
L 219.569437 284.269573 
L 220.220047 287.484449 
L 220.870658 288.840381 
L 221.521268 286.560019 
L 222.171878 287.491783 
L 222.822489 292.950319 
L 223.473099 287.776252 
L 224.123709 289.135674 
L 224.77432 285.065391 
L 226.07554 289.410269 
L 226.72615 290.027796 
L 227.376761 289.397421 
L 228.027371 287.01915 
L 228.677981 294.469896 
L 229.328592 286.567152 
L 229.979202 295.244562 
L 230.629812 282.48623 
L 231.280423 292.663291 
L 231.931033 289.437592 
L 232.581643 286.808196 
L 233.232254 287.797464 
L 233.882864 289.146114 
L 234.533474 281.099289 
L 235.184085 289.017616 
L 235.834695 291.45719 
L 236.485305 292.756999 
L 237.135915 293.361895 
L 237.786526 290.088727 
L 238.437136 294.521777 
L 239.087746 292.773798 
L 239.738357 293.768392 
L 240.388967 283.276075 
L 241.039577 291.3814 
L 241.690188 292.179555 
L 242.340798 290.861348 
L 242.991408 292.213867 
L 243.642019 292.421706 
L 244.292629 286.666012 
L 244.943239 288.069936 
L 245.59385 283.030693 
L 246.24446 293.937478 
L 246.89507 295.488 
L 248.196291 291.045342 
L 248.846901 294.826294 
L 249.497511 287.818233 
L 250.148122 292.872653 
L 250.798732 286.773435 
L 251.449342 283.139908 
L 252.099953 293.823528 
L 252.750563 292.148741 
L 253.401173 290.802679 
L 254.051784 291.94562 
L 254.702394 292.238817 
L 256.003615 295.170818 
L 256.654225 295.148114 
L 257.304835 294.68355 
L 257.955445 289.430627 
L 258.606056 281.613243 
L 259.256666 291.95917 
L 259.907276 290.441611 
L 260.557887 292.695379 
L 261.208497 290.987142 
L 261.859107 292.81472 
L 262.509718 293.872108 
L 263.160328 293.998373 
L 263.810938 290.069138 
L 264.461549 291.756435 
L 265.112159 289.768919 
L 265.762769 291.364594 
L 266.413379 290.09109 
L 267.06399 289.674755 
L 267.7146 285.42619 
L 268.36521 290.775973 
L 269.015821 293.810109 
L 269.666431 284.791073 
L 270.317041 290.64706 
L 270.967652 294.510612 
L 272.268872 290.238949 
L 272.919483 294.115295 
L 273.570093 290.325731 
L 274.220703 294.913762 
L 274.871314 284.485999 
L 275.521924 291.427311 
L 276.172534 290.717769 
L 276.823144 291.293893 
L 277.473755 286.787305 
L 278.124365 292.984106 
L 278.774975 288.75996 
L 279.425586 292.449959 
L 280.076196 295.061909 
L 280.726806 286.373761 
L 281.377417 290.248438 
L 282.028027 286.628997 
L 282.678637 291.348191 
L 283.329248 292.136908 
L 283.979858 290.876907 
L 284.630468 290.356269 
L 285.281079 285.401272 
L 285.931689 293.905075 
L 286.582299 291.508112 
L 287.232909 291.762485 
L 287.88352 290.626678 
L 288.53413 285.478525 
L 289.18474 288.262037 
L 289.835351 289.242562 
L 290.485961 294.719242 
L 291.136571 287.310893 
L 291.787182 295.488 
L 292.437792 290.102648 
L 293.088402 288.891061 
L 293.739013 291.587398 
L 294.389623 291.442076 
L 295.040233 293.339096 
L 295.690844 292.049781 
L 296.341454 291.873741 
L 296.992064 293.017664 
L 297.642674 290.078051 
L 298.293285 289.911823 
L 298.943895 293.214939 
L 299.594505 290.001041 
L 300.245116 288.840246 
L 300.895726 286.785854 
L 301.546336 291.765491 
L 302.196947 295.488 
L 302.847557 287.357085 
L 303.498167 294.579354 
L 304.148778 284.437388 
L 304.799388 291.296284 
L 305.449998 285.733456 
L 306.100608 292.489017 
L 307.401829 290.519817 
L 308.052439 287.900976 
L 308.70305 288.499697 
L 310.00427 295.21047 
L 310.654881 291.754221 
L 311.305491 291.9146 
L 311.956101 287.697369 
L 312.606712 290.084225 
L 313.257322 293.818145 
L 313.907932 293.15164 
L 314.558543 291.680102 
L 315.209153 284.59778 
L 315.859763 288.072507 
L 316.510373 290.205347 
L 317.160984 279.27027 
L 317.811594 288.336158 
L 318.462204 289.63416 
L 319.112815 293.626664 
L 319.763425 285.713346 
L 320.414035 289.280993 
L 321.715256 292.512611 
L 322.365866 289.022124 
L 323.667087 291.062837 
L 324.317697 287.055714 
L 324.968308 279.215105 
L 325.618918 293.425941 
L 326.269528 285.496203 
L 326.920138 292.711329 
L 327.570749 291.439663 
L 328.221359 291.658763 
L 328.871969 295.488 
L 329.52258 294.122047 
L 330.17319 290.905242 
L 330.8238 293.143824 
L 331.474411 289.641213 
L 332.125021 293.587787 
L 332.775631 292.475874 
L 333.426242 286.724659 
L 334.076852 294.607165 
L 334.727462 293.259237 
L 335.378073 293.745602 
L 336.028683 295.191762 
L 337.329903 288.695163 
L 337.980514 284.254955 
L 338.631124 291.035962 
L 339.281734 289.316417 
L 339.932345 285.480485 
L 340.582955 293.924824 
L 341.233565 294.148954 
L 341.884176 295.109404 
L 342.534786 289.657685 
L 343.185396 288.402933 
L 343.836007 291.017915 
L 344.486617 286.592769 
L 345.137227 290.358388 
L 345.787837 281.043843 
L 346.438448 276.01461 
L 347.089058 274.855126 
L 347.739668 285.122989 
L 348.390279 292.732852 
L 349.040889 294.890349 
L 349.691499 293.874641 
L 350.34211 290.616593 
L 350.99272 294.000207 
L 351.64333 288.099072 
L 352.293941 293.502496 
L 352.944551 292.684793 
L 353.595161 281.936659 
L 354.245772 279.425175 
L 354.896382 290.086527 
L 355.546992 287.391087 
L 356.197602 292.881278 
L 356.848213 287.243821 
L 357.498823 291.164182 
L 358.149433 291.921185 
L 358.800044 286.623817 
L 359.450654 292.458017 
L 360.101264 288.586718 
L 360.751875 292.714573 
L 361.402485 290.513296 
L 362.053095 292.875139 
L 362.703706 292.464362 
L 363.354316 290.808813 
L 364.004926 284.992114 
L 364.655537 289.7949 
L 365.306147 289.258446 
L 366.607367 294.720285 
L 367.257978 295.019986 
L 367.908588 293.621468 
L 368.559198 286.186716 
L 369.209809 292.398566 
L 369.860419 295.315479 
L 370.511029 286.150893 
L 371.16164 291.681598 
L 371.81225 293.093941 
L 372.46286 289.696521 
L 373.113471 291.658672 
L 373.764081 290.99141 
L 374.414691 291.912515 
L 375.065302 292.285755 
L 375.715912 292.031654 
L 376.366522 292.164709 
L 377.017132 290.794222 
L 377.667743 290.614329 
L 378.318353 294.233738 
L 378.968963 294.266091 
L 379.619574 292.515119 
L 380.270184 293.600939 
L 380.920794 288.245303 
L 381.571405 286.100648 
L 382.222015 294.573607 
L 382.872625 291.812295 
L 383.523236 294.248837 
L 384.173846 291.9127 
L 384.824456 292.316824 
L 385.475066 294.21381 
L 386.125677 291.93603 
L 386.776287 294.171405 
L 387.426897 289.811907 
L 388.077508 292.308216 
L 388.728118 289.219033 
L 389.378728 294.042021 
L 390.029339 294.103401 
L 390.679949 293.299318 
L 391.330559 293.737631 
L 391.98117 292.99077 
L 392.63178 293.114155 
L 393.28239 295.488 
L 393.933001 291.895669 
L 394.583611 290.919574 
L 395.234221 291.410138 
L 395.884831 292.727116 
L 396.535442 294.631662 
L 397.186052 295.488 
L 397.836662 291.964231 
L 398.487273 285.420766 
L 398.487273 285.420766 
" style="fill:none;stroke:#1f77b4;stroke-linecap:square;stroke-width:1.5;"/>
   </g>
   <g id="patch_3">
    <path d="M 57.6 307.584 
L 57.6 41.472 
" style="fill:none;stroke:#000000;stroke-linecap:square;stroke-linejoin:miter;stroke-width:0.8;"/>
   </g>
   <g id="patch_4">
    <path d="M 414.72 307.584 
L 414.72 41.472 
" style="fill:none;stroke:#000000;stroke-linecap:square;stroke-linejoin:miter;stroke-width:0.8;"/>
   </g>
   <g id="patch_5">
    <path d="M 57.6 307.584 
L 414.72 307.584 
" style="fill:none;stroke:#000000;stroke-linecap:square;stroke-linejoin:miter;stroke-width:0.8;"/>
   </g>
   <g id="patch_6">
    <path d="M 57.6 41.472 
L 414.72 41.472 
" style="fill:none;stroke:#000000;stroke-linecap:square;stroke-linejoin:miter;stroke-width:0.8;"/>
   </g>
  </g>
 </g>
 <defs>
  <clipPath id="p033667f1a6">
   <rect height="266.112" width="357.12" x="57.6" y="41.472"/>
  </clipPath>
 </defs>
</svg>
