<?xml version="1.0" encoding="utf-8" standalone="no"?>
<!DOCTYPE svg PUBLIC "-//W3C//DTD SVG 1.1//EN"
  "http://www.w3.org/Graphics/SVG/1.1/DTD/svg11.dtd">
<!-- Created with matplotlib (http://matplotlib.org/) -->
<svg height="345.6pt" version="1.1" viewBox="0 0 460.8 345.6" width="460.8pt" xmlns="http://www.w3.org/2000/svg" xmlns:xlink="http://www.w3.org/1999/xlink">
 <defs>
  <style type="text/css">
*{stroke-linecap:butt;stroke-linejoin:round;}
  </style>
 </defs>
 <g id="figure_1">
  <g id="patch_1">
   <path d="M 0 345.6 
L 460.8 345.6 
L 460.8 0 
L 0 0 
z
" style="fill:#ffffff;"/>
  </g>
  <g id="axes_1">
   <g id="patch_2">
    <path d="M 57.6 307.584 
L 414.72 307.584 
L 414.72 41.472 
L 57.6 41.472 
z
" style="fill:#ffffff;"/>
   </g>
   <g id="PathCollection_1">
    <defs>
     <path d="M 0 0.158114 
C 0.041932 0.158114 0.082153 0.141454 0.111803 0.111803 
C 0.141454 0.082153 0.158114 0.041932 0.158114 0 
C 0.158114 -0.041932 0.141454 -0.082153 0.111803 -0.111803 
C 0.082153 -0.141454 0.041932 -0.158114 0 -0.158114 
C -0.041932 -0.158114 -0.082153 -0.141454 -0.111803 -0.111803 
C -0.141454 -0.082153 -0.158114 -0.041932 -0.158114 0 
C -0.158114 0.041932 -0.141454 0.082153 -0.111803 0.111803 
C -0.082153 0.141454 -0.041932 0.158114 0 0.158114 
z
" id="ma7e4c416bc" style="stroke:#1f77b4;stroke-opacity:0.2;"/>
    </defs>
    <g clip-path="url(#p0520b175fd)">
     <use style="fill:#1f77b4;fill-opacity:0.2;stroke:#1f77b4;stroke-opacity:0.2;" x="75.413574" xlink:href="#ma7e4c416bc" y="53.671448"/>
     <use style="fill:#1f77b4;fill-opacity:0.2;stroke:#1f77b4;stroke-opacity:0.2;" x="74.749839" xlink:href="#ma7e4c416bc" y="53.671448"/>
     <use style="fill:#1f77b4;fill-opacity:0.2;stroke:#1f77b4;stroke-opacity:0.2;" x="74.370993" xlink:href="#ma7e4c416bc" y="53.671448"/>
     <use style="fill:#1f77b4;fill-opacity:0.2;stroke:#1f77b4;stroke-opacity:0.2;" x="78.282804" xlink:href="#ma7e4c416bc" y="53.671448"/>
     <use style="fill:#1f77b4;fill-opacity:0.2;stroke:#1f77b4;stroke-opacity:0.2;" x="73.838992" xlink:href="#ma7e4c416bc" y="53.671448"/>
     <use style="fill:#1f77b4;fill-opacity:0.2;stroke:#1f77b4;stroke-opacity:0.2;" x="75.310218" xlink:href="#ma7e4c416bc" y="53.671448"/>
     <use style="fill:#1f77b4;fill-opacity:0.2;stroke:#1f77b4;stroke-opacity:0.2;" x="73.838992" xlink:href="#ma7e4c416bc" y="53.671448"/>
     <use style="fill:#1f77b4;fill-opacity:0.2;stroke:#1f77b4;stroke-opacity:0.2;" x="74.269941" xlink:href="#ma7e4c416bc" y="53.671448"/>
     <use style="fill:#1f77b4;fill-opacity:0.2;stroke:#1f77b4;stroke-opacity:0.2;" x="78.368034" xlink:href="#ma7e4c416bc" y="53.671448"/>
     <use style="fill:#1f77b4;fill-opacity:0.2;stroke:#1f77b4;stroke-opacity:0.2;" x="74.690417" xlink:href="#ma7e4c416bc" y="53.671448"/>
     <use style="fill:#1f77b4;fill-opacity:0.2;stroke:#1f77b4;stroke-opacity:0.2;" x="76.281672" xlink:href="#ma7e4c416bc" y="53.671448"/>
     <use style="fill:#1f77b4;fill-opacity:0.2;stroke:#1f77b4;stroke-opacity:0.2;" x="79.924152" xlink:href="#ma7e4c416bc" y="53.671448"/>
     <use style="fill:#1f77b4;fill-opacity:0.2;stroke:#1f77b4;stroke-opacity:0.2;" x="74.442181" xlink:href="#ma7e4c416bc" y="53.671448"/>
     <use style="fill:#1f77b4;fill-opacity:0.2;stroke:#1f77b4;stroke-opacity:0.2;" x="75.61674" xlink:href="#ma7e4c416bc" y="53.671448"/>
     <use style="fill:#1f77b4;fill-opacity:0.2;stroke:#1f77b4;stroke-opacity:0.2;" x="74.208972" xlink:href="#ma7e4c416bc" y="53.671448"/>
     <use style="fill:#1f77b4;fill-opacity:0.2;stroke:#1f77b4;stroke-opacity:0.2;" x="74.073432" xlink:href="#ma7e4c416bc" y="53.671448"/>
     <use style="fill:#1f77b4;fill-opacity:0.2;stroke:#1f77b4;stroke-opacity:0.2;" x="78.69439" xlink:href="#ma7e4c416bc" y="53.671448"/>
     <use style="fill:#1f77b4;fill-opacity:0.2;stroke:#1f77b4;stroke-opacity:0.2;" x="73.838992" xlink:href="#ma7e4c416bc" y="53.671448"/>
     <use style="fill:#1f77b4;fill-opacity:0.2;stroke:#1f77b4;stroke-opacity:0.2;" x="75.21021" xlink:href="#ma7e4c416bc" y="53.671448"/>
     <use style="fill:#1f77b4;fill-opacity:0.2;stroke:#1f77b4;stroke-opacity:0.2;" x="74.385831" xlink:href="#ma7e4c416bc" y="53.671448"/>
     <use style="fill:#1f77b4;fill-opacity:0.2;stroke:#1f77b4;stroke-opacity:0.2;" x="73.838992" xlink:href="#ma7e4c416bc" y="53.671448"/>
     <use style="fill:#1f77b4;fill-opacity:0.2;stroke:#1f77b4;stroke-opacity:0.2;" x="98.807959" xlink:href="#ma7e4c416bc" y="53.671448"/>
     <use style="fill:#1f77b4;fill-opacity:0.2;stroke:#1f77b4;stroke-opacity:0.2;" x="74.956402" xlink:href="#ma7e4c416bc" y="53.671448"/>
     <use style="fill:#1f77b4;fill-opacity:0.2;stroke:#1f77b4;stroke-opacity:0.2;" x="75.938317" xlink:href="#ma7e4c416bc" y="53.671448"/>
     <use style="fill:#1f77b4;fill-opacity:0.2;stroke:#1f77b4;stroke-opacity:0.2;" x="110.017867" xlink:href="#ma7e4c416bc" y="53.671448"/>
     <use style="fill:#1f77b4;fill-opacity:0.2;stroke:#1f77b4;stroke-opacity:0.2;" x="76.179319" xlink:href="#ma7e4c416bc" y="53.671448"/>
     <use style="fill:#1f77b4;fill-opacity:0.2;stroke:#1f77b4;stroke-opacity:0.2;" x="105.050035" xlink:href="#ma7e4c416bc" y="53.671448"/>
     <use style="fill:#1f77b4;fill-opacity:0.2;stroke:#1f77b4;stroke-opacity:0.2;" x="78.936066" xlink:href="#ma7e4c416bc" y="53.671448"/>
     <use style="fill:#1f77b4;fill-opacity:0.2;stroke:#1f77b4;stroke-opacity:0.2;" x="76.940812" xlink:href="#ma7e4c416bc" y="53.671448"/>
     <use style="fill:#1f77b4;fill-opacity:0.2;stroke:#1f77b4;stroke-opacity:0.2;" x="96.345847" xlink:href="#ma7e4c416bc" y="53.671448"/>
     <use style="fill:#1f77b4;fill-opacity:0.2;stroke:#1f77b4;stroke-opacity:0.2;" x="82.522225" xlink:href="#ma7e4c416bc" y="53.671448"/>
     <use style="fill:#1f77b4;fill-opacity:0.2;stroke:#1f77b4;stroke-opacity:0.2;" x="75.911785" xlink:href="#ma7e4c416bc" y="53.671448"/>
     <use style="fill:#1f77b4;fill-opacity:0.2;stroke:#1f77b4;stroke-opacity:0.2;" x="93.697753" xlink:href="#ma7e4c416bc" y="53.671448"/>
     <use style="fill:#1f77b4;fill-opacity:0.2;stroke:#1f77b4;stroke-opacity:0.2;" x="82.398159" xlink:href="#ma7e4c416bc" y="53.671448"/>
     <use style="fill:#1f77b4;fill-opacity:0.2;stroke:#1f77b4;stroke-opacity:0.2;" x="83.634843" xlink:href="#ma7e4c416bc" y="53.671448"/>
     <use style="fill:#1f77b4;fill-opacity:0.2;stroke:#1f77b4;stroke-opacity:0.2;" x="90.164361" xlink:href="#ma7e4c416bc" y="53.671448"/>
     <use style="fill:#1f77b4;fill-opacity:0.2;stroke:#1f77b4;stroke-opacity:0.2;" x="73.838992" xlink:href="#ma7e4c416bc" y="53.671448"/>
     <use style="fill:#1f77b4;fill-opacity:0.2;stroke:#1f77b4;stroke-opacity:0.2;" x="74.677289" xlink:href="#ma7e4c416bc" y="53.671448"/>
     <use style="fill:#1f77b4;fill-opacity:0.2;stroke:#1f77b4;stroke-opacity:0.2;" x="81.587239" xlink:href="#ma7e4c416bc" y="53.671448"/>
     <use style="fill:#1f77b4;fill-opacity:0.2;stroke:#1f77b4;stroke-opacity:0.2;" x="75.365365" xlink:href="#ma7e4c416bc" y="53.671448"/>
     <use style="fill:#1f77b4;fill-opacity:0.2;stroke:#1f77b4;stroke-opacity:0.2;" x="73.838992" xlink:href="#ma7e4c416bc" y="53.671448"/>
     <use style="fill:#1f77b4;fill-opacity:0.2;stroke:#1f77b4;stroke-opacity:0.2;" x="84.623894" xlink:href="#ma7e4c416bc" y="53.671448"/>
     <use style="fill:#1f77b4;fill-opacity:0.2;stroke:#1f77b4;stroke-opacity:0.2;" x="77.746349" xlink:href="#ma7e4c416bc" y="53.671448"/>
     <use style="fill:#1f77b4;fill-opacity:0.2;stroke:#1f77b4;stroke-opacity:0.2;" x="96.00708" xlink:href="#ma7e4c416bc" y="53.671448"/>
     <use style="fill:#1f77b4;fill-opacity:0.2;stroke:#1f77b4;stroke-opacity:0.2;" x="93.710083" xlink:href="#ma7e4c416bc" y="53.671448"/>
     <use style="fill:#1f77b4;fill-opacity:0.2;stroke:#1f77b4;stroke-opacity:0.2;" x="78.072879" xlink:href="#ma7e4c416bc" y="53.671448"/>
     <use style="fill:#1f77b4;fill-opacity:0.2;stroke:#1f77b4;stroke-opacity:0.2;" x="73.838992" xlink:href="#ma7e4c416bc" y="53.671448"/>
     <use style="fill:#1f77b4;fill-opacity:0.2;stroke:#1f77b4;stroke-opacity:0.2;" x="73.838992" xlink:href="#ma7e4c416bc" y="53.671448"/>
     <use style="fill:#1f77b4;fill-opacity:0.2;stroke:#1f77b4;stroke-opacity:0.2;" x="79.581918" xlink:href="#ma7e4c416bc" y="53.671448"/>
     <use style="fill:#1f77b4;fill-opacity:0.2;stroke:#1f77b4;stroke-opacity:0.2;" x="108.992685" xlink:href="#ma7e4c416bc" y="53.671448"/>
     <use style="fill:#1f77b4;fill-opacity:0.2;stroke:#1f77b4;stroke-opacity:0.2;" x="79.030183" xlink:href="#ma7e4c416bc" y="53.671448"/>
     <use style="fill:#1f77b4;fill-opacity:0.2;stroke:#1f77b4;stroke-opacity:0.2;" x="97.347889" xlink:href="#ma7e4c416bc" y="53.671448"/>
     <use style="fill:#1f77b4;fill-opacity:0.2;stroke:#1f77b4;stroke-opacity:0.2;" x="104.80835" xlink:href="#ma7e4c416bc" y="53.671448"/>
     <use style="fill:#1f77b4;fill-opacity:0.2;stroke:#1f77b4;stroke-opacity:0.2;" x="73.838992" xlink:href="#ma7e4c416bc" y="53.671448"/>
     <use style="fill:#1f77b4;fill-opacity:0.2;stroke:#1f77b4;stroke-opacity:0.2;" x="75.839062" xlink:href="#ma7e4c416bc" y="53.671448"/>
     <use style="fill:#1f77b4;fill-opacity:0.2;stroke:#1f77b4;stroke-opacity:0.2;" x="78.853072" xlink:href="#ma7e4c416bc" y="53.671448"/>
     <use style="fill:#1f77b4;fill-opacity:0.2;stroke:#1f77b4;stroke-opacity:0.2;" x="73.838992" xlink:href="#ma7e4c416bc" y="53.671448"/>
     <use style="fill:#1f77b4;fill-opacity:0.2;stroke:#1f77b4;stroke-opacity:0.2;" x="85.153453" xlink:href="#ma7e4c416bc" y="53.671448"/>
     <use style="fill:#1f77b4;fill-opacity:0.2;stroke:#1f77b4;stroke-opacity:0.2;" x="106.941906" xlink:href="#ma7e4c416bc" y="53.671448"/>
     <use style="fill:#1f77b4;fill-opacity:0.2;stroke:#1f77b4;stroke-opacity:0.2;" x="83.95859" xlink:href="#ma7e4c416bc" y="53.671448"/>
     <use style="fill:#1f77b4;fill-opacity:0.2;stroke:#1f77b4;stroke-opacity:0.2;" x="74.535488" xlink:href="#ma7e4c416bc" y="53.671448"/>
     <use style="fill:#1f77b4;fill-opacity:0.2;stroke:#1f77b4;stroke-opacity:0.2;" x="73.838992" xlink:href="#ma7e4c416bc" y="53.671448"/>
     <use style="fill:#1f77b4;fill-opacity:0.2;stroke:#1f77b4;stroke-opacity:0.2;" x="88.877176" xlink:href="#ma7e4c416bc" y="53.671448"/>
     <use style="fill:#1f77b4;fill-opacity:0.2;stroke:#1f77b4;stroke-opacity:0.2;" x="74.224461" xlink:href="#ma7e4c416bc" y="53.671448"/>
     <use style="fill:#1f77b4;fill-opacity:0.2;stroke:#1f77b4;stroke-opacity:0.2;" x="74.324455" xlink:href="#ma7e4c416bc" y="53.671448"/>
     <use style="fill:#1f77b4;fill-opacity:0.2;stroke:#1f77b4;stroke-opacity:0.2;" x="101.158603" xlink:href="#ma7e4c416bc" y="53.671448"/>
     <use style="fill:#1f77b4;fill-opacity:0.2;stroke:#1f77b4;stroke-opacity:0.2;" x="75.708253" xlink:href="#ma7e4c416bc" y="53.671448"/>
     <use style="fill:#1f77b4;fill-opacity:0.2;stroke:#1f77b4;stroke-opacity:0.2;" x="90.641412" xlink:href="#ma7e4c416bc" y="53.671448"/>
     <use style="fill:#1f77b4;fill-opacity:0.2;stroke:#1f77b4;stroke-opacity:0.2;" x="75.907959" xlink:href="#ma7e4c416bc" y="53.671448"/>
     <use style="fill:#1f77b4;fill-opacity:0.2;stroke:#1f77b4;stroke-opacity:0.2;" x="98.840491" xlink:href="#ma7e4c416bc" y="53.671448"/>
     <use style="fill:#1f77b4;fill-opacity:0.2;stroke:#1f77b4;stroke-opacity:0.2;" x="80.876332" xlink:href="#ma7e4c416bc" y="53.671448"/>
     <use style="fill:#1f77b4;fill-opacity:0.2;stroke:#1f77b4;stroke-opacity:0.2;" x="74.656107" xlink:href="#ma7e4c416bc" y="53.671448"/>
     <use style="fill:#1f77b4;fill-opacity:0.2;stroke:#1f77b4;stroke-opacity:0.2;" x="82.217881" xlink:href="#ma7e4c416bc" y="53.671448"/>
     <use style="fill:#1f77b4;fill-opacity:0.2;stroke:#1f77b4;stroke-opacity:0.2;" x="77.079405" xlink:href="#ma7e4c416bc" y="53.671448"/>
     <use style="fill:#1f77b4;fill-opacity:0.2;stroke:#1f77b4;stroke-opacity:0.2;" x="74.804689" xlink:href="#ma7e4c416bc" y="53.671448"/>
     <use style="fill:#1f77b4;fill-opacity:0.2;stroke:#1f77b4;stroke-opacity:0.2;" x="101.158603" xlink:href="#ma7e4c416bc" y="53.671448"/>
     <use style="fill:#1f77b4;fill-opacity:0.2;stroke:#1f77b4;stroke-opacity:0.2;" x="75.738182" xlink:href="#ma7e4c416bc" y="53.671448"/>
     <use style="fill:#1f77b4;fill-opacity:0.2;stroke:#1f77b4;stroke-opacity:0.2;" x="83.344345" xlink:href="#ma7e4c416bc" y="53.671448"/>
     <use style="fill:#1f77b4;fill-opacity:0.2;stroke:#1f77b4;stroke-opacity:0.2;" x="92.482091" xlink:href="#ma7e4c416bc" y="53.671448"/>
     <use style="fill:#1f77b4;fill-opacity:0.2;stroke:#1f77b4;stroke-opacity:0.2;" x="93.338389" xlink:href="#ma7e4c416bc" y="53.671448"/>
    </g>
   </g>
   <g id="PathCollection_2">
    <defs>
     <path d="M 0 0.158114 
C 0.041932 0.158114 0.082153 0.141454 0.111803 0.111803 
C 0.141454 0.082153 0.158114 0.041932 0.158114 0 
C 0.158114 -0.041932 0.141454 -0.082153 0.111803 -0.111803 
C 0.082153 -0.141454 0.041932 -0.158114 0 -0.158114 
C -0.041932 -0.158114 -0.082153 -0.141454 -0.111803 -0.111803 
C -0.141454 -0.082153 -0.158114 -0.041932 -0.158114 0 
C -0.158114 0.041932 -0.141454 0.082153 -0.111803 0.111803 
C -0.082153 0.141454 -0.041932 0.158114 0 0.158114 
z
" id="m7032a69abe" style="stroke:#ff7f0e;stroke-opacity:0.2;"/>
    </defs>
    <g clip-path="url(#p0520b175fd)">
     <use style="fill:#ff7f0e;fill-opacity:0.2;stroke:#ff7f0e;stroke-opacity:0.2;" x="103.343834" xlink:href="#m7032a69abe" y="295.487903"/>
     <use style="fill:#ff7f0e;fill-opacity:0.2;stroke:#ff7f0e;stroke-opacity:0.2;" x="131.662047" xlink:href="#m7032a69abe" y="295.487903"/>
     <use style="fill:#ff7f0e;fill-opacity:0.2;stroke:#ff7f0e;stroke-opacity:0.2;" x="76.627464" xlink:href="#m7032a69abe" y="295.487903"/>
     <use style="fill:#ff7f0e;fill-opacity:0.2;stroke:#ff7f0e;stroke-opacity:0.2;" x="96.63175" xlink:href="#m7032a69abe" y="295.487903"/>
     <use style="fill:#ff7f0e;fill-opacity:0.2;stroke:#ff7f0e;stroke-opacity:0.2;" x="162.867549" xlink:href="#m7032a69abe" y="295.487903"/>
     <use style="fill:#ff7f0e;fill-opacity:0.2;stroke:#ff7f0e;stroke-opacity:0.2;" x="179.119284" xlink:href="#m7032a69abe" y="295.487903"/>
     <use style="fill:#ff7f0e;fill-opacity:0.2;stroke:#ff7f0e;stroke-opacity:0.2;" x="127.154668" xlink:href="#m7032a69abe" y="295.487903"/>
     <use style="fill:#ff7f0e;fill-opacity:0.2;stroke:#ff7f0e;stroke-opacity:0.2;" x="170.503979" xlink:href="#m7032a69abe" y="295.487903"/>
     <use style="fill:#ff7f0e;fill-opacity:0.2;stroke:#ff7f0e;stroke-opacity:0.2;" x="98.196931" xlink:href="#m7032a69abe" y="295.487903"/>
     <use style="fill:#ff7f0e;fill-opacity:0.2;stroke:#ff7f0e;stroke-opacity:0.2;" x="77.731241" xlink:href="#m7032a69abe" y="295.487903"/>
     <use style="fill:#ff7f0e;fill-opacity:0.2;stroke:#ff7f0e;stroke-opacity:0.2;" x="79.447789" xlink:href="#m7032a69abe" y="295.487903"/>
     <use style="fill:#ff7f0e;fill-opacity:0.2;stroke:#ff7f0e;stroke-opacity:0.2;" x="187.038976" xlink:href="#m7032a69abe" y="295.487903"/>
     <use style="fill:#ff7f0e;fill-opacity:0.2;stroke:#ff7f0e;stroke-opacity:0.2;" x="181.839601" xlink:href="#m7032a69abe" y="295.487903"/>
     <use style="fill:#ff7f0e;fill-opacity:0.2;stroke:#ff7f0e;stroke-opacity:0.2;" x="124.078461" xlink:href="#m7032a69abe" y="295.487903"/>
     <use style="fill:#ff7f0e;fill-opacity:0.2;stroke:#ff7f0e;stroke-opacity:0.2;" x="337.270912" xlink:href="#m7032a69abe" y="295.487903"/>
     <use style="fill:#ff7f0e;fill-opacity:0.2;stroke:#ff7f0e;stroke-opacity:0.2;" x="125.177441" xlink:href="#m7032a69abe" y="295.487903"/>
     <use style="fill:#ff7f0e;fill-opacity:0.2;stroke:#ff7f0e;stroke-opacity:0.2;" x="83.665013" xlink:href="#m7032a69abe" y="295.487903"/>
     <use style="fill:#ff7f0e;fill-opacity:0.2;stroke:#ff7f0e;stroke-opacity:0.2;" x="191.339797" xlink:href="#m7032a69abe" y="295.487903"/>
     <use style="fill:#ff7f0e;fill-opacity:0.2;stroke:#ff7f0e;stroke-opacity:0.2;" x="80.346524" xlink:href="#m7032a69abe" y="295.487903"/>
     <use style="fill:#ff7f0e;fill-opacity:0.2;stroke:#ff7f0e;stroke-opacity:0.2;" x="148.355632" xlink:href="#m7032a69abe" y="295.487903"/>
     <use style="fill:#ff7f0e;fill-opacity:0.2;stroke:#ff7f0e;stroke-opacity:0.2;" x="224.393568" xlink:href="#m7032a69abe" y="295.487903"/>
     <use style="fill:#ff7f0e;fill-opacity:0.2;stroke:#ff7f0e;stroke-opacity:0.2;" x="100.831066" xlink:href="#m7032a69abe" y="295.487903"/>
     <use style="fill:#ff7f0e;fill-opacity:0.2;stroke:#ff7f0e;stroke-opacity:0.2;" x="191.436573" xlink:href="#m7032a69abe" y="295.487903"/>
     <use style="fill:#ff7f0e;fill-opacity:0.2;stroke:#ff7f0e;stroke-opacity:0.2;" x="103.721684" xlink:href="#m7032a69abe" y="295.487903"/>
     <use style="fill:#ff7f0e;fill-opacity:0.2;stroke:#ff7f0e;stroke-opacity:0.2;" x="86.773288" xlink:href="#m7032a69abe" y="295.487903"/>
     <use style="fill:#ff7f0e;fill-opacity:0.2;stroke:#ff7f0e;stroke-opacity:0.2;" x="97.862966" xlink:href="#m7032a69abe" y="295.487903"/>
     <use style="fill:#ff7f0e;fill-opacity:0.2;stroke:#ff7f0e;stroke-opacity:0.2;" x="105.487211" xlink:href="#m7032a69abe" y="295.487903"/>
     <use style="fill:#ff7f0e;fill-opacity:0.2;stroke:#ff7f0e;stroke-opacity:0.2;" x="361.690328" xlink:href="#m7032a69abe" y="295.487903"/>
     <use style="fill:#ff7f0e;fill-opacity:0.2;stroke:#ff7f0e;stroke-opacity:0.2;" x="398.474582" xlink:href="#m7032a69abe" y="295.487903"/>
     <use style="fill:#ff7f0e;fill-opacity:0.2;stroke:#ff7f0e;stroke-opacity:0.2;" x="200.942072" xlink:href="#m7032a69abe" y="295.487903"/>
     <use style="fill:#ff7f0e;fill-opacity:0.2;stroke:#ff7f0e;stroke-opacity:0.2;" x="122.98382" xlink:href="#m7032a69abe" y="295.487903"/>
     <use style="fill:#ff7f0e;fill-opacity:0.2;stroke:#ff7f0e;stroke-opacity:0.2;" x="88.071298" xlink:href="#m7032a69abe" y="295.487903"/>
     <use style="fill:#ff7f0e;fill-opacity:0.2;stroke:#ff7f0e;stroke-opacity:0.2;" x="181.452525" xlink:href="#m7032a69abe" y="295.487903"/>
     <use style="fill:#ff7f0e;fill-opacity:0.2;stroke:#ff7f0e;stroke-opacity:0.2;" x="152.550816" xlink:href="#m7032a69abe" y="295.487903"/>
     <use style="fill:#ff7f0e;fill-opacity:0.2;stroke:#ff7f0e;stroke-opacity:0.2;" x="102.994006" xlink:href="#m7032a69abe" y="295.487903"/>
     <use style="fill:#ff7f0e;fill-opacity:0.2;stroke:#ff7f0e;stroke-opacity:0.2;" x="304.714234" xlink:href="#m7032a69abe" y="295.487903"/>
     <use style="fill:#ff7f0e;fill-opacity:0.2;stroke:#ff7f0e;stroke-opacity:0.2;" x="127.561596" xlink:href="#m7032a69abe" y="295.487903"/>
     <use style="fill:#ff7f0e;fill-opacity:0.2;stroke:#ff7f0e;stroke-opacity:0.2;" x="100.216096" xlink:href="#m7032a69abe" y="295.487903"/>
     <use style="fill:#ff7f0e;fill-opacity:0.2;stroke:#ff7f0e;stroke-opacity:0.2;" x="117.78409" xlink:href="#m7032a69abe" y="295.487903"/>
     <use style="fill:#ff7f0e;fill-opacity:0.2;stroke:#ff7f0e;stroke-opacity:0.2;" x="131.867112" xlink:href="#m7032a69abe" y="295.487903"/>
     <use style="fill:#ff7f0e;fill-opacity:0.2;stroke:#ff7f0e;stroke-opacity:0.2;" x="165.591175" xlink:href="#m7032a69abe" y="295.487903"/>
     <use style="fill:#ff7f0e;fill-opacity:0.2;stroke:#ff7f0e;stroke-opacity:0.2;" x="205.37928" xlink:href="#m7032a69abe" y="295.487903"/>
     <use style="fill:#ff7f0e;fill-opacity:0.2;stroke:#ff7f0e;stroke-opacity:0.2;" x="242.629169" xlink:href="#m7032a69abe" y="295.487903"/>
     <use style="fill:#ff7f0e;fill-opacity:0.2;stroke:#ff7f0e;stroke-opacity:0.2;" x="282.5227" xlink:href="#m7032a69abe" y="295.487903"/>
     <use style="fill:#ff7f0e;fill-opacity:0.2;stroke:#ff7f0e;stroke-opacity:0.2;" x="173.018469" xlink:href="#m7032a69abe" y="295.487903"/>
     <use style="fill:#ff7f0e;fill-opacity:0.2;stroke:#ff7f0e;stroke-opacity:0.2;" x="200.135702" xlink:href="#m7032a69abe" y="295.487903"/>
     <use style="fill:#ff7f0e;fill-opacity:0.2;stroke:#ff7f0e;stroke-opacity:0.2;" x="203.824511" xlink:href="#m7032a69abe" y="295.487903"/>
     <use style="fill:#ff7f0e;fill-opacity:0.2;stroke:#ff7f0e;stroke-opacity:0.2;" x="138.058284" xlink:href="#m7032a69abe" y="295.487903"/>
     <use style="fill:#ff7f0e;fill-opacity:0.2;stroke:#ff7f0e;stroke-opacity:0.2;" x="108.363905" xlink:href="#m7032a69abe" y="295.487903"/>
     <use style="fill:#ff7f0e;fill-opacity:0.2;stroke:#ff7f0e;stroke-opacity:0.2;" x="136.364563" xlink:href="#m7032a69abe" y="295.487903"/>
     <use style="fill:#ff7f0e;fill-opacity:0.2;stroke:#ff7f0e;stroke-opacity:0.2;" x="91.276721" xlink:href="#m7032a69abe" y="295.487903"/>
     <use style="fill:#ff7f0e;fill-opacity:0.2;stroke:#ff7f0e;stroke-opacity:0.2;" x="88.863884" xlink:href="#m7032a69abe" y="295.487903"/>
     <use style="fill:#ff7f0e;fill-opacity:0.2;stroke:#ff7f0e;stroke-opacity:0.2;" x="130.660931" xlink:href="#m7032a69abe" y="295.487903"/>
     <use style="fill:#ff7f0e;fill-opacity:0.2;stroke:#ff7f0e;stroke-opacity:0.2;" x="184.950078" xlink:href="#m7032a69abe" y="295.487903"/>
     <use style="fill:#ff7f0e;fill-opacity:0.2;stroke:#ff7f0e;stroke-opacity:0.2;" x="239.923339" xlink:href="#m7032a69abe" y="295.487903"/>
     <use style="fill:#ff7f0e;fill-opacity:0.2;stroke:#ff7f0e;stroke-opacity:0.2;" x="220.968342" xlink:href="#m7032a69abe" y="295.487903"/>
     <use style="fill:#ff7f0e;fill-opacity:0.2;stroke:#ff7f0e;stroke-opacity:0.2;" x="215.200653" xlink:href="#m7032a69abe" y="295.487903"/>
     <use style="fill:#ff7f0e;fill-opacity:0.2;stroke:#ff7f0e;stroke-opacity:0.2;" x="138.546095" xlink:href="#m7032a69abe" y="295.487903"/>
     <use style="fill:#ff7f0e;fill-opacity:0.2;stroke:#ff7f0e;stroke-opacity:0.2;" x="148.744339" xlink:href="#m7032a69abe" y="295.487903"/>
     <use style="fill:#ff7f0e;fill-opacity:0.2;stroke:#ff7f0e;stroke-opacity:0.2;" x="202.907636" xlink:href="#m7032a69abe" y="295.487903"/>
     <use style="fill:#ff7f0e;fill-opacity:0.2;stroke:#ff7f0e;stroke-opacity:0.2;" x="182.093232" xlink:href="#m7032a69abe" y="295.487903"/>
     <use style="fill:#ff7f0e;fill-opacity:0.2;stroke:#ff7f0e;stroke-opacity:0.2;" x="109.085145" xlink:href="#m7032a69abe" y="295.487903"/>
     <use style="fill:#ff7f0e;fill-opacity:0.2;stroke:#ff7f0e;stroke-opacity:0.2;" x="181.76734" xlink:href="#m7032a69abe" y="295.487903"/>
     <use style="fill:#ff7f0e;fill-opacity:0.2;stroke:#ff7f0e;stroke-opacity:0.2;" x="153.097483" xlink:href="#m7032a69abe" y="295.487903"/>
     <use style="fill:#ff7f0e;fill-opacity:0.2;stroke:#ff7f0e;stroke-opacity:0.2;" x="160.79477" xlink:href="#m7032a69abe" y="295.487903"/>
     <use style="fill:#ff7f0e;fill-opacity:0.2;stroke:#ff7f0e;stroke-opacity:0.2;" x="87.224779" xlink:href="#m7032a69abe" y="295.487903"/>
     <use style="fill:#ff7f0e;fill-opacity:0.2;stroke:#ff7f0e;stroke-opacity:0.2;" x="96.484915" xlink:href="#m7032a69abe" y="295.487903"/>
     <use style="fill:#ff7f0e;fill-opacity:0.2;stroke:#ff7f0e;stroke-opacity:0.2;" x="161.889903" xlink:href="#m7032a69abe" y="295.487903"/>
     <use style="fill:#ff7f0e;fill-opacity:0.2;stroke:#ff7f0e;stroke-opacity:0.2;" x="190.143867" xlink:href="#m7032a69abe" y="295.487903"/>
     <use style="fill:#ff7f0e;fill-opacity:0.2;stroke:#ff7f0e;stroke-opacity:0.2;" x="132.415681" xlink:href="#m7032a69abe" y="295.487903"/>
     <use style="fill:#ff7f0e;fill-opacity:0.2;stroke:#ff7f0e;stroke-opacity:0.2;" x="180.373942" xlink:href="#m7032a69abe" y="295.487903"/>
     <use style="fill:#ff7f0e;fill-opacity:0.2;stroke:#ff7f0e;stroke-opacity:0.2;" x="173.931885" xlink:href="#m7032a69abe" y="295.487903"/>
     <use style="fill:#ff7f0e;fill-opacity:0.2;stroke:#ff7f0e;stroke-opacity:0.2;" x="92.170979" xlink:href="#m7032a69abe" y="295.487903"/>
     <use style="fill:#ff7f0e;fill-opacity:0.2;stroke:#ff7f0e;stroke-opacity:0.2;" x="156.184279" xlink:href="#m7032a69abe" y="295.487903"/>
     <use style="fill:#ff7f0e;fill-opacity:0.2;stroke:#ff7f0e;stroke-opacity:0.2;" x="75.879035" xlink:href="#m7032a69abe" y="295.487903"/>
     <use style="fill:#ff7f0e;fill-opacity:0.2;stroke:#ff7f0e;stroke-opacity:0.2;" x="115.656358" xlink:href="#m7032a69abe" y="295.487903"/>
     <use style="fill:#ff7f0e;fill-opacity:0.2;stroke:#ff7f0e;stroke-opacity:0.2;" x="103.437501" xlink:href="#m7032a69abe" y="295.487903"/>
     <use style="fill:#ff7f0e;fill-opacity:0.2;stroke:#ff7f0e;stroke-opacity:0.2;" x="124.944446" xlink:href="#m7032a69abe" y="295.487903"/>
     <use style="fill:#ff7f0e;fill-opacity:0.2;stroke:#ff7f0e;stroke-opacity:0.2;" x="248.416237" xlink:href="#m7032a69abe" y="295.487903"/>
     <use style="fill:#ff7f0e;fill-opacity:0.2;stroke:#ff7f0e;stroke-opacity:0.2;" x="151.027234" xlink:href="#m7032a69abe" y="295.487903"/>
    </g>
   </g>
   <g id="matplotlib.axis_1">
    <g id="xtick_1">
     <g id="line2d_1">
      <defs>
       <path d="M 0 0 
L 0 3.5 
" id="m8624fb49fe" style="stroke:#000000;stroke-width:0.8;"/>
      </defs>
      <g>
       <use style="stroke:#000000;stroke-width:0.8;" x="73.838992" xlink:href="#m8624fb49fe" y="307.584"/>
      </g>
     </g>
     <g id="text_1">
      <!-- 0.0 -->
      <defs>
       <path d="M 31.78125 66.40625 
Q 24.171875 66.40625 20.328125 58.90625 
Q 16.5 51.421875 16.5 36.375 
Q 16.5 21.390625 20.328125 13.890625 
Q 24.171875 6.390625 31.78125 6.390625 
Q 39.453125 6.390625 43.28125 13.890625 
Q 47.125 21.390625 47.125 36.375 
Q 47.125 51.421875 43.28125 58.90625 
Q 39.453125 66.40625 31.78125 66.40625 
z
M 31.78125 74.21875 
Q 44.046875 74.21875 50.515625 64.515625 
Q 56.984375 54.828125 56.984375 36.375 
Q 56.984375 17.96875 50.515625 8.265625 
Q 44.046875 -1.421875 31.78125 -1.421875 
Q 19.53125 -1.421875 13.0625 8.265625 
Q 6.59375 17.96875 6.59375 36.375 
Q 6.59375 54.828125 13.0625 64.515625 
Q 19.53125 74.21875 31.78125 74.21875 
z
" id="DejaVuSans-30"/>
       <path d="M 10.6875 12.40625 
L 21 12.40625 
L 21 0 
L 10.6875 0 
z
" id="DejaVuSans-2e"/>
      </defs>
      <g transform="translate(65.88743 322.182437)scale(0.1 -0.1)">
       <use xlink:href="#DejaVuSans-30"/>
       <use x="63.623047" xlink:href="#DejaVuSans-2e"/>
       <use x="95.410156" xlink:href="#DejaVuSans-30"/>
      </g>
     </g>
    </g>
    <g id="xtick_2">
     <g id="line2d_2">
      <g>
       <use style="stroke:#000000;stroke-width:0.8;" x="122.970879" xlink:href="#m8624fb49fe" y="307.584"/>
      </g>
     </g>
     <g id="text_2">
      <!-- 2.5 -->
      <defs>
       <path d="M 19.1875 8.296875 
L 53.609375 8.296875 
L 53.609375 0 
L 7.328125 0 
L 7.328125 8.296875 
Q 12.9375 14.109375 22.625 23.890625 
Q 32.328125 33.6875 34.8125 36.53125 
Q 39.546875 41.84375 41.421875 45.53125 
Q 43.3125 49.21875 43.3125 52.78125 
Q 43.3125 58.59375 39.234375 62.25 
Q 35.15625 65.921875 28.609375 65.921875 
Q 23.96875 65.921875 18.8125 64.3125 
Q 13.671875 62.703125 7.8125 59.421875 
L 7.8125 69.390625 
Q 13.765625 71.78125 18.9375 73 
Q 24.125 74.21875 28.421875 74.21875 
Q 39.75 74.21875 46.484375 68.546875 
Q 53.21875 62.890625 53.21875 53.421875 
Q 53.21875 48.921875 51.53125 44.890625 
Q 49.859375 40.875 45.40625 35.40625 
Q 44.1875 33.984375 37.640625 27.21875 
Q 31.109375 20.453125 19.1875 8.296875 
z
" id="DejaVuSans-32"/>
       <path d="M 10.796875 72.90625 
L 49.515625 72.90625 
L 49.515625 64.59375 
L 19.828125 64.59375 
L 19.828125 46.734375 
Q 21.96875 47.46875 24.109375 47.828125 
Q 26.265625 48.1875 28.421875 48.1875 
Q 40.625 48.1875 47.75 41.5 
Q 54.890625 34.8125 54.890625 23.390625 
Q 54.890625 11.625 47.5625 5.09375 
Q 40.234375 -1.421875 26.90625 -1.421875 
Q 22.3125 -1.421875 17.546875 -0.640625 
Q 12.796875 0.140625 7.71875 1.703125 
L 7.71875 11.625 
Q 12.109375 9.234375 16.796875 8.0625 
Q 21.484375 6.890625 26.703125 6.890625 
Q 35.15625 6.890625 40.078125 11.328125 
Q 45.015625 15.765625 45.015625 23.390625 
Q 45.015625 31 40.078125 35.4375 
Q 35.15625 39.890625 26.703125 39.890625 
Q 22.75 39.890625 18.8125 39.015625 
Q 14.890625 38.140625 10.796875 36.28125 
z
" id="DejaVuSans-35"/>
      </defs>
      <g transform="translate(115.019316 322.182437)scale(0.1 -0.1)">
       <use xlink:href="#DejaVuSans-32"/>
       <use x="63.623047" xlink:href="#DejaVuSans-2e"/>
       <use x="95.410156" xlink:href="#DejaVuSans-35"/>
      </g>
     </g>
    </g>
    <g id="xtick_3">
     <g id="line2d_3">
      <g>
       <use style="stroke:#000000;stroke-width:0.8;" x="172.102765" xlink:href="#m8624fb49fe" y="307.584"/>
      </g>
     </g>
     <g id="text_3">
      <!-- 5.0 -->
      <g transform="translate(164.151203 322.182437)scale(0.1 -0.1)">
       <use xlink:href="#DejaVuSans-35"/>
       <use x="63.623047" xlink:href="#DejaVuSans-2e"/>
       <use x="95.410156" xlink:href="#DejaVuSans-30"/>
      </g>
     </g>
    </g>
    <g id="xtick_4">
     <g id="line2d_4">
      <g>
       <use style="stroke:#000000;stroke-width:0.8;" x="221.234652" xlink:href="#m8624fb49fe" y="307.584"/>
      </g>
     </g>
     <g id="text_4">
      <!-- 7.5 -->
      <defs>
       <path d="M 8.203125 72.90625 
L 55.078125 72.90625 
L 55.078125 68.703125 
L 28.609375 0 
L 18.3125 0 
L 43.21875 64.59375 
L 8.203125 64.59375 
z
" id="DejaVuSans-37"/>
      </defs>
      <g transform="translate(213.28309 322.182437)scale(0.1 -0.1)">
       <use xlink:href="#DejaVuSans-37"/>
       <use x="63.623047" xlink:href="#DejaVuSans-2e"/>
       <use x="95.410156" xlink:href="#DejaVuSans-35"/>
      </g>
     </g>
    </g>
    <g id="xtick_5">
     <g id="line2d_5">
      <g>
       <use style="stroke:#000000;stroke-width:0.8;" x="270.366539" xlink:href="#m8624fb49fe" y="307.584"/>
      </g>
     </g>
     <g id="text_5">
      <!-- 10.0 -->
      <defs>
       <path d="M 12.40625 8.296875 
L 28.515625 8.296875 
L 28.515625 63.921875 
L 10.984375 60.40625 
L 10.984375 69.390625 
L 28.421875 72.90625 
L 38.28125 72.90625 
L 38.28125 8.296875 
L 54.390625 8.296875 
L 54.390625 0 
L 12.40625 0 
z
" id="DejaVuSans-31"/>
      </defs>
      <g transform="translate(259.233726 322.182437)scale(0.1 -0.1)">
       <use xlink:href="#DejaVuSans-31"/>
       <use x="63.623047" xlink:href="#DejaVuSans-30"/>
       <use x="127.246094" xlink:href="#DejaVuSans-2e"/>
       <use x="159.033203" xlink:href="#DejaVuSans-30"/>
      </g>
     </g>
    </g>
    <g id="xtick_6">
     <g id="line2d_6">
      <g>
       <use style="stroke:#000000;stroke-width:0.8;" x="319.498425" xlink:href="#m8624fb49fe" y="307.584"/>
      </g>
     </g>
     <g id="text_6">
      <!-- 12.5 -->
      <g transform="translate(308.365613 322.182437)scale(0.1 -0.1)">
       <use xlink:href="#DejaVuSans-31"/>
       <use x="63.623047" xlink:href="#DejaVuSans-32"/>
       <use x="127.246094" xlink:href="#DejaVuSans-2e"/>
       <use x="159.033203" xlink:href="#DejaVuSans-35"/>
      </g>
     </g>
    </g>
    <g id="xtick_7">
     <g id="line2d_7">
      <g>
       <use style="stroke:#000000;stroke-width:0.8;" x="368.630312" xlink:href="#m8624fb49fe" y="307.584"/>
      </g>
     </g>
     <g id="text_7">
      <!-- 15.0 -->
      <g transform="translate(357.497499 322.182437)scale(0.1 -0.1)">
       <use xlink:href="#DejaVuSans-31"/>
       <use x="63.623047" xlink:href="#DejaVuSans-35"/>
       <use x="127.246094" xlink:href="#DejaVuSans-2e"/>
       <use x="159.033203" xlink:href="#DejaVuSans-30"/>
      </g>
     </g>
    </g>
   </g>
   <g id="matplotlib.axis_2">
    <g id="ytick_1">
     <g id="line2d_8">
      <defs>
       <path d="M 0 0 
L -3.5 0 
" id="m58178876a8" style="stroke:#000000;stroke-width:0.8;"/>
      </defs>
      <g>
       <use style="stroke:#000000;stroke-width:0.8;" x="57.6" xlink:href="#m58178876a8" y="295.487903"/>
      </g>
     </g>
     <g id="text_8">
      <!-- 0.0 -->
      <g transform="translate(34.696875 299.287121)scale(0.1 -0.1)">
       <use xlink:href="#DejaVuSans-30"/>
       <use x="63.623047" xlink:href="#DejaVuSans-2e"/>
       <use x="95.410156" xlink:href="#DejaVuSans-30"/>
      </g>
     </g>
    </g>
    <g id="ytick_2">
     <g id="line2d_9">
      <g>
       <use style="stroke:#000000;stroke-width:0.8;" x="57.6" xlink:href="#m58178876a8" y="247.124612"/>
      </g>
     </g>
     <g id="text_9">
      <!-- 0.2 -->
      <g transform="translate(34.696875 250.923831)scale(0.1 -0.1)">
       <use xlink:href="#DejaVuSans-30"/>
       <use x="63.623047" xlink:href="#DejaVuSans-2e"/>
       <use x="95.410156" xlink:href="#DejaVuSans-32"/>
      </g>
     </g>
    </g>
    <g id="ytick_3">
     <g id="line2d_10">
      <g>
       <use style="stroke:#000000;stroke-width:0.8;" x="57.6" xlink:href="#m58178876a8" y="198.761321"/>
      </g>
     </g>
     <g id="text_10">
      <!-- 0.4 -->
      <defs>
       <path d="M 37.796875 64.3125 
L 12.890625 25.390625 
L 37.796875 25.390625 
z
M 35.203125 72.90625 
L 47.609375 72.90625 
L 47.609375 25.390625 
L 58.015625 25.390625 
L 58.015625 17.1875 
L 47.609375 17.1875 
L 47.609375 0 
L 37.796875 0 
L 37.796875 17.1875 
L 4.890625 17.1875 
L 4.890625 26.703125 
z
" id="DejaVuSans-34"/>
      </defs>
      <g transform="translate(34.696875 202.56054)scale(0.1 -0.1)">
       <use xlink:href="#DejaVuSans-30"/>
       <use x="63.623047" xlink:href="#DejaVuSans-2e"/>
       <use x="95.410156" xlink:href="#DejaVuSans-34"/>
      </g>
     </g>
    </g>
    <g id="ytick_4">
     <g id="line2d_11">
      <g>
       <use style="stroke:#000000;stroke-width:0.8;" x="57.6" xlink:href="#m58178876a8" y="150.39803"/>
      </g>
     </g>
     <g id="text_11">
      <!-- 0.6 -->
      <defs>
       <path d="M 33.015625 40.375 
Q 26.375 40.375 22.484375 35.828125 
Q 18.609375 31.296875 18.609375 23.390625 
Q 18.609375 15.53125 22.484375 10.953125 
Q 26.375 6.390625 33.015625 6.390625 
Q 39.65625 6.390625 43.53125 10.953125 
Q 47.40625 15.53125 47.40625 23.390625 
Q 47.40625 31.296875 43.53125 35.828125 
Q 39.65625 40.375 33.015625 40.375 
z
M 52.59375 71.296875 
L 52.59375 62.3125 
Q 48.875 64.0625 45.09375 64.984375 
Q 41.3125 65.921875 37.59375 65.921875 
Q 27.828125 65.921875 22.671875 59.328125 
Q 17.53125 52.734375 16.796875 39.40625 
Q 19.671875 43.65625 24.015625 45.921875 
Q 28.375 48.1875 33.59375 48.1875 
Q 44.578125 48.1875 50.953125 41.515625 
Q 57.328125 34.859375 57.328125 23.390625 
Q 57.328125 12.15625 50.6875 5.359375 
Q 44.046875 -1.421875 33.015625 -1.421875 
Q 20.359375 -1.421875 13.671875 8.265625 
Q 6.984375 17.96875 6.984375 36.375 
Q 6.984375 53.65625 15.1875 63.9375 
Q 23.390625 74.21875 37.203125 74.21875 
Q 40.921875 74.21875 44.703125 73.484375 
Q 48.484375 72.75 52.59375 71.296875 
z
" id="DejaVuSans-36"/>
      </defs>
      <g transform="translate(34.696875 154.197249)scale(0.1 -0.1)">
       <use xlink:href="#DejaVuSans-30"/>
       <use x="63.623047" xlink:href="#DejaVuSans-2e"/>
       <use x="95.410156" xlink:href="#DejaVuSans-36"/>
      </g>
     </g>
    </g>
    <g id="ytick_5">
     <g id="line2d_12">
      <g>
       <use style="stroke:#000000;stroke-width:0.8;" x="57.6" xlink:href="#m58178876a8" y="102.034739"/>
      </g>
     </g>
     <g id="text_12">
      <!-- 0.8 -->
      <defs>
       <path d="M 31.78125 34.625 
Q 24.75 34.625 20.71875 30.859375 
Q 16.703125 27.09375 16.703125 20.515625 
Q 16.703125 13.921875 20.71875 10.15625 
Q 24.75 6.390625 31.78125 6.390625 
Q 38.8125 6.390625 42.859375 10.171875 
Q 46.921875 13.96875 46.921875 20.515625 
Q 46.921875 27.09375 42.890625 30.859375 
Q 38.875 34.625 31.78125 34.625 
z
M 21.921875 38.8125 
Q 15.578125 40.375 12.03125 44.71875 
Q 8.5 49.078125 8.5 55.328125 
Q 8.5 64.0625 14.71875 69.140625 
Q 20.953125 74.21875 31.78125 74.21875 
Q 42.671875 74.21875 48.875 69.140625 
Q 55.078125 64.0625 55.078125 55.328125 
Q 55.078125 49.078125 51.53125 44.71875 
Q 48 40.375 41.703125 38.8125 
Q 48.828125 37.15625 52.796875 32.3125 
Q 56.78125 27.484375 56.78125 20.515625 
Q 56.78125 9.90625 50.3125 4.234375 
Q 43.84375 -1.421875 31.78125 -1.421875 
Q 19.734375 -1.421875 13.25 4.234375 
Q 6.78125 9.90625 6.78125 20.515625 
Q 6.78125 27.484375 10.78125 32.3125 
Q 14.796875 37.15625 21.921875 38.8125 
z
M 18.3125 54.390625 
Q 18.3125 48.734375 21.84375 45.5625 
Q 25.390625 42.390625 31.78125 42.390625 
Q 38.140625 42.390625 41.71875 45.5625 
Q 45.3125 48.734375 45.3125 54.390625 
Q 45.3125 60.0625 41.71875 63.234375 
Q 38.140625 66.40625 31.78125 66.40625 
Q 25.390625 66.40625 21.84375 63.234375 
Q 18.3125 60.0625 18.3125 54.390625 
z
" id="DejaVuSans-38"/>
      </defs>
      <g transform="translate(34.696875 105.833958)scale(0.1 -0.1)">
       <use xlink:href="#DejaVuSans-30"/>
       <use x="63.623047" xlink:href="#DejaVuSans-2e"/>
       <use x="95.410156" xlink:href="#DejaVuSans-38"/>
      </g>
     </g>
    </g>
    <g id="ytick_6">
     <g id="line2d_13">
      <g>
       <use style="stroke:#000000;stroke-width:0.8;" x="57.6" xlink:href="#m58178876a8" y="53.671448"/>
      </g>
     </g>
     <g id="text_13">
      <!-- 1.0 -->
      <g transform="translate(34.696875 57.470667)scale(0.1 -0.1)">
       <use xlink:href="#DejaVuSans-31"/>
       <use x="63.623047" xlink:href="#DejaVuSans-2e"/>
       <use x="95.410156" xlink:href="#DejaVuSans-30"/>
      </g>
     </g>
    </g>
   </g>
   <g id="patch_3">
    <path d="M 57.6 307.584 
L 57.6 41.472 
" style="fill:none;stroke:#000000;stroke-linecap:square;stroke-linejoin:miter;stroke-width:0.8;"/>
   </g>
   <g id="patch_4">
    <path d="M 414.72 307.584 
L 414.72 41.472 
" style="fill:none;stroke:#000000;stroke-linecap:square;stroke-linejoin:miter;stroke-width:0.8;"/>
   </g>
   <g id="patch_5">
    <path d="M 57.6 307.584 
L 414.72 307.584 
" style="fill:none;stroke:#000000;stroke-linecap:square;stroke-linejoin:miter;stroke-width:0.8;"/>
   </g>
   <g id="patch_6">
    <path d="M 57.6 41.472 
L 414.72 41.472 
" style="fill:none;stroke:#000000;stroke-linecap:square;stroke-linejoin:miter;stroke-width:0.8;"/>
   </g>
  </g>
 </g>
 <defs>
  <clipPath id="p0520b175fd">
   <rect height="266.112" width="357.12" x="57.6" y="41.472"/>
  </clipPath>
 </defs>
</svg>
