<?xml version="1.0" encoding="utf-8" standalone="no"?>
<!DOCTYPE svg PUBLIC "-//W3C//DTD SVG 1.1//EN"
  "http://www.w3.org/Graphics/SVG/1.1/DTD/svg11.dtd">
<!-- Created with matplotlib (http://matplotlib.org/) -->
<svg height="345.6pt" version="1.1" viewBox="0 0 460.8 345.6" width="460.8pt" xmlns="http://www.w3.org/2000/svg" xmlns:xlink="http://www.w3.org/1999/xlink">
 <defs>
  <style type="text/css">
*{stroke-linecap:butt;stroke-linejoin:round;}
  </style>
 </defs>
 <g id="figure_1">
  <g id="patch_1">
   <path d="M 0 345.6 
L 460.8 345.6 
L 460.8 0 
L 0 0 
z
" style="fill:#ffffff;"/>
  </g>
  <g id="axes_1">
   <g id="patch_2">
    <path d="M 57.6 307.584 
L 414.72 307.584 
L 414.72 41.472 
L 57.6 41.472 
z
" style="fill:#ffffff;"/>
   </g>
   <g id="matplotlib.axis_1">
    <g id="xtick_1">
     <g id="line2d_1">
      <defs>
       <path d="M 0 0 
L 0 3.5 
" id="mc192924181" style="stroke:#000000;stroke-width:0.8;"/>
      </defs>
      <g>
       <use style="stroke:#000000;stroke-width:0.8;" x="73.182117" xlink:href="#mc192924181" y="307.584"/>
      </g>
     </g>
     <g id="text_1">
      <!-- 0 -->
      <defs>
       <path d="M 31.78125 66.40625 
Q 24.171875 66.40625 20.328125 58.90625 
Q 16.5 51.421875 16.5 36.375 
Q 16.5 21.390625 20.328125 13.890625 
Q 24.171875 6.390625 31.78125 6.390625 
Q 39.453125 6.390625 43.28125 13.890625 
Q 47.125 21.390625 47.125 36.375 
Q 47.125 51.421875 43.28125 58.90625 
Q 39.453125 66.40625 31.78125 66.40625 
z
M 31.78125 74.21875 
Q 44.046875 74.21875 50.515625 64.515625 
Q 56.984375 54.828125 56.984375 36.375 
Q 56.984375 17.96875 50.515625 8.265625 
Q 44.046875 -1.421875 31.78125 -1.421875 
Q 19.53125 -1.421875 13.0625 8.265625 
Q 6.59375 17.96875 6.59375 36.375 
Q 6.59375 54.828125 13.0625 64.515625 
Q 19.53125 74.21875 31.78125 74.21875 
z
" id="DejaVuSans-30"/>
      </defs>
      <g transform="translate(70.000867 322.182437)scale(0.1 -0.1)">
       <use xlink:href="#DejaVuSans-30"/>
      </g>
     </g>
    </g>
    <g id="xtick_2">
     <g id="line2d_2">
      <g>
       <use style="stroke:#000000;stroke-width:0.8;" x="138.243148" xlink:href="#mc192924181" y="307.584"/>
      </g>
     </g>
     <g id="text_2">
      <!-- 100 -->
      <defs>
       <path d="M 12.40625 8.296875 
L 28.515625 8.296875 
L 28.515625 63.921875 
L 10.984375 60.40625 
L 10.984375 69.390625 
L 28.421875 72.90625 
L 38.28125 72.90625 
L 38.28125 8.296875 
L 54.390625 8.296875 
L 54.390625 0 
L 12.40625 0 
z
" id="DejaVuSans-31"/>
      </defs>
      <g transform="translate(128.699398 322.182437)scale(0.1 -0.1)">
       <use xlink:href="#DejaVuSans-31"/>
       <use x="63.623047" xlink:href="#DejaVuSans-30"/>
       <use x="127.246094" xlink:href="#DejaVuSans-30"/>
      </g>
     </g>
    </g>
    <g id="xtick_3">
     <g id="line2d_3">
      <g>
       <use style="stroke:#000000;stroke-width:0.8;" x="203.304179" xlink:href="#mc192924181" y="307.584"/>
      </g>
     </g>
     <g id="text_3">
      <!-- 200 -->
      <defs>
       <path d="M 19.1875 8.296875 
L 53.609375 8.296875 
L 53.609375 0 
L 7.328125 0 
L 7.328125 8.296875 
Q 12.9375 14.109375 22.625 23.890625 
Q 32.328125 33.6875 34.8125 36.53125 
Q 39.546875 41.84375 41.421875 45.53125 
Q 43.3125 49.21875 43.3125 52.78125 
Q 43.3125 58.59375 39.234375 62.25 
Q 35.15625 65.921875 28.609375 65.921875 
Q 23.96875 65.921875 18.8125 64.3125 
Q 13.671875 62.703125 7.8125 59.421875 
L 7.8125 69.390625 
Q 13.765625 71.78125 18.9375 73 
Q 24.125 74.21875 28.421875 74.21875 
Q 39.75 74.21875 46.484375 68.546875 
Q 53.21875 62.890625 53.21875 53.421875 
Q 53.21875 48.921875 51.53125 44.890625 
Q 49.859375 40.875 45.40625 35.40625 
Q 44.1875 33.984375 37.640625 27.21875 
Q 31.109375 20.453125 19.1875 8.296875 
z
" id="DejaVuSans-32"/>
      </defs>
      <g transform="translate(193.760429 322.182437)scale(0.1 -0.1)">
       <use xlink:href="#DejaVuSans-32"/>
       <use x="63.623047" xlink:href="#DejaVuSans-30"/>
       <use x="127.246094" xlink:href="#DejaVuSans-30"/>
      </g>
     </g>
    </g>
    <g id="xtick_4">
     <g id="line2d_4">
      <g>
       <use style="stroke:#000000;stroke-width:0.8;" x="268.36521" xlink:href="#mc192924181" y="307.584"/>
      </g>
     </g>
     <g id="text_4">
      <!-- 300 -->
      <defs>
       <path d="M 40.578125 39.3125 
Q 47.65625 37.796875 51.625 33 
Q 55.609375 28.21875 55.609375 21.1875 
Q 55.609375 10.40625 48.1875 4.484375 
Q 40.765625 -1.421875 27.09375 -1.421875 
Q 22.515625 -1.421875 17.65625 -0.515625 
Q 12.796875 0.390625 7.625 2.203125 
L 7.625 11.71875 
Q 11.71875 9.328125 16.59375 8.109375 
Q 21.484375 6.890625 26.8125 6.890625 
Q 36.078125 6.890625 40.9375 10.546875 
Q 45.796875 14.203125 45.796875 21.1875 
Q 45.796875 27.640625 41.28125 31.265625 
Q 36.765625 34.90625 28.71875 34.90625 
L 20.21875 34.90625 
L 20.21875 43.015625 
L 29.109375 43.015625 
Q 36.375 43.015625 40.234375 45.921875 
Q 44.09375 48.828125 44.09375 54.296875 
Q 44.09375 59.90625 40.109375 62.90625 
Q 36.140625 65.921875 28.71875 65.921875 
Q 24.65625 65.921875 20.015625 65.03125 
Q 15.375 64.15625 9.8125 62.3125 
L 9.8125 71.09375 
Q 15.4375 72.65625 20.34375 73.4375 
Q 25.25 74.21875 29.59375 74.21875 
Q 40.828125 74.21875 47.359375 69.109375 
Q 53.90625 64.015625 53.90625 55.328125 
Q 53.90625 49.265625 50.4375 45.09375 
Q 46.96875 40.921875 40.578125 39.3125 
z
" id="DejaVuSans-33"/>
      </defs>
      <g transform="translate(258.82146 322.182437)scale(0.1 -0.1)">
       <use xlink:href="#DejaVuSans-33"/>
       <use x="63.623047" xlink:href="#DejaVuSans-30"/>
       <use x="127.246094" xlink:href="#DejaVuSans-30"/>
      </g>
     </g>
    </g>
    <g id="xtick_5">
     <g id="line2d_5">
      <g>
       <use style="stroke:#000000;stroke-width:0.8;" x="333.426242" xlink:href="#mc192924181" y="307.584"/>
      </g>
     </g>
     <g id="text_5">
      <!-- 400 -->
      <defs>
       <path d="M 37.796875 64.3125 
L 12.890625 25.390625 
L 37.796875 25.390625 
z
M 35.203125 72.90625 
L 47.609375 72.90625 
L 47.609375 25.390625 
L 58.015625 25.390625 
L 58.015625 17.1875 
L 47.609375 17.1875 
L 47.609375 0 
L 37.796875 0 
L 37.796875 17.1875 
L 4.890625 17.1875 
L 4.890625 26.703125 
z
" id="DejaVuSans-34"/>
      </defs>
      <g transform="translate(323.882492 322.182437)scale(0.1 -0.1)">
       <use xlink:href="#DejaVuSans-34"/>
       <use x="63.623047" xlink:href="#DejaVuSans-30"/>
       <use x="127.246094" xlink:href="#DejaVuSans-30"/>
      </g>
     </g>
    </g>
    <g id="xtick_6">
     <g id="line2d_6">
      <g>
       <use style="stroke:#000000;stroke-width:0.8;" x="398.487273" xlink:href="#mc192924181" y="307.584"/>
      </g>
     </g>
     <g id="text_6">
      <!-- 500 -->
      <defs>
       <path d="M 10.796875 72.90625 
L 49.515625 72.90625 
L 49.515625 64.59375 
L 19.828125 64.59375 
L 19.828125 46.734375 
Q 21.96875 47.46875 24.109375 47.828125 
Q 26.265625 48.1875 28.421875 48.1875 
Q 40.625 48.1875 47.75 41.5 
Q 54.890625 34.8125 54.890625 23.390625 
Q 54.890625 11.625 47.5625 5.09375 
Q 40.234375 -1.421875 26.90625 -1.421875 
Q 22.3125 -1.421875 17.546875 -0.640625 
Q 12.796875 0.140625 7.71875 1.703125 
L 7.71875 11.625 
Q 12.109375 9.234375 16.796875 8.0625 
Q 21.484375 6.890625 26.703125 6.890625 
Q 35.15625 6.890625 40.078125 11.328125 
Q 45.015625 15.765625 45.015625 23.390625 
Q 45.015625 31 40.078125 35.4375 
Q 35.15625 39.890625 26.703125 39.890625 
Q 22.75 39.890625 18.8125 39.015625 
Q 14.890625 38.140625 10.796875 36.28125 
z
" id="DejaVuSans-35"/>
      </defs>
      <g transform="translate(388.943523 322.182437)scale(0.1 -0.1)">
       <use xlink:href="#DejaVuSans-35"/>
       <use x="63.623047" xlink:href="#DejaVuSans-30"/>
       <use x="127.246094" xlink:href="#DejaVuSans-30"/>
      </g>
     </g>
    </g>
   </g>
   <g id="matplotlib.axis_2">
    <g id="ytick_1">
     <g id="line2d_7">
      <defs>
       <path d="M 0 0 
L -3.5 0 
" id="m9b3ef3a56f" style="stroke:#000000;stroke-width:0.8;"/>
      </defs>
      <g>
       <use style="stroke:#000000;stroke-width:0.8;" x="57.6" xlink:href="#m9b3ef3a56f" y="295.488"/>
      </g>
     </g>
     <g id="text_7">
      <!-- 0.0 -->
      <defs>
       <path d="M 10.6875 12.40625 
L 21 12.40625 
L 21 0 
L 10.6875 0 
z
" id="DejaVuSans-2e"/>
      </defs>
      <g transform="translate(34.696875 299.287219)scale(0.1 -0.1)">
       <use xlink:href="#DejaVuSans-30"/>
       <use x="63.623047" xlink:href="#DejaVuSans-2e"/>
       <use x="95.410156" xlink:href="#DejaVuSans-30"/>
      </g>
     </g>
    </g>
    <g id="ytick_2">
     <g id="line2d_8">
      <g>
       <use style="stroke:#000000;stroke-width:0.8;" x="57.6" xlink:href="#m9b3ef3a56f" y="250.835193"/>
      </g>
     </g>
     <g id="text_8">
      <!-- 0.1 -->
      <g transform="translate(34.696875 254.634412)scale(0.1 -0.1)">
       <use xlink:href="#DejaVuSans-30"/>
       <use x="63.623047" xlink:href="#DejaVuSans-2e"/>
       <use x="95.410156" xlink:href="#DejaVuSans-31"/>
      </g>
     </g>
    </g>
    <g id="ytick_3">
     <g id="line2d_9">
      <g>
       <use style="stroke:#000000;stroke-width:0.8;" x="57.6" xlink:href="#m9b3ef3a56f" y="206.182387"/>
      </g>
     </g>
     <g id="text_9">
      <!-- 0.2 -->
      <g transform="translate(34.696875 209.981606)scale(0.1 -0.1)">
       <use xlink:href="#DejaVuSans-30"/>
       <use x="63.623047" xlink:href="#DejaVuSans-2e"/>
       <use x="95.410156" xlink:href="#DejaVuSans-32"/>
      </g>
     </g>
    </g>
    <g id="ytick_4">
     <g id="line2d_10">
      <g>
       <use style="stroke:#000000;stroke-width:0.8;" x="57.6" xlink:href="#m9b3ef3a56f" y="161.52958"/>
      </g>
     </g>
     <g id="text_10">
      <!-- 0.3 -->
      <g transform="translate(34.696875 165.328799)scale(0.1 -0.1)">
       <use xlink:href="#DejaVuSans-30"/>
       <use x="63.623047" xlink:href="#DejaVuSans-2e"/>
       <use x="95.410156" xlink:href="#DejaVuSans-33"/>
      </g>
     </g>
    </g>
    <g id="ytick_5">
     <g id="line2d_11">
      <g>
       <use style="stroke:#000000;stroke-width:0.8;" x="57.6" xlink:href="#m9b3ef3a56f" y="116.876774"/>
      </g>
     </g>
     <g id="text_11">
      <!-- 0.4 -->
      <g transform="translate(34.696875 120.675992)scale(0.1 -0.1)">
       <use xlink:href="#DejaVuSans-30"/>
       <use x="63.623047" xlink:href="#DejaVuSans-2e"/>
       <use x="95.410156" xlink:href="#DejaVuSans-34"/>
      </g>
     </g>
    </g>
    <g id="ytick_6">
     <g id="line2d_12">
      <g>
       <use style="stroke:#000000;stroke-width:0.8;" x="57.6" xlink:href="#m9b3ef3a56f" y="72.223967"/>
      </g>
     </g>
     <g id="text_12">
      <!-- 0.5 -->
      <g transform="translate(34.696875 76.023186)scale(0.1 -0.1)">
       <use xlink:href="#DejaVuSans-30"/>
       <use x="63.623047" xlink:href="#DejaVuSans-2e"/>
       <use x="95.410156" xlink:href="#DejaVuSans-35"/>
      </g>
     </g>
    </g>
   </g>
   <g id="line2d_13">
    <path clip-path="url(#p3dad6e31d0)" d="M 73.832727 53.568 
L 74.483338 151.583029 
L 75.133948 177.437089 
L 75.784558 122.023302 
L 76.435169 187.44668 
L 77.085779 179.225214 
L 77.736389 178.0824 
L 78.386999 244.943155 
L 79.03761 253.262431 
L 79.68822 219.955471 
L 80.33883 260.14584 
L 80.989441 206.62616 
L 81.640051 245.134784 
L 82.290661 230.435984 
L 82.941272 231.89987 
L 83.591882 244.49631 
L 84.242492 262.502837 
L 84.893103 251.902001 
L 85.543713 267.775351 
L 86.194323 256.326916 
L 86.844934 261.001663 
L 87.495544 262.163065 
L 88.146154 262.526924 
L 88.796764 266.858166 
L 89.447375 262.420576 
L 90.097985 238.013422 
L 90.748595 280.548973 
L 91.399206 252.362383 
L 92.049816 267.8551 
L 92.700426 263.823035 
L 93.351037 268.011823 
L 94.001647 274.474254 
L 94.652257 263.380455 
L 95.302868 273.615466 
L 95.953478 257.971003 
L 96.604088 259.600346 
L 97.254698 260.136974 
L 97.905309 266.410659 
L 98.555919 280.337898 
L 99.206529 274.245493 
L 99.85714 270.384131 
L 100.50775 273.460097 
L 101.15836 273.511441 
L 101.808971 272.982515 
L 102.459581 285.137935 
L 103.110191 271.790081 
L 103.760802 268.663726 
L 104.411412 283.448221 
L 105.062022 273.423782 
L 105.712633 279.061073 
L 106.363243 279.163111 
L 107.013853 274.811489 
L 107.664463 280.452102 
L 108.315074 279.593142 
L 108.965684 270.195994 
L 109.616294 275.744666 
L 110.266905 277.401218 
L 110.917515 269.080804 
L 111.568125 284.245092 
L 112.218736 280.636327 
L 112.869346 281.079556 
L 113.519956 274.332751 
L 114.170567 285.635503 
L 114.821177 276.890037 
L 115.471787 281.153977 
L 116.122398 276.979817 
L 116.773008 281.797229 
L 117.423618 283.137907 
L 118.074228 289.763325 
L 118.724839 285.494621 
L 119.375449 286.960614 
L 120.026059 291.886912 
L 120.67667 286.263037 
L 121.32728 287.489405 
L 121.97789 280.638413 
L 122.628501 280.790364 
L 123.279111 271.258831 
L 123.929721 287.480404 
L 124.580332 281.353141 
L 125.230942 282.412377 
L 125.881552 275.657984 
L 126.532163 286.46698 
L 127.182773 288.621149 
L 127.833383 279.08421 
L 128.483993 273.140055 
L 129.134604 288.194708 
L 129.785214 280.387364 
L 130.435824 279.760088 
L 131.086435 286.121134 
L 131.737045 286.870487 
L 132.387655 282.898788 
L 133.038266 281.582874 
L 133.688876 269.770887 
L 134.339486 281.016525 
L 134.990097 281.03877 
L 135.640707 281.853459 
L 136.291317 269.526877 
L 136.941927 275.919714 
L 137.592538 291.214274 
L 138.243148 279.754983 
L 138.893758 282.626081 
L 139.544369 283.02141 
L 140.194979 287.125 
L 140.845589 292.156305 
L 142.14681 274.657985 
L 142.79742 292.847389 
L 143.448031 287.673071 
L 144.098641 290.538454 
L 144.749251 291.789482 
L 145.399862 286.737595 
L 146.050472 286.978304 
L 146.701082 280.38168 
L 147.351692 288.121995 
L 148.002303 288.135828 
L 148.652913 282.926814 
L 149.303523 287.664428 
L 149.954134 286.360178 
L 150.604744 287.962846 
L 151.255354 288.694999 
L 151.905965 288.441219 
L 152.556575 292.291276 
L 153.207185 293.060772 
L 153.857796 288.067538 
L 154.508406 284.326207 
L 155.159016 287.013868 
L 155.809627 282.730086 
L 157.110847 287.750801 
L 157.761457 285.765418 
L 158.412068 284.864947 
L 159.062678 293.262557 
L 160.363899 281.245014 
L 161.014509 285.245876 
L 161.665119 286.734285 
L 162.31573 283.277764 
L 162.96634 289.316846 
L 163.61695 281.502848 
L 164.267561 286.618794 
L 164.918171 290.678511 
L 165.568781 291.562202 
L 166.219392 292.907697 
L 166.870002 282.945317 
L 167.520612 282.123441 
L 168.171222 291.937044 
L 168.821833 284.541555 
L 169.472443 290.657261 
L 170.123053 280.825242 
L 170.773664 294.423888 
L 171.424274 286.692903 
L 172.074884 282.928761 
L 172.725495 289.147705 
L 173.376105 287.194271 
L 174.026715 291.663744 
L 174.677326 288.362775 
L 175.327936 289.833127 
L 175.978546 291.877727 
L 176.629156 291.725567 
L 177.930377 287.736947 
L 178.580987 294.666412 
L 179.231598 289.987928 
L 179.882208 290.626212 
L 180.532818 286.625742 
L 181.183429 290.326158 
L 181.834039 292.850416 
L 183.13526 281.428822 
L 183.78587 281.602829 
L 184.43648 280.86391 
L 185.087091 282.568737 
L 185.737701 278.602025 
L 186.388311 290.919857 
L 187.038921 287.92944 
L 187.689532 287.59072 
L 188.340142 283.958405 
L 188.990752 289.862507 
L 189.641363 290.908885 
L 190.291973 290.080057 
L 190.942583 282.150313 
L 191.593194 290.921598 
L 192.243804 292.198739 
L 192.894414 286.063933 
L 193.545025 289.679463 
L 194.846245 294.920835 
L 195.496856 288.038904 
L 196.147466 288.346701 
L 196.798076 291.78612 
L 197.448686 294.127192 
L 198.099297 286.70902 
L 198.749907 287.991726 
L 199.400517 282.985581 
L 200.051128 289.631354 
L 200.701738 283.898994 
L 201.352348 294.993812 
L 202.002959 285.918932 
L 202.653569 286.247344 
L 203.304179 291.811995 
L 203.95479 292.013312 
L 204.6054 292.064367 
L 205.25601 294.474555 
L 205.906621 289.665228 
L 206.557231 288.301069 
L 207.207841 292.185601 
L 207.858451 291.063947 
L 208.509062 292.426855 
L 209.159672 292.481176 
L 209.810282 283.834066 
L 210.460893 287.672664 
L 211.111503 293.876112 
L 211.762113 286.850585 
L 212.412724 284.885389 
L 213.063334 293.806371 
L 213.713944 294.398928 
L 214.364555 290.40699 
L 215.015165 290.214583 
L 215.665775 289.742067 
L 216.316385 291.31436 
L 216.966996 288.648588 
L 217.617606 291.133278 
L 218.268216 291.107737 
L 218.918827 291.35894 
L 219.569437 287.745532 
L 220.220047 293.059261 
L 220.870658 292.928419 
L 221.521268 291.625112 
L 222.171878 288.211631 
L 222.822489 286.029182 
L 223.473099 286.318678 
L 224.123709 292.451393 
L 224.77432 294.247055 
L 225.42493 291.550051 
L 226.07554 292.532865 
L 226.72615 288.697396 
L 227.376761 292.316105 
L 228.027371 283.56047 
L 228.677981 293.741241 
L 229.328592 295.156407 
L 229.979202 295.283508 
L 230.629812 283.219508 
L 231.280423 295.043325 
L 231.931033 292.788964 
L 232.581643 280.244291 
L 233.232254 295.488 
L 234.533474 287.317978 
L 236.485305 291.780864 
L 237.135915 288.414729 
L 237.786526 290.198497 
L 238.437136 289.377732 
L 239.087746 286.028715 
L 239.738357 290.422815 
L 240.388967 289.450297 
L 241.039577 293.51219 
L 242.340798 293.051113 
L 242.991408 288.273701 
L 243.642019 286.405367 
L 244.292629 293.018528 
L 244.943239 288.267989 
L 245.59385 292.352509 
L 246.24446 289.047205 
L 246.89507 294.008306 
L 247.54568 286.625812 
L 248.196291 292.654528 
L 248.846901 292.24468 
L 249.497511 290.949075 
L 250.148122 293.153821 
L 250.798732 284.570049 
L 251.449342 289.664104 
L 252.099953 292.205298 
L 252.750563 295.488 
L 253.401173 286.677935 
L 254.051784 294.930293 
L 254.702394 292.701533 
L 255.353004 292.046368 
L 256.003615 292.734827 
L 256.654225 295.488 
L 257.304835 292.440693 
L 257.955445 293.302269 
L 258.606056 289.598313 
L 259.256666 290.424161 
L 259.907276 290.308601 
L 261.208497 295.488 
L 261.859107 290.184181 
L 262.509718 293.072348 
L 263.160328 286.051631 
L 263.810938 292.73198 
L 264.461549 295.488 
L 265.112159 289.570707 
L 265.762769 290.401754 
L 266.413379 293.86973 
L 267.06399 287.367134 
L 267.7146 293.209578 
L 268.36521 294.962313 
L 269.015821 295.488 
L 269.666431 288.852 
L 270.317041 288.396444 
L 270.967652 291.210751 
L 271.618262 288.670311 
L 272.268872 293.286367 
L 273.570093 294.062301 
L 274.220703 293.902302 
L 274.871314 290.38157 
L 275.521924 288.951831 
L 276.172534 288.594131 
L 276.823144 294.825093 
L 277.473755 291.46787 
L 278.124365 295.488 
L 278.774975 288.869468 
L 279.425586 293.102525 
L 280.076196 290.581475 
L 280.726806 290.963315 
L 281.377417 293.842655 
L 282.678637 294.939633 
L 283.329248 290.681539 
L 283.979858 290.971984 
L 284.630468 295.488 
L 285.281079 290.648283 
L 285.931689 292.002182 
L 286.582299 292.724367 
L 287.232909 295.007356 
L 287.88352 291.195982 
L 288.53413 293.140952 
L 289.18474 291.391332 
L 289.835351 294.409069 
L 290.485961 294.401677 
L 291.136571 294.155436 
L 291.787182 294.744344 
L 292.437792 293.651767 
L 293.088402 294.668876 
L 293.739013 293.428529 
L 294.389623 294.089702 
L 295.040233 291.672806 
L 295.690844 293.245216 
L 296.341454 287.855285 
L 296.992064 293.620078 
L 297.642674 289.439698 
L 298.293285 290.350201 
L 298.943895 290.238415 
L 299.594505 289.195815 
L 300.245116 293.227612 
L 300.895726 292.019187 
L 301.546336 292.262993 
L 302.196947 291.670882 
L 302.847557 294.318866 
L 303.498167 293.250065 
L 304.148778 292.877061 
L 304.799388 292.806345 
L 305.449998 292.188223 
L 306.100608 292.351554 
L 306.751219 291.334785 
L 307.401829 291.58252 
L 308.052439 295.488 
L 308.70305 291.328715 
L 309.35366 295.488 
L 310.00427 291.330721 
L 310.654881 292.178941 
L 311.305491 295.488 
L 311.956101 294.070545 
L 312.606712 291.716652 
L 313.257322 294.553843 
L 313.907932 295.488 
L 314.558543 291.138453 
L 315.209153 295.45091 
L 315.859763 291.561423 
L 316.510373 291.449311 
L 317.160984 292.344094 
L 317.811594 292.623522 
L 318.462204 292.129806 
L 319.112815 293.190135 
L 319.763425 287.560679 
L 320.414035 293.653523 
L 321.064646 293.838689 
L 321.715256 295.488 
L 322.365866 292.563084 
L 323.016477 291.632877 
L 323.667087 291.88117 
L 324.317697 290.953889 
L 324.968308 292.42442 
L 325.618918 295.142619 
L 326.269528 293.456748 
L 326.920138 294.530858 
L 327.570749 287.554133 
L 328.221359 290.202393 
L 328.871969 291.1979 
L 329.52258 293.615878 
L 330.17319 291.729882 
L 331.474411 290.554382 
L 332.125021 292.272311 
L 332.775631 294.51405 
L 333.426242 292.920979 
L 334.076852 292.279897 
L 334.727462 294.120017 
L 335.378073 294.709627 
L 336.028683 292.661971 
L 336.679293 291.86062 
L 337.980514 294.235561 
L 338.631124 294.688423 
L 339.281734 293.987663 
L 339.932345 294.013627 
L 340.582955 295.174353 
L 341.233565 293.881479 
L 341.884176 295.135432 
L 342.534786 292.980723 
L 343.185396 295.232917 
L 343.836007 291.456756 
L 344.486617 294.938677 
L 345.137227 295.193453 
L 345.787837 294.198988 
L 346.438448 292.936754 
L 347.089058 295.488 
L 347.739668 290.721018 
L 348.390279 295.136459 
L 349.040889 294.991023 
L 350.34211 292.165945 
L 350.99272 292.316665 
L 351.64333 295.390095 
L 352.293941 295.144241 
L 352.944551 294.423739 
L 353.595161 295.488 
L 354.896382 291.130125 
L 355.546992 292.120679 
L 356.197602 293.482834 
L 356.848213 292.689293 
L 357.498823 293.158334 
L 358.149433 295.488 
L 358.800044 292.480076 
L 359.450654 290.725626 
L 360.101264 293.846439 
L 360.751875 293.528924 
L 361.402485 290.56362 
L 362.053095 292.438824 
L 362.703706 295.488 
L 364.004926 295.488 
L 364.655537 289.664876 
L 365.306147 290.025982 
L 365.956757 288.409664 
L 366.607367 289.42795 
L 367.257978 294.314259 
L 367.908588 293.852801 
L 368.559198 293.140543 
L 369.209809 291.557109 
L 369.860419 294.032467 
L 370.511029 290.550296 
L 371.16164 293.017912 
L 371.81225 292.527638 
L 373.113471 294.63888 
L 373.764081 291.284479 
L 374.414691 291.58042 
L 375.065302 293.595128 
L 375.715912 289.756144 
L 376.366522 295.252731 
L 377.017132 293.811554 
L 377.667743 294.545599 
L 378.318353 294.386973 
L 378.968963 294.413579 
L 379.619574 291.227276 
L 380.270184 293.573451 
L 380.920794 295.488 
L 381.571405 292.080759 
L 382.222015 292.7527 
L 382.872625 294.684464 
L 383.523236 295.488 
L 384.173846 294.889505 
L 384.824456 295.488 
L 386.125677 292.081775 
L 386.776287 295.488 
L 387.426897 293.555485 
L 388.077508 295.488 
L 388.728118 292.287481 
L 389.378728 294.195777 
L 390.029339 295.000809 
L 390.679949 291.257011 
L 391.330559 294.932987 
L 391.98117 293.771304 
L 392.63178 292.283874 
L 393.933001 295.448474 
L 394.583611 292.456152 
L 395.234221 291.140043 
L 395.884831 293.683183 
L 396.535442 294.913783 
L 397.186052 295.055573 
L 397.836662 291.858598 
L 398.487273 291.823058 
L 398.487273 291.823058 
" style="fill:none;stroke:#1f77b4;stroke-linecap:square;stroke-width:1.5;"/>
   </g>
   <g id="patch_3">
    <path d="M 57.6 307.584 
L 57.6 41.472 
" style="fill:none;stroke:#000000;stroke-linecap:square;stroke-linejoin:miter;stroke-width:0.8;"/>
   </g>
   <g id="patch_4">
    <path d="M 414.72 307.584 
L 414.72 41.472 
" style="fill:none;stroke:#000000;stroke-linecap:square;stroke-linejoin:miter;stroke-width:0.8;"/>
   </g>
   <g id="patch_5">
    <path d="M 57.6 307.584 
L 414.72 307.584 
" style="fill:none;stroke:#000000;stroke-linecap:square;stroke-linejoin:miter;stroke-width:0.8;"/>
   </g>
   <g id="patch_6">
    <path d="M 57.6 41.472 
L 414.72 41.472 
" style="fill:none;stroke:#000000;stroke-linecap:square;stroke-linejoin:miter;stroke-width:0.8;"/>
   </g>
  </g>
 </g>
 <defs>
  <clipPath id="p3dad6e31d0">
   <rect height="266.112" width="357.12" x="57.6" y="41.472"/>
  </clipPath>
 </defs>
</svg>
