<?xml version="1.0" encoding="utf-8" standalone="no"?>
<!DOCTYPE svg PUBLIC "-//W3C//DTD SVG 1.1//EN"
  "http://www.w3.org/Graphics/SVG/1.1/DTD/svg11.dtd">
<!-- Created with matplotlib (http://matplotlib.org/) -->
<svg height="345.6pt" version="1.1" viewBox="0 0 460.8 345.6" width="460.8pt" xmlns="http://www.w3.org/2000/svg" xmlns:xlink="http://www.w3.org/1999/xlink">
 <defs>
  <style type="text/css">
*{stroke-linecap:butt;stroke-linejoin:round;}
  </style>
 </defs>
 <g id="figure_1">
  <g id="patch_1">
   <path d="M 0 345.6 
L 460.8 345.6 
L 460.8 0 
L 0 0 
z
" style="fill:#ffffff;"/>
  </g>
  <g id="axes_1">
   <g id="patch_2">
    <path d="M 57.6 307.584 
L 414.72 307.584 
L 414.72 41.472 
L 57.6 41.472 
z
" style="fill:#ffffff;"/>
   </g>
   <g id="matplotlib.axis_1">
    <g id="xtick_1">
     <g id="line2d_1">
      <defs>
       <path d="M 0 0 
L 0 3.5 
" id="m36b407f759" style="stroke:#000000;stroke-width:0.8;"/>
      </defs>
      <g>
       <use style="stroke:#000000;stroke-width:0.8;" x="73.507748" xlink:href="#m36b407f759" y="307.584"/>
      </g>
     </g>
     <g id="text_1">
      <!-- 0 -->
      <defs>
       <path d="M 31.78125 66.40625 
Q 24.171875 66.40625 20.328125 58.90625 
Q 16.5 51.421875 16.5 36.375 
Q 16.5 21.390625 20.328125 13.890625 
Q 24.171875 6.390625 31.78125 6.390625 
Q 39.453125 6.390625 43.28125 13.890625 
Q 47.125 21.390625 47.125 36.375 
Q 47.125 51.421875 43.28125 58.90625 
Q 39.453125 66.40625 31.78125 66.40625 
z
M 31.78125 74.21875 
Q 44.046875 74.21875 50.515625 64.515625 
Q 56.984375 54.828125 56.984375 36.375 
Q 56.984375 17.96875 50.515625 8.265625 
Q 44.046875 -1.421875 31.78125 -1.421875 
Q 19.53125 -1.421875 13.0625 8.265625 
Q 6.59375 17.96875 6.59375 36.375 
Q 6.59375 54.828125 13.0625 64.515625 
Q 19.53125 74.21875 31.78125 74.21875 
z
" id="DejaVuSans-30"/>
      </defs>
      <g transform="translate(70.326498 322.182437)scale(0.1 -0.1)">
       <use xlink:href="#DejaVuSans-30"/>
      </g>
     </g>
    </g>
    <g id="xtick_2">
     <g id="line2d_2">
      <g>
       <use style="stroke:#000000;stroke-width:0.8;" x="138.503653" xlink:href="#m36b407f759" y="307.584"/>
      </g>
     </g>
     <g id="text_2">
      <!-- 200 -->
      <defs>
       <path d="M 19.1875 8.296875 
L 53.609375 8.296875 
L 53.609375 0 
L 7.328125 0 
L 7.328125 8.296875 
Q 12.9375 14.109375 22.625 23.890625 
Q 32.328125 33.6875 34.8125 36.53125 
Q 39.546875 41.84375 41.421875 45.53125 
Q 43.3125 49.21875 43.3125 52.78125 
Q 43.3125 58.59375 39.234375 62.25 
Q 35.15625 65.921875 28.609375 65.921875 
Q 23.96875 65.921875 18.8125 64.3125 
Q 13.671875 62.703125 7.8125 59.421875 
L 7.8125 69.390625 
Q 13.765625 71.78125 18.9375 73 
Q 24.125 74.21875 28.421875 74.21875 
Q 39.75 74.21875 46.484375 68.546875 
Q 53.21875 62.890625 53.21875 53.421875 
Q 53.21875 48.921875 51.53125 44.890625 
Q 49.859375 40.875 45.40625 35.40625 
Q 44.1875 33.984375 37.640625 27.21875 
Q 31.109375 20.453125 19.1875 8.296875 
z
" id="DejaVuSans-32"/>
      </defs>
      <g transform="translate(128.959903 322.182437)scale(0.1 -0.1)">
       <use xlink:href="#DejaVuSans-32"/>
       <use x="63.623047" xlink:href="#DejaVuSans-30"/>
       <use x="127.246094" xlink:href="#DejaVuSans-30"/>
      </g>
     </g>
    </g>
    <g id="xtick_3">
     <g id="line2d_3">
      <g>
       <use style="stroke:#000000;stroke-width:0.8;" x="203.499558" xlink:href="#m36b407f759" y="307.584"/>
      </g>
     </g>
     <g id="text_3">
      <!-- 400 -->
      <defs>
       <path d="M 37.796875 64.3125 
L 12.890625 25.390625 
L 37.796875 25.390625 
z
M 35.203125 72.90625 
L 47.609375 72.90625 
L 47.609375 25.390625 
L 58.015625 25.390625 
L 58.015625 17.1875 
L 47.609375 17.1875 
L 47.609375 0 
L 37.796875 0 
L 37.796875 17.1875 
L 4.890625 17.1875 
L 4.890625 26.703125 
z
" id="DejaVuSans-34"/>
      </defs>
      <g transform="translate(193.955808 322.182437)scale(0.1 -0.1)">
       <use xlink:href="#DejaVuSans-34"/>
       <use x="63.623047" xlink:href="#DejaVuSans-30"/>
       <use x="127.246094" xlink:href="#DejaVuSans-30"/>
      </g>
     </g>
    </g>
    <g id="xtick_4">
     <g id="line2d_4">
      <g>
       <use style="stroke:#000000;stroke-width:0.8;" x="268.495463" xlink:href="#m36b407f759" y="307.584"/>
      </g>
     </g>
     <g id="text_4">
      <!-- 600 -->
      <defs>
       <path d="M 33.015625 40.375 
Q 26.375 40.375 22.484375 35.828125 
Q 18.609375 31.296875 18.609375 23.390625 
Q 18.609375 15.53125 22.484375 10.953125 
Q 26.375 6.390625 33.015625 6.390625 
Q 39.65625 6.390625 43.53125 10.953125 
Q 47.40625 15.53125 47.40625 23.390625 
Q 47.40625 31.296875 43.53125 35.828125 
Q 39.65625 40.375 33.015625 40.375 
z
M 52.59375 71.296875 
L 52.59375 62.3125 
Q 48.875 64.0625 45.09375 64.984375 
Q 41.3125 65.921875 37.59375 65.921875 
Q 27.828125 65.921875 22.671875 59.328125 
Q 17.53125 52.734375 16.796875 39.40625 
Q 19.671875 43.65625 24.015625 45.921875 
Q 28.375 48.1875 33.59375 48.1875 
Q 44.578125 48.1875 50.953125 41.515625 
Q 57.328125 34.859375 57.328125 23.390625 
Q 57.328125 12.15625 50.6875 5.359375 
Q 44.046875 -1.421875 33.015625 -1.421875 
Q 20.359375 -1.421875 13.671875 8.265625 
Q 6.984375 17.96875 6.984375 36.375 
Q 6.984375 53.65625 15.1875 63.9375 
Q 23.390625 74.21875 37.203125 74.21875 
Q 40.921875 74.21875 44.703125 73.484375 
Q 48.484375 72.75 52.59375 71.296875 
z
" id="DejaVuSans-36"/>
      </defs>
      <g transform="translate(258.951713 322.182437)scale(0.1 -0.1)">
       <use xlink:href="#DejaVuSans-36"/>
       <use x="63.623047" xlink:href="#DejaVuSans-30"/>
       <use x="127.246094" xlink:href="#DejaVuSans-30"/>
      </g>
     </g>
    </g>
    <g id="xtick_5">
     <g id="line2d_5">
      <g>
       <use style="stroke:#000000;stroke-width:0.8;" x="333.491368" xlink:href="#m36b407f759" y="307.584"/>
      </g>
     </g>
     <g id="text_5">
      <!-- 800 -->
      <defs>
       <path d="M 31.78125 34.625 
Q 24.75 34.625 20.71875 30.859375 
Q 16.703125 27.09375 16.703125 20.515625 
Q 16.703125 13.921875 20.71875 10.15625 
Q 24.75 6.390625 31.78125 6.390625 
Q 38.8125 6.390625 42.859375 10.171875 
Q 46.921875 13.96875 46.921875 20.515625 
Q 46.921875 27.09375 42.890625 30.859375 
Q 38.875 34.625 31.78125 34.625 
z
M 21.921875 38.8125 
Q 15.578125 40.375 12.03125 44.71875 
Q 8.5 49.078125 8.5 55.328125 
Q 8.5 64.0625 14.71875 69.140625 
Q 20.953125 74.21875 31.78125 74.21875 
Q 42.671875 74.21875 48.875 69.140625 
Q 55.078125 64.0625 55.078125 55.328125 
Q 55.078125 49.078125 51.53125 44.71875 
Q 48 40.375 41.703125 38.8125 
Q 48.828125 37.15625 52.796875 32.3125 
Q 56.78125 27.484375 56.78125 20.515625 
Q 56.78125 9.90625 50.3125 4.234375 
Q 43.84375 -1.421875 31.78125 -1.421875 
Q 19.734375 -1.421875 13.25 4.234375 
Q 6.78125 9.90625 6.78125 20.515625 
Q 6.78125 27.484375 10.78125 32.3125 
Q 14.796875 37.15625 21.921875 38.8125 
z
M 18.3125 54.390625 
Q 18.3125 48.734375 21.84375 45.5625 
Q 25.390625 42.390625 31.78125 42.390625 
Q 38.140625 42.390625 41.71875 45.5625 
Q 45.3125 48.734375 45.3125 54.390625 
Q 45.3125 60.0625 41.71875 63.234375 
Q 38.140625 66.40625 31.78125 66.40625 
Q 25.390625 66.40625 21.84375 63.234375 
Q 18.3125 60.0625 18.3125 54.390625 
z
" id="DejaVuSans-38"/>
      </defs>
      <g transform="translate(323.947618 322.182437)scale(0.1 -0.1)">
       <use xlink:href="#DejaVuSans-38"/>
       <use x="63.623047" xlink:href="#DejaVuSans-30"/>
       <use x="127.246094" xlink:href="#DejaVuSans-30"/>
      </g>
     </g>
    </g>
    <g id="xtick_6">
     <g id="line2d_6">
      <g>
       <use style="stroke:#000000;stroke-width:0.8;" x="398.487273" xlink:href="#m36b407f759" y="307.584"/>
      </g>
     </g>
     <g id="text_6">
      <!-- 1000 -->
      <defs>
       <path d="M 12.40625 8.296875 
L 28.515625 8.296875 
L 28.515625 63.921875 
L 10.984375 60.40625 
L 10.984375 69.390625 
L 28.421875 72.90625 
L 38.28125 72.90625 
L 38.28125 8.296875 
L 54.390625 8.296875 
L 54.390625 0 
L 12.40625 0 
z
" id="DejaVuSans-31"/>
      </defs>
      <g transform="translate(385.762273 322.182437)scale(0.1 -0.1)">
       <use xlink:href="#DejaVuSans-31"/>
       <use x="63.623047" xlink:href="#DejaVuSans-30"/>
       <use x="127.246094" xlink:href="#DejaVuSans-30"/>
       <use x="190.869141" xlink:href="#DejaVuSans-30"/>
      </g>
     </g>
    </g>
   </g>
   <g id="matplotlib.axis_2">
    <g id="ytick_1">
     <g id="line2d_7">
      <defs>
       <path d="M 0 0 
L -3.5 0 
" id="m91b2d98996" style="stroke:#000000;stroke-width:0.8;"/>
      </defs>
      <g>
       <use style="stroke:#000000;stroke-width:0.8;" x="57.6" xlink:href="#m91b2d98996" y="295.488"/>
      </g>
     </g>
     <g id="text_7">
      <!-- 0.000 -->
      <defs>
       <path d="M 10.6875 12.40625 
L 21 12.40625 
L 21 0 
L 10.6875 0 
z
" id="DejaVuSans-2e"/>
      </defs>
      <g transform="translate(21.971875 299.287219)scale(0.1 -0.1)">
       <use xlink:href="#DejaVuSans-30"/>
       <use x="63.623047" xlink:href="#DejaVuSans-2e"/>
       <use x="95.410156" xlink:href="#DejaVuSans-30"/>
       <use x="159.033203" xlink:href="#DejaVuSans-30"/>
       <use x="222.65625" xlink:href="#DejaVuSans-30"/>
      </g>
     </g>
    </g>
    <g id="ytick_2">
     <g id="line2d_8">
      <g>
       <use style="stroke:#000000;stroke-width:0.8;" x="57.6" xlink:href="#m91b2d98996" y="265.237222"/>
      </g>
     </g>
     <g id="text_8">
      <!-- 0.025 -->
      <defs>
       <path d="M 10.796875 72.90625 
L 49.515625 72.90625 
L 49.515625 64.59375 
L 19.828125 64.59375 
L 19.828125 46.734375 
Q 21.96875 47.46875 24.109375 47.828125 
Q 26.265625 48.1875 28.421875 48.1875 
Q 40.625 48.1875 47.75 41.5 
Q 54.890625 34.8125 54.890625 23.390625 
Q 54.890625 11.625 47.5625 5.09375 
Q 40.234375 -1.421875 26.90625 -1.421875 
Q 22.3125 -1.421875 17.546875 -0.640625 
Q 12.796875 0.140625 7.71875 1.703125 
L 7.71875 11.625 
Q 12.109375 9.234375 16.796875 8.0625 
Q 21.484375 6.890625 26.703125 6.890625 
Q 35.15625 6.890625 40.078125 11.328125 
Q 45.015625 15.765625 45.015625 23.390625 
Q 45.015625 31 40.078125 35.4375 
Q 35.15625 39.890625 26.703125 39.890625 
Q 22.75 39.890625 18.8125 39.015625 
Q 14.890625 38.140625 10.796875 36.28125 
z
" id="DejaVuSans-35"/>
      </defs>
      <g transform="translate(21.971875 269.036441)scale(0.1 -0.1)">
       <use xlink:href="#DejaVuSans-30"/>
       <use x="63.623047" xlink:href="#DejaVuSans-2e"/>
       <use x="95.410156" xlink:href="#DejaVuSans-30"/>
       <use x="159.033203" xlink:href="#DejaVuSans-32"/>
       <use x="222.65625" xlink:href="#DejaVuSans-35"/>
      </g>
     </g>
    </g>
    <g id="ytick_3">
     <g id="line2d_9">
      <g>
       <use style="stroke:#000000;stroke-width:0.8;" x="57.6" xlink:href="#m91b2d98996" y="234.986445"/>
      </g>
     </g>
     <g id="text_9">
      <!-- 0.050 -->
      <g transform="translate(21.971875 238.785664)scale(0.1 -0.1)">
       <use xlink:href="#DejaVuSans-30"/>
       <use x="63.623047" xlink:href="#DejaVuSans-2e"/>
       <use x="95.410156" xlink:href="#DejaVuSans-30"/>
       <use x="159.033203" xlink:href="#DejaVuSans-35"/>
       <use x="222.65625" xlink:href="#DejaVuSans-30"/>
      </g>
     </g>
    </g>
    <g id="ytick_4">
     <g id="line2d_10">
      <g>
       <use style="stroke:#000000;stroke-width:0.8;" x="57.6" xlink:href="#m91b2d98996" y="204.735667"/>
      </g>
     </g>
     <g id="text_10">
      <!-- 0.075 -->
      <defs>
       <path d="M 8.203125 72.90625 
L 55.078125 72.90625 
L 55.078125 68.703125 
L 28.609375 0 
L 18.3125 0 
L 43.21875 64.59375 
L 8.203125 64.59375 
z
" id="DejaVuSans-37"/>
      </defs>
      <g transform="translate(21.971875 208.534886)scale(0.1 -0.1)">
       <use xlink:href="#DejaVuSans-30"/>
       <use x="63.623047" xlink:href="#DejaVuSans-2e"/>
       <use x="95.410156" xlink:href="#DejaVuSans-30"/>
       <use x="159.033203" xlink:href="#DejaVuSans-37"/>
       <use x="222.65625" xlink:href="#DejaVuSans-35"/>
      </g>
     </g>
    </g>
    <g id="ytick_5">
     <g id="line2d_11">
      <g>
       <use style="stroke:#000000;stroke-width:0.8;" x="57.6" xlink:href="#m91b2d98996" y="174.48489"/>
      </g>
     </g>
     <g id="text_11">
      <!-- 0.100 -->
      <g transform="translate(21.971875 178.284109)scale(0.1 -0.1)">
       <use xlink:href="#DejaVuSans-30"/>
       <use x="63.623047" xlink:href="#DejaVuSans-2e"/>
       <use x="95.410156" xlink:href="#DejaVuSans-31"/>
       <use x="159.033203" xlink:href="#DejaVuSans-30"/>
       <use x="222.65625" xlink:href="#DejaVuSans-30"/>
      </g>
     </g>
    </g>
    <g id="ytick_6">
     <g id="line2d_12">
      <g>
       <use style="stroke:#000000;stroke-width:0.8;" x="57.6" xlink:href="#m91b2d98996" y="144.234112"/>
      </g>
     </g>
     <g id="text_12">
      <!-- 0.125 -->
      <g transform="translate(21.971875 148.033331)scale(0.1 -0.1)">
       <use xlink:href="#DejaVuSans-30"/>
       <use x="63.623047" xlink:href="#DejaVuSans-2e"/>
       <use x="95.410156" xlink:href="#DejaVuSans-31"/>
       <use x="159.033203" xlink:href="#DejaVuSans-32"/>
       <use x="222.65625" xlink:href="#DejaVuSans-35"/>
      </g>
     </g>
    </g>
    <g id="ytick_7">
     <g id="line2d_13">
      <g>
       <use style="stroke:#000000;stroke-width:0.8;" x="57.6" xlink:href="#m91b2d98996" y="113.983335"/>
      </g>
     </g>
     <g id="text_13">
      <!-- 0.150 -->
      <g transform="translate(21.971875 117.782554)scale(0.1 -0.1)">
       <use xlink:href="#DejaVuSans-30"/>
       <use x="63.623047" xlink:href="#DejaVuSans-2e"/>
       <use x="95.410156" xlink:href="#DejaVuSans-31"/>
       <use x="159.033203" xlink:href="#DejaVuSans-35"/>
       <use x="222.65625" xlink:href="#DejaVuSans-30"/>
      </g>
     </g>
    </g>
    <g id="ytick_8">
     <g id="line2d_14">
      <g>
       <use style="stroke:#000000;stroke-width:0.8;" x="57.6" xlink:href="#m91b2d98996" y="83.732557"/>
      </g>
     </g>
     <g id="text_14">
      <!-- 0.175 -->
      <g transform="translate(21.971875 87.531776)scale(0.1 -0.1)">
       <use xlink:href="#DejaVuSans-30"/>
       <use x="63.623047" xlink:href="#DejaVuSans-2e"/>
       <use x="95.410156" xlink:href="#DejaVuSans-31"/>
       <use x="159.033203" xlink:href="#DejaVuSans-37"/>
       <use x="222.65625" xlink:href="#DejaVuSans-35"/>
      </g>
     </g>
    </g>
    <g id="ytick_9">
     <g id="line2d_15">
      <g>
       <use style="stroke:#000000;stroke-width:0.8;" x="57.6" xlink:href="#m91b2d98996" y="53.48178"/>
      </g>
     </g>
     <g id="text_15">
      <!-- 0.200 -->
      <g transform="translate(21.971875 57.280999)scale(0.1 -0.1)">
       <use xlink:href="#DejaVuSans-30"/>
       <use x="63.623047" xlink:href="#DejaVuSans-2e"/>
       <use x="95.410156" xlink:href="#DejaVuSans-32"/>
       <use x="159.033203" xlink:href="#DejaVuSans-30"/>
       <use x="222.65625" xlink:href="#DejaVuSans-30"/>
      </g>
     </g>
    </g>
   </g>
   <g id="line2d_16">
    <path clip-path="url(#p1e7997af01)" d="M 73.832727 53.568 
L 74.157707 53.735831 
L 74.482686 116.473156 
L 74.807666 82.445139 
L 75.132645 63.389234 
L 76.107584 145.854015 
L 76.432563 145.190839 
L 77.082523 180.87922 
L 77.407502 158.008948 
L 77.732482 185.692858 
L 78.057461 148.472367 
L 78.382441 183.515577 
L 78.70742 150.701902 
L 79.0324 176.891703 
L 79.357379 167.475145 
L 79.682359 193.546978 
L 80.007338 202.287171 
L 80.332318 188.025376 
L 80.657297 191.276162 
L 80.982277 174.59842 
L 81.307256 195.348749 
L 81.632236 187.357964 
L 81.957215 207.3766 
L 82.282195 198.679789 
L 82.607174 201.471743 
L 82.932154 152.121545 
L 83.257133 200.779962 
L 83.582113 202.366011 
L 83.907093 169.601218 
L 84.232072 167.483962 
L 84.557052 139.32858 
L 84.882031 194.857335 
L 85.207011 164.496517 
L 85.53199 180.464754 
L 85.85697 145.408238 
L 86.181949 169.86263 
L 86.506929 184.033162 
L 86.831908 169.375211 
L 87.156888 138.767856 
L 87.481867 176.368411 
L 87.806847 186.583619 
L 88.131826 167.04088 
L 88.456806 197.7512 
L 88.781785 185.713837 
L 89.431744 147.501342 
L 89.756724 194.797482 
L 90.081704 170.355224 
L 90.406683 186.51264 
L 90.731663 172.307571 
L 91.056642 166.262821 
L 91.381622 189.762416 
L 91.706601 164.596066 
L 92.35656 174.036803 
L 92.68154 167.807868 
L 93.006519 199.643584 
L 93.331499 193.746949 
L 93.656478 197.612091 
L 93.981458 190.535679 
L 94.306437 191.849669 
L 94.631417 161.125439 
L 94.956396 180.742149 
L 95.281376 169.376554 
L 95.606355 171.320065 
L 95.931335 186.881741 
L 96.256314 153.859865 
L 96.581294 172.031906 
L 96.906274 173.1674 
L 97.231253 156.312649 
L 97.556233 171.026775 
L 97.881212 174.787293 
L 98.206192 191.72943 
L 98.531171 167.930244 
L 98.856151 188.312356 
L 99.18113 170.50543 
L 99.50611 163.862336 
L 99.831089 170.163944 
L 100.156069 182.998749 
L 100.481048 160.220181 
L 100.806028 160.032705 
L 101.131007 168.833437 
L 101.455987 200.592053 
L 101.780966 193.623862 
L 102.105946 190.47532 
L 102.430925 167.595762 
L 102.755905 194.539415 
L 103.730844 180.599336 
L 104.055823 185.657581 
L 104.705782 211.084792 
L 105.355741 140.260578 
L 105.680721 198.876542 
L 106.33068 192.685427 
L 106.655659 207.912937 
L 106.980639 157.221765 
L 107.305618 199.96787 
L 107.630598 169.750171 
L 107.955577 177.026465 
L 108.280557 196.552679 
L 108.605536 145.765682 
L 108.930516 185.680056 
L 109.255495 185.051212 
L 109.580475 192.170393 
L 109.905455 172.029174 
L 110.230434 177.145505 
L 110.555414 202.506616 
L 110.880393 213.577001 
L 111.205373 148.329996 
L 111.530352 203.382186 
L 111.855332 197.672522 
L 112.180311 177.622963 
L 112.505291 165.558517 
L 113.15525 210.87439 
L 113.480229 189.032427 
L 113.805209 210.779818 
L 114.130188 165.074371 
L 114.455168 188.315087 
L 115.105127 202.03226 
L 115.430106 178.215971 
L 115.755086 210.722273 
L 116.080066 180.60562 
L 116.405045 200.761516 
L 116.730025 161.639517 
L 117.055004 214.044884 
L 117.379984 184.350234 
L 117.704963 192.480353 
L 118.029943 119.732398 
L 118.354922 125.216739 
L 118.679902 151.381477 
L 119.004881 158.983372 
L 119.329861 180.40188 
L 119.65484 157.780064 
L 119.97982 179.21489 
L 120.304799 170.145075 
L 120.629779 151.530303 
L 120.954758 145.470624 
L 121.279738 187.715903 
L 121.604717 156.000805 
L 121.929697 176.430563 
L 122.254676 181.991283 
L 122.579656 170.759936 
L 122.904636 152.456143 
L 123.229615 213.616723 
L 123.554595 182.117057 
L 123.879574 168.330727 
L 124.204554 180.18203 
L 124.529533 178.29811 
L 125.179492 183.273548 
L 125.504472 195.388462 
L 125.829451 182.872262 
L 126.154431 177.476967 
L 126.47941 192.772381 
L 126.80439 188.002549 
L 127.129369 205.660242 
L 127.454349 170.037692 
L 127.779328 178.458549 
L 128.104308 205.746438 
L 128.429287 173.620182 
L 129.079247 195.995435 
L 129.404226 173.721227 
L 129.729206 170.169804 
L 130.054185 188.432865 
L 130.379165 182.585247 
L 130.704144 133.271705 
L 131.029124 209.963191 
L 131.354103 208.45975 
L 131.679083 208.855203 
L 132.004062 198.813732 
L 132.329042 203.895236 
L 132.654021 201.138488 
L 132.979001 194.328409 
L 133.30398 212.472764 
L 133.62896 171.562409 
L 133.953939 177.635674 
L 134.278919 194.051996 
L 134.603898 198.186086 
L 134.928878 162.507812 
L 135.253857 215.341313 
L 135.578837 202.217049 
L 135.903817 173.968673 
L 136.228796 205.611045 
L 136.553776 205.423659 
L 136.878755 175.04151 
L 137.203735 209.817998 
L 137.528714 222.99735 
L 137.853694 178.135851 
L 138.178673 184.842071 
L 138.503653 212.157836 
L 138.828632 197.465068 
L 139.153612 156.225866 
L 139.478591 158.48902 
L 139.803571 171.945935 
L 140.12855 208.797117 
L 140.778509 177.855344 
L 141.103489 194.2893 
L 141.428468 190.33028 
L 141.753448 177.670582 
L 142.078428 170.899973 
L 142.403407 211.759462 
L 142.728387 201.007854 
L 143.053366 198.106687 
L 143.378346 171.785685 
L 143.703325 185.771391 
L 144.028305 209.565241 
L 144.353284 190.581207 
L 144.678264 203.156692 
L 145.003243 204.836763 
L 145.328223 166.022731 
L 145.978182 211.687853 
L 146.628141 184.004925 
L 146.95312 190.89754 
L 147.603079 215.77958 
L 147.928059 210.092833 
L 148.253038 167.140528 
L 148.578018 211.808975 
L 148.902998 215.447605 
L 149.227977 201.900553 
L 149.552957 208.183022 
L 149.877936 183.324287 
L 150.202916 225.911522 
L 150.527895 181.226693 
L 150.852875 215.178025 
L 151.177854 189.686028 
L 151.502834 195.630238 
L 151.827813 214.069758 
L 152.152793 224.118415 
L 152.477772 222.829704 
L 152.802752 209.78428 
L 153.127731 210.394228 
L 153.452711 243.127652 
L 153.77769 217.735064 
L 154.10267 214.154467 
L 154.427649 250.174494 
L 154.752629 238.463472 
L 155.402588 203.123677 
L 155.727568 190.192209 
L 156.052547 222.654277 
L 156.377527 191.422248 
L 156.702506 236.831394 
L 157.027486 245.618652 
L 157.352465 212.791045 
L 157.677445 214.803497 
L 158.002424 191.526223 
L 158.327404 237.583115 
L 158.652383 206.039918 
L 158.977363 233.222448 
L 159.302342 243.792292 
L 159.627322 234.084441 
L 159.952301 235.912523 
L 160.277281 254.870169 
L 160.60226 247.324463 
L 160.92724 217.358381 
L 161.252219 240.470127 
L 161.577199 175.752494 
L 161.902179 237.178276 
L 162.227158 216.65414 
L 162.552138 209.795017 
L 162.877117 224.530208 
L 163.202097 254.365156 
L 163.527076 218.078272 
L 163.852056 220.680126 
L 164.177035 254.821012 
L 164.502015 227.878834 
L 164.826994 225.791878 
L 165.151974 232.031559 
L 165.476953 234.078842 
L 165.801933 223.300205 
L 166.126912 245.122794 
L 166.451892 235.858737 
L 166.776871 247.303583 
L 167.101851 251.064452 
L 167.42683 259.905853 
L 168.07679 224.347294 
L 168.401769 231.642034 
L 168.726749 256.006353 
L 169.051728 210.053679 
L 169.376708 247.770334 
L 169.701687 252.940186 
L 170.026667 229.905007 
L 170.351646 263.80416 
L 171.326585 212.872102 
L 171.651564 261.849127 
L 171.976544 227.710908 
L 172.301523 246.61804 
L 172.626503 243.714872 
L 172.951482 236.718543 
L 173.276462 250.046353 
L 173.601441 245.65567 
L 173.926421 248.884701 
L 174.2514 265.787112 
L 174.57638 267.52243 
L 174.90136 249.422557 
L 175.226339 243.71901 
L 175.551319 223.845842 
L 175.876298 243.289186 
L 176.201278 245.537626 
L 176.526257 275.451576 
L 176.851237 242.246361 
L 177.176216 239.163984 
L 177.501196 252.739114 
L 177.826175 235.211226 
L 178.151155 253.669151 
L 178.476134 229.158678 
L 178.801114 214.555978 
L 179.451073 246.62267 
L 179.776052 259.038081 
L 180.426011 251.57528 
L 180.750991 249.584397 
L 181.075971 270.24487 
L 181.40095 251.173837 
L 181.72593 260.905227 
L 182.050909 274.604436 
L 182.375889 258.947805 
L 182.700868 259.894099 
L 183.025848 267.27602 
L 183.350827 246.128696 
L 183.675807 257.5009 
L 184.000786 232.907458 
L 184.325766 264.554069 
L 184.975725 235.037174 
L 185.300704 258.473124 
L 185.625684 257.327299 
L 185.950663 250.83876 
L 186.275643 221.233336 
L 186.600622 246.371851 
L 187.575561 270.862389 
L 188.22552 234.912179 
L 188.5505 243.363081 
L 188.875479 216.815579 
L 189.200459 221.755672 
L 189.525438 243.330008 
L 189.850418 242.581555 
L 190.175397 232.4724 
L 190.500377 260.736363 
L 190.825356 235.743263 
L 191.150336 259.710835 
L 191.475315 259.159857 
L 192.125274 256.675532 
L 192.450254 253.547307 
L 192.775233 267.324692 
L 193.100213 255.232833 
L 193.425192 258.063005 
L 193.750172 246.655815 
L 194.075152 256.196285 
L 194.400131 270.170078 
L 194.725111 259.271878 
L 195.05009 274.676048 
L 195.37507 266.344966 
L 195.700049 238.257947 
L 196.025029 271.442683 
L 196.350008 263.70101 
L 196.674988 279.373158 
L 196.999967 271.758563 
L 197.324947 244.169268 
L 197.649926 263.911367 
L 197.974906 276.203716 
L 198.299885 276.875893 
L 198.624865 245.581959 
L 199.274824 282.588393 
L 199.599803 239.756528 
L 199.924783 254.522791 
L 200.249762 254.10809 
L 200.574742 267.210775 
L 201.224701 205.378609 
L 201.549681 237.782405 
L 201.87466 241.486288 
L 202.524619 255.210159 
L 202.849599 245.89969 
L 203.174578 251.593284 
L 203.499558 267.684574 
L 203.824537 261.895059 
L 204.149517 260.792818 
L 204.474496 233.835705 
L 204.799476 256.971216 
L 205.124455 242.418646 
L 205.449435 236.453611 
L 205.774414 260.702416 
L 206.099394 244.409624 
L 206.424373 247.275153 
L 206.749353 256.159548 
L 207.399312 259.34475 
L 207.724292 257.675342 
L 208.049271 252.5155 
L 208.374251 261.537459 
L 208.69923 265.691724 
L 209.02421 278.536568 
L 209.349189 268.473556 
L 209.674169 254.442432 
L 209.999148 265.645772 
L 210.324128 249.217041 
L 210.649107 278.83451 
L 211.299066 250.589853 
L 211.949025 263.928677 
L 212.274005 268.471656 
L 212.598984 257.734143 
L 212.923964 275.508921 
L 213.248943 262.334072 
L 213.573923 275.970696 
L 214.223882 262.565259 
L 214.548862 268.242957 
L 215.198821 274.713996 
L 215.5238 274.182591 
L 215.84878 263.100992 
L 216.173759 243.093736 
L 216.498739 267.72848 
L 216.823718 261.442554 
L 217.148698 230.744619 
L 217.473677 269.472691 
L 217.798657 273.882437 
L 218.123636 272.260592 
L 218.448616 266.313467 
L 218.773595 251.647823 
L 219.098575 270.100783 
L 219.423554 260.539723 
L 219.748534 269.654938 
L 220.398493 246.966297 
L 220.723473 275.676146 
L 221.048452 268.281045 
L 221.373432 265.342461 
L 221.698411 265.95595 
L 222.023391 269.859963 
L 222.34837 264.39931 
L 222.67335 270.769784 
L 222.998329 265.501701 
L 223.323309 256.881116 
L 223.648288 256.006078 
L 224.298247 274.429686 
L 224.623227 256.550642 
L 224.948206 268.289091 
L 225.273186 250.833612 
L 225.598165 276.259593 
L 225.923145 252.970184 
L 226.248124 272.842135 
L 226.573104 271.951663 
L 227.223063 267.584828 
L 227.548043 279.788616 
L 227.873022 263.968101 
L 228.198002 264.710031 
L 228.522981 276.554953 
L 228.847961 270.526068 
L 229.17294 275.934312 
L 229.49792 277.101883 
L 229.822899 274.04215 
L 230.147879 286.270872 
L 230.472858 263.051592 
L 230.797838 268.951063 
L 231.122817 283.588422 
L 231.447797 274.709741 
L 231.772776 274.12621 
L 232.097756 274.039705 
L 232.747715 280.168449 
L 233.072695 275.510156 
L 233.397674 258.516624 
L 233.722654 258.292892 
L 234.047633 267.062189 
L 234.372613 260.404309 
L 235.022572 278.83684 
L 235.347551 276.293615 
L 235.672531 263.714017 
L 235.99751 265.797813 
L 236.32249 266.201556 
L 236.647469 273.002975 
L 236.972449 270.628587 
L 237.297428 286.809384 
L 237.622408 278.464762 
L 237.947387 274.733911 
L 238.597346 260.96387 
L 238.922326 269.410811 
L 239.572285 246.027498 
L 239.897265 247.898958 
L 240.222244 253.903449 
L 240.547224 266.60235 
L 240.872203 264.554231 
L 241.197183 268.825423 
L 241.522162 263.766106 
L 241.847142 254.708072 
L 242.172121 281.455337 
L 242.497101 261.553635 
L 242.82208 251.374552 
L 243.14706 252.147382 
L 243.472039 246.200378 
L 244.446978 271.286004 
L 244.771957 260.649556 
L 245.096937 267.117925 
L 245.421916 270.411162 
L 245.746896 260.37454 
L 246.396855 278.534246 
L 246.721835 280.599228 
L 247.046814 262.477762 
L 247.371794 271.908585 
L 247.696773 262.90998 
L 248.021753 272.016184 
L 248.346732 258.795422 
L 248.671712 262.441856 
L 248.996691 284.352457 
L 249.321671 261.237462 
L 249.64665 282.18785 
L 250.296609 255.975087 
L 250.621589 268.370079 
L 250.946568 271.616417 
L 251.271548 252.384452 
L 251.596527 267.983686 
L 251.921507 277.303632 
L 252.571466 241.505581 
L 252.896446 256.338486 
L 253.221425 259.760461 
L 253.546405 259.039742 
L 253.871384 270.351685 
L 254.196364 270.931318 
L 254.521343 264.938838 
L 254.846323 263.306087 
L 255.171302 260.593036 
L 255.496282 259.640646 
L 255.821261 284.67975 
L 256.146241 272.147825 
L 256.47122 273.820993 
L 256.7962 263.016096 
L 257.121179 260.804443 
L 257.446159 262.804639 
L 257.771138 267.420251 
L 258.096118 264.089922 
L 258.421097 275.41988 
L 258.746077 261.512755 
L 259.071057 259.906504 
L 259.396036 278.966971 
L 259.721016 262.524029 
L 260.045995 287.967505 
L 260.370975 283.455684 
L 261.020934 268.920013 
L 261.345913 277.630724 
L 261.670893 262.540595 
L 261.995872 277.528479 
L 262.320852 281.640731 
L 262.645831 280.950591 
L 262.970811 267.033144 
L 263.29579 260.867022 
L 263.62077 283.887695 
L 263.945749 274.548239 
L 264.270729 281.981463 
L 264.920688 272.343996 
L 265.245667 278.776372 
L 265.570647 281.781903 
L 265.895627 275.308819 
L 266.220606 272.950118 
L 266.545586 269.367639 
L 266.870565 269.767563 
L 267.195545 282.389246 
L 267.520524 264.106581 
L 267.845504 272.559598 
L 268.170483 274.531071 
L 268.495463 266.968947 
L 268.820442 278.518233 
L 269.145422 273.830358 
L 269.470401 274.512048 
L 269.795381 271.246056 
L 270.12036 279.56676 
L 270.44534 277.116267 
L 270.770319 282.85905 
L 271.095299 285.380639 
L 271.420278 291.460479 
L 272.070238 263.454729 
L 272.395217 279.46105 
L 272.720197 284.994786 
L 273.045176 272.58101 
L 273.370156 267.552277 
L 273.695135 283.414203 
L 274.020115 288.651326 
L 274.345094 287.771386 
L 274.670074 265.012165 
L 275.320033 281.270141 
L 275.645012 281.172846 
L 275.969992 280.307349 
L 276.619951 255.184754 
L 276.94493 265.561291 
L 277.26991 264.194233 
L 277.594889 281.44723 
L 278.244848 276.903801 
L 278.569828 257.210143 
L 278.894808 266.280815 
L 279.219787 282.228359 
L 279.544767 264.680724 
L 279.869746 285.528264 
L 280.194726 287.009234 
L 280.519705 290.861959 
L 280.844685 278.775526 
L 281.169664 273.005261 
L 281.494644 272.208787 
L 281.819623 268.25217 
L 282.144603 269.610893 
L 282.469582 268.314348 
L 282.794562 272.683204 
L 283.119541 274.711413 
L 283.7695 269.765927 
L 284.09448 291.893853 
L 284.419459 278.359367 
L 284.744439 286.904425 
L 285.069419 277.272734 
L 285.394398 274.515012 
L 285.719378 272.76943 
L 286.044357 282.983505 
L 286.369337 271.741781 
L 286.694316 275.566464 
L 287.019296 281.379958 
L 287.344275 291.238721 
L 287.669255 291.377527 
L 287.994234 289.040577 
L 288.319214 266.012081 
L 288.644193 275.492506 
L 288.969173 264.769641 
L 289.294152 288.360422 
L 289.619132 286.066757 
L 289.944111 277.620333 
L 290.269091 288.901282 
L 290.59407 293.617811 
L 290.91905 276.852235 
L 291.569009 279.632041 
L 291.893989 285.820156 
L 292.218968 281.092955 
L 292.543948 271.144083 
L 292.868927 273.548781 
L 293.193907 286.296894 
L 293.518886 284.303002 
L 293.843866 278.081269 
L 294.168845 284.735795 
L 294.493825 287.515043 
L 294.818804 287.878371 
L 295.143784 277.836374 
L 295.468763 279.174473 
L 295.793743 288.238572 
L 296.118722 274.949718 
L 296.443702 286.760897 
L 296.768681 276.16039 
L 297.093661 280.900404 
L 297.41864 280.574736 
L 297.74362 274.796659 
L 298.0686 262.732252 
L 298.393579 280.916566 
L 298.718559 268.309481 
L 299.043538 250.289621 
L 299.368518 285.017179 
L 299.693497 281.917766 
L 300.018477 280.80503 
L 300.343456 282.569183 
L 300.668436 242.470589 
L 300.993415 275.441488 
L 301.318395 272.376308 
L 301.643374 286.406782 
L 301.968354 282.501989 
L 302.293333 283.276328 
L 302.618313 279.161744 
L 302.943292 281.278304 
L 303.268272 278.862328 
L 303.593251 285.282549 
L 303.918231 280.942502 
L 304.24321 284.688985 
L 304.56819 285.064576 
L 304.89317 281.193236 
L 305.218149 282.320811 
L 305.543129 285.837865 
L 305.868108 278.459994 
L 306.193088 274.683612 
L 306.518067 251.881688 
L 306.843047 279.088024 
L 307.168026 282.926464 
L 307.817985 270.482922 
L 308.142965 273.48485 
L 308.467944 278.661275 
L 308.792924 276.863384 
L 309.767862 283.223702 
L 310.092842 285.769733 
L 310.742801 272.772906 
L 311.067781 273.738675 
L 311.39276 288.960234 
L 311.71774 288.436302 
L 312.042719 273.687235 
L 312.367699 290.380309 
L 312.692678 287.08927 
L 313.017658 285.02382 
L 313.342637 272.190076 
L 313.667617 285.487113 
L 313.992596 276.253228 
L 314.317576 283.869234 
L 314.642555 265.835905 
L 315.292514 279.064109 
L 315.617494 284.238372 
L 315.942473 282.760115 
L 316.267453 284.064329 
L 316.592432 270.032606 
L 316.917412 273.938919 
L 317.242391 288.168256 
L 317.567371 273.053714 
L 317.892351 291.728806 
L 318.21733 277.280721 
L 318.54231 282.465255 
L 318.867289 284.679425 
L 319.192269 279.385979 
L 319.517248 291.412613 
L 319.842228 289.267571 
L 320.817166 265.802116 
L 321.142146 282.303406 
L 321.467125 284.551355 
L 321.792105 282.256693 
L 322.117084 281.745505 
L 322.442064 282.048841 
L 322.767043 288.20457 
L 323.092023 290.214199 
L 324.066962 268.866121 
L 324.391941 284.535913 
L 324.716921 274.325675 
L 325.0419 279.968918 
L 325.36688 264.1941 
L 325.691859 276.820502 
L 326.016839 283.262395 
L 326.341818 284.660607 
L 326.666798 275.299668 
L 326.991777 287.015936 
L 327.316757 284.651267 
L 327.641736 280.936729 
L 327.966716 283.075772 
L 328.291695 276.642435 
L 328.616675 291.458953 
L 328.941654 287.960058 
L 329.266634 288.620208 
L 329.591613 281.732911 
L 329.916593 286.19284 
L 330.241572 284.405364 
L 330.891532 285.907345 
L 331.216511 276.109554 
L 331.541491 294.447607 
L 331.86647 289.720379 
L 332.19145 289.408091 
L 332.516429 269.882271 
L 333.166388 281.540677 
L 333.491368 281.094361 
L 333.816347 268.203311 
L 334.141327 291.229335 
L 334.466306 269.662662 
L 334.791286 285.741642 
L 335.116265 270.023291 
L 335.441245 280.089034 
L 336.091204 273.570587 
L 336.416183 284.511567 
L 336.741163 270.544976 
L 337.066143 294.556926 
L 337.391122 282.299593 
L 338.041081 272.103163 
L 338.366061 274.302633 
L 338.69104 289.702792 
L 339.01602 251.424943 
L 339.340999 275.642482 
L 339.665979 284.208512 
L 339.990958 278.958847 
L 340.315938 284.794158 
L 340.640917 286.749537 
L 340.965897 279.62499 
L 341.290876 264.920266 
L 341.615856 265.461474 
L 341.940835 258.351892 
L 342.265815 277.890284 
L 342.590794 273.010604 
L 342.915774 281.686005 
L 343.240753 281.284733 
L 343.565733 275.112359 
L 343.890713 285.696177 
L 344.215692 276.618321 
L 344.540672 273.022967 
L 344.865651 278.378618 
L 345.51561 248.610541 
L 345.84059 278.215293 
L 346.165569 274.813991 
L 346.490549 284.3654 
L 347.140508 268.618195 
L 347.465487 265.853927 
L 347.790467 279.602965 
L 348.115446 283.834607 
L 348.440426 284.906496 
L 348.765405 287.651239 
L 349.090385 285.384854 
L 349.415364 289.521582 
L 349.740344 283.426682 
L 350.065324 279.622065 
L 350.715283 284.901252 
L 351.040262 281.070545 
L 351.365242 287.346285 
L 351.690221 289.388326 
L 352.015201 281.00033 
L 352.66516 291.086307 
L 352.990139 276.787126 
L 353.315119 277.877123 
L 353.640098 293.489437 
L 353.965078 282.810671 
L 354.290057 281.102802 
L 354.615037 287.769187 
L 354.940016 277.654494 
L 355.264996 292.322067 
L 355.589975 292.33226 
L 355.914955 273.356162 
L 356.564914 288.199589 
L 356.889894 288.569878 
L 357.214873 285.643341 
L 357.539853 283.961001 
L 358.189812 288.189299 
L 358.514791 287.558599 
L 358.839771 288.33101 
L 359.16475 258.4299 
L 359.48973 278.905184 
L 359.814709 276.014624 
L 360.139689 282.328747 
L 360.464668 293.680457 
L 360.789648 284.066085 
L 361.114627 285.960121 
L 361.439607 279.406796 
L 361.764586 287.78328 
L 362.089566 291.607191 
L 362.414545 281.770168 
L 362.739525 278.672184 
L 363.064505 279.488846 
L 363.389484 279.266309 
L 363.714464 283.43354 
L 364.039443 290.086838 
L 364.364423 290.922882 
L 364.689402 285.720675 
L 365.014382 277.440543 
L 365.339361 288.727859 
L 365.664341 280.529975 
L 365.98932 277.042246 
L 366.3143 276.909373 
L 366.639279 281.020802 
L 366.964259 288.766702 
L 367.289238 284.395646 
L 367.614218 284.208574 
L 367.939197 281.011251 
L 368.264177 293.258976 
L 368.589156 279.985688 
L 368.914136 287.239107 
L 369.239115 288.001228 
L 369.564095 289.740066 
L 369.889075 290.563048 
L 370.214054 283.830406 
L 370.539034 284.582977 
L 370.864013 286.35348 
L 371.188993 292.690438 
L 371.513972 282.184098 
L 371.838952 291.812108 
L 372.488911 262.338415 
L 372.81389 285.464364 
L 373.13887 283.199968 
L 373.463849 248.977902 
L 373.788829 272.410801 
L 374.113808 263.498158 
L 374.438788 285.09979 
L 374.763767 266.931964 
L 375.088747 279.932552 
L 375.413726 278.812977 
L 375.738706 262.230805 
L 376.063686 284.439822 
L 376.388665 278.353996 
L 376.713645 278.147206 
L 377.038624 285.847069 
L 377.688583 291.838567 
L 378.013563 289.470367 
L 378.338542 278.485473 
L 378.663522 278.596859 
L 378.988501 263.192664 
L 379.313481 263.159951 
L 379.63846 246.734118 
L 379.96344 283.026326 
L 380.288419 272.329554 
L 380.613399 288.959935 
L 381.263358 278.572083 
L 381.588337 274.48456 
L 381.913317 288.397169 
L 382.238296 284.193842 
L 382.563276 289.211837 
L 382.888256 290.389638 
L 383.213235 289.849592 
L 383.538215 281.643409 
L 383.863194 290.695256 
L 384.188174 294.379738 
L 384.513153 287.500062 
L 384.838133 283.207712 
L 385.163112 283.383373 
L 385.488092 295.406952 
L 385.813071 289.827797 
L 386.138051 270.740387 
L 386.46303 293.545641 
L 386.78801 293.917794 
L 387.112989 281.670856 
L 387.437969 289.508109 
L 387.762948 292.431324 
L 388.412907 282.138548 
L 388.737887 273.403357 
L 389.062867 289.845912 
L 389.387846 293.689585 
L 389.712826 285.026495 
L 390.037805 295.488 
L 390.362785 286.378109 
L 390.687764 294.75055 
L 391.012744 295.488 
L 391.337723 283.527282 
L 391.662703 290.878384 
L 391.987682 285.504721 
L 392.312662 288.683498 
L 392.637641 278.643253 
L 392.962621 283.962171 
L 393.2876 281.249751 
L 393.61258 290.152871 
L 393.937559 285.006032 
L 394.262539 283.74316 
L 394.587518 294.151655 
L 394.912498 285.347731 
L 395.237477 290.260079 
L 395.562457 285.355647 
L 395.887437 292.957908 
L 396.212416 288.952733 
L 396.537396 290.576094 
L 396.862375 293.450385 
L 397.187355 295.244233 
L 397.512334 278.050441 
L 397.837314 291.961469 
L 398.487273 287.712443 
L 398.487273 287.712443 
" style="fill:none;stroke:#1f77b4;stroke-linecap:square;stroke-width:1.5;"/>
   </g>
   <g id="patch_3">
    <path d="M 57.6 307.584 
L 57.6 41.472 
" style="fill:none;stroke:#000000;stroke-linecap:square;stroke-linejoin:miter;stroke-width:0.8;"/>
   </g>
   <g id="patch_4">
    <path d="M 414.72 307.584 
L 414.72 41.472 
" style="fill:none;stroke:#000000;stroke-linecap:square;stroke-linejoin:miter;stroke-width:0.8;"/>
   </g>
   <g id="patch_5">
    <path d="M 57.6 307.584 
L 414.72 307.584 
" style="fill:none;stroke:#000000;stroke-linecap:square;stroke-linejoin:miter;stroke-width:0.8;"/>
   </g>
   <g id="patch_6">
    <path d="M 57.6 41.472 
L 414.72 41.472 
" style="fill:none;stroke:#000000;stroke-linecap:square;stroke-linejoin:miter;stroke-width:0.8;"/>
   </g>
  </g>
 </g>
 <defs>
  <clipPath id="p1e7997af01">
   <rect height="266.112" width="357.12" x="57.6" y="41.472"/>
  </clipPath>
 </defs>
</svg>
